%TF.GenerationSoftware,KiCad,Pcbnew,(7.0.0)*%
%TF.CreationDate,2023-04-15T22:01:32+02:00*%
%TF.ProjectId,incredibly_simple_voltage_regulator,696e6372-6564-4696-926c-795f73696d70,rev?*%
%TF.SameCoordinates,Original*%
%TF.FileFunction,Copper,L1,Top*%
%TF.FilePolarity,Positive*%
%FSLAX46Y46*%
G04 Gerber Fmt 4.6, Leading zero omitted, Abs format (unit mm)*
G04 Created by KiCad (PCBNEW (7.0.0)) date 2023-04-15 22:01:32*
%MOMM*%
%LPD*%
G01*
G04 APERTURE LIST*
%TA.AperFunction,ComponentPad*%
%ADD10C,1.800000*%
%TD*%
%TA.AperFunction,ComponentPad*%
%ADD11R,1.800000X1.800000*%
%TD*%
%TA.AperFunction,ComponentPad*%
%ADD12C,1.600000*%
%TD*%
%TA.AperFunction,ComponentPad*%
%ADD13O,1.600000X1.600000*%
%TD*%
%TA.AperFunction,ComponentPad*%
%ADD14R,1.905000X2.000000*%
%TD*%
%TA.AperFunction,ComponentPad*%
%ADD15O,1.905000X2.000000*%
%TD*%
%TA.AperFunction,ComponentPad*%
%ADD16R,2.600000X2.600000*%
%TD*%
%TA.AperFunction,ComponentPad*%
%ADD17C,2.600000*%
%TD*%
%TA.AperFunction,Conductor*%
%ADD18C,1.367030*%
%TD*%
G04 APERTURE END LIST*
D10*
%TO.P,D1,2,A*%
%TO.N,/5V OUT*%
X95150000Y-41785000D03*
D11*
%TO.P,D1,1,K*%
%TO.N,Net-(D1-K)*%
X95149999Y-44324999D03*
%TD*%
D12*
%TO.P,C4,1*%
%TO.N,/9V OUT*%
X76950000Y-59000000D03*
%TO.P,C4,2*%
%TO.N,GND*%
X76950000Y-64000000D03*
%TD*%
D13*
%TO.P,R1,2*%
%TO.N,GND*%
X91039999Y-47544999D03*
D12*
%TO.P,R1,1*%
%TO.N,Net-(D1-K)*%
X98660000Y-47545000D03*
%TD*%
D14*
%TO.P,U2,1,VI*%
%TO.N,+12V*%
X84799999Y-52199999D03*
D15*
%TO.P,U2,2,GND*%
%TO.N,GND*%
X82259999Y-52199999D03*
%TO.P,U2,3,VO*%
%TO.N,/9V OUT*%
X79719999Y-52199999D03*
%TD*%
D11*
%TO.P,D2,1,K*%
%TO.N,Net-(D2-K)*%
X82299999Y-44274999D03*
D10*
%TO.P,D2,2,A*%
%TO.N,/9V OUT*%
X82300000Y-41735000D03*
%TD*%
D12*
%TO.P,C3,1*%
%TO.N,+12V*%
X80940000Y-59120000D03*
%TO.P,C3,2*%
%TO.N,GND*%
X80940000Y-64120000D03*
%TD*%
D16*
%TO.P,J2,1,Pin_1*%
%TO.N,/9V OUT*%
X84649999Y-33249999D03*
D17*
%TO.P,J2,2,Pin_2*%
%TO.N,GND*%
X79650000Y-33250000D03*
%TD*%
D12*
%TO.P,C2,2*%
%TO.N,GND*%
X96480000Y-63785000D03*
%TO.P,C2,1*%
%TO.N,/5V OUT*%
X96480000Y-58785000D03*
%TD*%
D16*
%TO.P,J1,1,Pin_1*%
%TO.N,/5V OUT*%
X97399999Y-33244999D03*
D17*
%TO.P,J1,2,Pin_2*%
%TO.N,GND*%
X92400000Y-33245000D03*
%TD*%
D15*
%TO.P,U1,3,VO*%
%TO.N,/5V OUT*%
X92179999Y-52344999D03*
%TO.P,U1,2,GND*%
%TO.N,GND*%
X94719999Y-52344999D03*
D14*
%TO.P,U1,1,VI*%
%TO.N,+12V*%
X97259999Y-52344999D03*
%TD*%
D17*
%TO.P,J3,2,Pin_2*%
%TO.N,GND*%
X91200000Y-62600000D03*
D16*
%TO.P,J3,1,Pin_1*%
%TO.N,+12V*%
X86199999Y-62599999D03*
%TD*%
D12*
%TO.P,C1,2*%
%TO.N,GND*%
X101380000Y-63985000D03*
%TO.P,C1,1*%
%TO.N,+12V*%
X101380000Y-58985000D03*
%TD*%
%TO.P,R2,1*%
%TO.N,Net-(D2-K)*%
X85910000Y-47550000D03*
D13*
%TO.P,R2,2*%
%TO.N,GND*%
X78289999Y-47549999D03*
%TD*%
D18*
%TO.N,/5V OUT*%
X99357335Y-55907665D02*
X99357335Y-49228515D01*
X96480000Y-58785000D02*
X99357335Y-55907665D01*
%TO.N,/9V OUT*%
X76950000Y-54970000D02*
X79720000Y-52200000D01*
X76950000Y-59000000D02*
X76950000Y-54970000D01*
%TO.N,/5V OUT*%
X99357335Y-49228515D02*
X100343515Y-48242335D01*
X95192468Y-49228515D02*
X99357335Y-49228515D01*
X92180000Y-52240983D02*
X95192468Y-49228515D01*
X100343515Y-48242335D02*
X100343515Y-36188515D01*
X100343515Y-36188515D02*
X97400000Y-33245000D01*
%TO.N,/9V OUT*%
X82300000Y-35600000D02*
X84650000Y-33250000D01*
X82300000Y-41735000D02*
X82300000Y-35600000D01*
X80516485Y-42245723D02*
X81027208Y-41735000D01*
X81027208Y-41735000D02*
X82300000Y-41735000D01*
X80516485Y-49131485D02*
X80516485Y-42245723D01*
X79720000Y-49927970D02*
X80516485Y-49131485D01*
X79720000Y-52200000D02*
X79720000Y-49927970D01*
%TO.N,Net-(D2-K)*%
X82635000Y-44275000D02*
X85910000Y-47550000D01*
X82300000Y-44275000D02*
X82635000Y-44275000D01*
%TO.N,/5V OUT*%
X95150000Y-41785000D02*
X95150000Y-35495000D01*
X95150000Y-35495000D02*
X97400000Y-33245000D01*
%TO.N,Net-(D1-K)*%
X98660000Y-47545000D02*
X98370000Y-47545000D01*
X98370000Y-47545000D02*
X95150000Y-44325000D01*
%TO.N,+12V*%
X99896485Y-60468515D02*
X101380000Y-58985000D01*
X95782665Y-60468515D02*
X99896485Y-60468515D01*
X95002075Y-59687925D02*
X95782665Y-60468515D01*
X89112075Y-59687925D02*
X95002075Y-59687925D01*
X86200000Y-62600000D02*
X89112075Y-59687925D01*
X84420000Y-62600000D02*
X80940000Y-59120000D01*
X86200000Y-62600000D02*
X84420000Y-62600000D01*
X97260000Y-52449017D02*
X97260000Y-52345000D01*
X87109017Y-62600000D02*
X97260000Y-52449017D01*
X86200000Y-62600000D02*
X87109017Y-62600000D01*
X86200000Y-62600000D02*
X86200000Y-53600000D01*
X86200000Y-53600000D02*
X84800000Y-52200000D01*
%TD*%
%TA.AperFunction,Conductor*%
%TO.N,+12V*%
G36*
X99948498Y-27801014D02*
G01*
X101900421Y-28034080D01*
X101945346Y-28048483D01*
X101981641Y-28078627D01*
X102720000Y-28980000D01*
X102808000Y-29060000D01*
X103009411Y-29243101D01*
X103039400Y-29284689D01*
X103050000Y-29334854D01*
X103050000Y-29760000D01*
X103050295Y-29763014D01*
X103050296Y-29763024D01*
X103149408Y-30773962D01*
X103150000Y-30786061D01*
X103150000Y-65837677D01*
X103142215Y-65880920D01*
X102995928Y-66274065D01*
X102979996Y-66303755D01*
X102757635Y-66609501D01*
X102740360Y-66628686D01*
X101854639Y-67426808D01*
X101821992Y-67448003D01*
X101315350Y-67673177D01*
X101283383Y-67682492D01*
X100508825Y-67798676D01*
X100491071Y-67800046D01*
X75349354Y-67929900D01*
X75311536Y-67924197D01*
X74986295Y-67821978D01*
X74973964Y-67817371D01*
X74395510Y-67565464D01*
X74363865Y-67545531D01*
X74339605Y-67517073D01*
X73545422Y-66234899D01*
X73527348Y-66180831D01*
X73450517Y-65335692D01*
X73450009Y-65324283D01*
X73452230Y-64000000D01*
X75644532Y-64000000D01*
X75645004Y-64005395D01*
X75663509Y-64216916D01*
X75664365Y-64226692D01*
X75665762Y-64231907D01*
X75665764Y-64231916D01*
X75721858Y-64441263D01*
X75721861Y-64441271D01*
X75723261Y-64446496D01*
X75819432Y-64652734D01*
X75949953Y-64839139D01*
X76110861Y-65000047D01*
X76297266Y-65130568D01*
X76503504Y-65226739D01*
X76723308Y-65285635D01*
X76950000Y-65305468D01*
X77176692Y-65285635D01*
X77396496Y-65226739D01*
X77602734Y-65130568D01*
X77789139Y-65000047D01*
X77950047Y-64839139D01*
X78080568Y-64652734D01*
X78176739Y-64446496D01*
X78235635Y-64226692D01*
X78244969Y-64120000D01*
X79634532Y-64120000D01*
X79635004Y-64125395D01*
X79653607Y-64338037D01*
X79654365Y-64346692D01*
X79655762Y-64351907D01*
X79655764Y-64351916D01*
X79711858Y-64561263D01*
X79711861Y-64561271D01*
X79713261Y-64566496D01*
X79715549Y-64571403D01*
X79715550Y-64571405D01*
X79741926Y-64627968D01*
X79809432Y-64772734D01*
X79812539Y-64777171D01*
X79812540Y-64777173D01*
X79820228Y-64788152D01*
X79939953Y-64959139D01*
X80100861Y-65120047D01*
X80287266Y-65250568D01*
X80493504Y-65346739D01*
X80713308Y-65405635D01*
X80940000Y-65425468D01*
X81166692Y-65405635D01*
X81386496Y-65346739D01*
X81592734Y-65250568D01*
X81779139Y-65120047D01*
X81940047Y-64959139D01*
X82070568Y-64772734D01*
X82166739Y-64566496D01*
X82225635Y-64346692D01*
X82245468Y-64120000D01*
X82230115Y-63944518D01*
X84400000Y-63944518D01*
X84400353Y-63951114D01*
X84405573Y-63999667D01*
X84409111Y-64014641D01*
X84453547Y-64133777D01*
X84461962Y-64149189D01*
X84537498Y-64250092D01*
X84549907Y-64262501D01*
X84650810Y-64338037D01*
X84666222Y-64346452D01*
X84785358Y-64390888D01*
X84800332Y-64394426D01*
X84848885Y-64399646D01*
X84855482Y-64400000D01*
X85933674Y-64400000D01*
X85946549Y-64396549D01*
X85950000Y-64383674D01*
X86450000Y-64383674D01*
X86453450Y-64396549D01*
X86466326Y-64400000D01*
X87544518Y-64400000D01*
X87551114Y-64399646D01*
X87599667Y-64394426D01*
X87614641Y-64390888D01*
X87733777Y-64346452D01*
X87749189Y-64338037D01*
X87850092Y-64262501D01*
X87862501Y-64250092D01*
X87938037Y-64149189D01*
X87946452Y-64133777D01*
X87990888Y-64014641D01*
X87994426Y-63999667D01*
X87999646Y-63951114D01*
X88000000Y-63944518D01*
X88000000Y-62866326D01*
X87996549Y-62853450D01*
X87983674Y-62850000D01*
X86466326Y-62850000D01*
X86453450Y-62853450D01*
X86450000Y-62866326D01*
X86450000Y-64383674D01*
X85950000Y-64383674D01*
X85950000Y-62866326D01*
X85946549Y-62853450D01*
X85933674Y-62850000D01*
X84416326Y-62850000D01*
X84403450Y-62853450D01*
X84400000Y-62866326D01*
X84400000Y-63944518D01*
X82230115Y-63944518D01*
X82225635Y-63893308D01*
X82166739Y-63673504D01*
X82070568Y-63467266D01*
X81940047Y-63280861D01*
X81779139Y-63119953D01*
X81592734Y-62989432D01*
X81386496Y-62893261D01*
X81381271Y-62891861D01*
X81381263Y-62891858D01*
X81171916Y-62835764D01*
X81171907Y-62835762D01*
X81166692Y-62834365D01*
X81161304Y-62833893D01*
X81161301Y-62833893D01*
X80945395Y-62815004D01*
X80940000Y-62814532D01*
X80934605Y-62815004D01*
X80718698Y-62833893D01*
X80718693Y-62833893D01*
X80713308Y-62834365D01*
X80708094Y-62835762D01*
X80708083Y-62835764D01*
X80498736Y-62891858D01*
X80498724Y-62891862D01*
X80493504Y-62893261D01*
X80488599Y-62895547D01*
X80488594Y-62895550D01*
X80292176Y-62987142D01*
X80292172Y-62987144D01*
X80287266Y-62989432D01*
X80282833Y-62992535D01*
X80282826Y-62992540D01*
X80105296Y-63116847D01*
X80105291Y-63116850D01*
X80100861Y-63119953D01*
X80097037Y-63123776D01*
X80097031Y-63123782D01*
X79943782Y-63277031D01*
X79943776Y-63277037D01*
X79939953Y-63280861D01*
X79936850Y-63285291D01*
X79936847Y-63285296D01*
X79812540Y-63462826D01*
X79812535Y-63462833D01*
X79809432Y-63467266D01*
X79807144Y-63472172D01*
X79807142Y-63472176D01*
X79715550Y-63668594D01*
X79715547Y-63668599D01*
X79713261Y-63673504D01*
X79711862Y-63678724D01*
X79711858Y-63678736D01*
X79655764Y-63888083D01*
X79655762Y-63888094D01*
X79654365Y-63893308D01*
X79653893Y-63898693D01*
X79653893Y-63898698D01*
X79635004Y-64114605D01*
X79634532Y-64120000D01*
X78244969Y-64120000D01*
X78255468Y-64000000D01*
X78235635Y-63773308D01*
X78192703Y-63613083D01*
X78178141Y-63558736D01*
X78178140Y-63558734D01*
X78176739Y-63553504D01*
X78080568Y-63347266D01*
X77950047Y-63160861D01*
X77789139Y-62999953D01*
X77602734Y-62869432D01*
X77429781Y-62788782D01*
X77401405Y-62775550D01*
X77401403Y-62775549D01*
X77396496Y-62773261D01*
X77391271Y-62771861D01*
X77391263Y-62771858D01*
X77181916Y-62715764D01*
X77181907Y-62715762D01*
X77176692Y-62714365D01*
X77171304Y-62713893D01*
X77171301Y-62713893D01*
X76955395Y-62695004D01*
X76950000Y-62694532D01*
X76944605Y-62695004D01*
X76728698Y-62713893D01*
X76728693Y-62713893D01*
X76723308Y-62714365D01*
X76718094Y-62715762D01*
X76718083Y-62715764D01*
X76508736Y-62771858D01*
X76508724Y-62771862D01*
X76503504Y-62773261D01*
X76498599Y-62775547D01*
X76498594Y-62775550D01*
X76302176Y-62867142D01*
X76302172Y-62867144D01*
X76297266Y-62869432D01*
X76292833Y-62872535D01*
X76292826Y-62872540D01*
X76115296Y-62996847D01*
X76115291Y-62996850D01*
X76110861Y-62999953D01*
X76107037Y-63003776D01*
X76107031Y-63003782D01*
X75953782Y-63157031D01*
X75953776Y-63157037D01*
X75949953Y-63160861D01*
X75946850Y-63165291D01*
X75946847Y-63165296D01*
X75822540Y-63342826D01*
X75822535Y-63342833D01*
X75819432Y-63347266D01*
X75817144Y-63352172D01*
X75817142Y-63352176D01*
X75725550Y-63548594D01*
X75725547Y-63548599D01*
X75723261Y-63553504D01*
X75721862Y-63558724D01*
X75721858Y-63558736D01*
X75665764Y-63768083D01*
X75665762Y-63768094D01*
X75664365Y-63773308D01*
X75663893Y-63778693D01*
X75663893Y-63778698D01*
X75659296Y-63831243D01*
X75644532Y-64000000D01*
X73452230Y-64000000D01*
X73454577Y-62600000D01*
X89394451Y-62600000D01*
X89394798Y-62604631D01*
X89413517Y-62854432D01*
X89414617Y-62869103D01*
X89415647Y-62873616D01*
X89415648Y-62873622D01*
X89471163Y-63116847D01*
X89474666Y-63132195D01*
X89476362Y-63136518D01*
X89476363Y-63136519D01*
X89531510Y-63277031D01*
X89573257Y-63383398D01*
X89708185Y-63617102D01*
X89876439Y-63828085D01*
X89879843Y-63831243D01*
X90061360Y-63999667D01*
X90074259Y-64011635D01*
X90297226Y-64163651D01*
X90540359Y-64280738D01*
X90544787Y-64282103D01*
X90544790Y-64282105D01*
X90669293Y-64320509D01*
X90798228Y-64360280D01*
X91065071Y-64400500D01*
X91330292Y-64400500D01*
X91334929Y-64400500D01*
X91601772Y-64360280D01*
X91859641Y-64280738D01*
X92102775Y-64163651D01*
X92325741Y-64011635D01*
X92523561Y-63828085D01*
X92557920Y-63785000D01*
X95174532Y-63785000D01*
X95175004Y-63790395D01*
X95192501Y-63990395D01*
X95194365Y-64011692D01*
X95195762Y-64016907D01*
X95195764Y-64016916D01*
X95251858Y-64226263D01*
X95251861Y-64226271D01*
X95253261Y-64231496D01*
X95255549Y-64236403D01*
X95255550Y-64236405D01*
X95302942Y-64338037D01*
X95349432Y-64437734D01*
X95479953Y-64624139D01*
X95640861Y-64785047D01*
X95827266Y-64915568D01*
X96033504Y-65011739D01*
X96253308Y-65070635D01*
X96480000Y-65090468D01*
X96706692Y-65070635D01*
X96926496Y-65011739D01*
X97132734Y-64915568D01*
X97319139Y-64785047D01*
X97480047Y-64624139D01*
X97610568Y-64437734D01*
X97706739Y-64231496D01*
X97765635Y-64011692D01*
X97767970Y-63985000D01*
X100074532Y-63985000D01*
X100075004Y-63990395D01*
X100088896Y-64149189D01*
X100094365Y-64211692D01*
X100095762Y-64216907D01*
X100095764Y-64216916D01*
X100151858Y-64426263D01*
X100151861Y-64426271D01*
X100153261Y-64431496D01*
X100249432Y-64637734D01*
X100379953Y-64824139D01*
X100540861Y-64985047D01*
X100727266Y-65115568D01*
X100933504Y-65211739D01*
X100938734Y-65213140D01*
X100938736Y-65213141D01*
X101086959Y-65252857D01*
X101153308Y-65270635D01*
X101380000Y-65290468D01*
X101606692Y-65270635D01*
X101826496Y-65211739D01*
X102032734Y-65115568D01*
X102219139Y-64985047D01*
X102380047Y-64824139D01*
X102510568Y-64637734D01*
X102606739Y-64431496D01*
X102665635Y-64211692D01*
X102685468Y-63985000D01*
X102665635Y-63758308D01*
X102612160Y-63558736D01*
X102608141Y-63543736D01*
X102608140Y-63543734D01*
X102606739Y-63538504D01*
X102510568Y-63332266D01*
X102380047Y-63145861D01*
X102219139Y-62984953D01*
X102088188Y-62893261D01*
X102037173Y-62857540D01*
X102037171Y-62857539D01*
X102032734Y-62854432D01*
X101863572Y-62775550D01*
X101831405Y-62760550D01*
X101831403Y-62760549D01*
X101826496Y-62758261D01*
X101821271Y-62756861D01*
X101821263Y-62756858D01*
X101611916Y-62700764D01*
X101611907Y-62700762D01*
X101606692Y-62699365D01*
X101601304Y-62698893D01*
X101601301Y-62698893D01*
X101385395Y-62680004D01*
X101380000Y-62679532D01*
X101374605Y-62680004D01*
X101158698Y-62698893D01*
X101158693Y-62698893D01*
X101153308Y-62699365D01*
X101148094Y-62700762D01*
X101148083Y-62700764D01*
X100938736Y-62756858D01*
X100938724Y-62756862D01*
X100933504Y-62758261D01*
X100928599Y-62760547D01*
X100928594Y-62760550D01*
X100732176Y-62852142D01*
X100732172Y-62852144D01*
X100727266Y-62854432D01*
X100722833Y-62857535D01*
X100722826Y-62857540D01*
X100545296Y-62981847D01*
X100545291Y-62981850D01*
X100540861Y-62984953D01*
X100537037Y-62988776D01*
X100537031Y-62988782D01*
X100383782Y-63142031D01*
X100383776Y-63142037D01*
X100379953Y-63145861D01*
X100376850Y-63150291D01*
X100376847Y-63150296D01*
X100252540Y-63327826D01*
X100252535Y-63327833D01*
X100249432Y-63332266D01*
X100247144Y-63337172D01*
X100247142Y-63337176D01*
X100155550Y-63533594D01*
X100155547Y-63533599D01*
X100153261Y-63538504D01*
X100151862Y-63543724D01*
X100151858Y-63543736D01*
X100095764Y-63753083D01*
X100095762Y-63753094D01*
X100094365Y-63758308D01*
X100093893Y-63763693D01*
X100093893Y-63763698D01*
X100088260Y-63828085D01*
X100074532Y-63985000D01*
X97767970Y-63985000D01*
X97785468Y-63785000D01*
X97765635Y-63558308D01*
X97742556Y-63472176D01*
X97708141Y-63343736D01*
X97708140Y-63343734D01*
X97706739Y-63338504D01*
X97610568Y-63132266D01*
X97480047Y-62945861D01*
X97319139Y-62784953D01*
X97196906Y-62699365D01*
X97137173Y-62657540D01*
X97137171Y-62657539D01*
X97132734Y-62654432D01*
X96926496Y-62558261D01*
X96921271Y-62556861D01*
X96921263Y-62556858D01*
X96711916Y-62500764D01*
X96711907Y-62500762D01*
X96706692Y-62499365D01*
X96701304Y-62498893D01*
X96701301Y-62498893D01*
X96485395Y-62480004D01*
X96480000Y-62479532D01*
X96474605Y-62480004D01*
X96258698Y-62498893D01*
X96258693Y-62498893D01*
X96253308Y-62499365D01*
X96248094Y-62500762D01*
X96248083Y-62500764D01*
X96038736Y-62556858D01*
X96038724Y-62556862D01*
X96033504Y-62558261D01*
X96028599Y-62560547D01*
X96028594Y-62560550D01*
X95832176Y-62652142D01*
X95832172Y-62652144D01*
X95827266Y-62654432D01*
X95822833Y-62657535D01*
X95822826Y-62657540D01*
X95645296Y-62781847D01*
X95645291Y-62781850D01*
X95640861Y-62784953D01*
X95637037Y-62788776D01*
X95637031Y-62788782D01*
X95483782Y-62942031D01*
X95483776Y-62942037D01*
X95479953Y-62945861D01*
X95476850Y-62950291D01*
X95476847Y-62950296D01*
X95352540Y-63127826D01*
X95352535Y-63127833D01*
X95349432Y-63132266D01*
X95347144Y-63137172D01*
X95347142Y-63137176D01*
X95255550Y-63333594D01*
X95255547Y-63333599D01*
X95253261Y-63338504D01*
X95251862Y-63343724D01*
X95251858Y-63343736D01*
X95195764Y-63553083D01*
X95195762Y-63553094D01*
X95194365Y-63558308D01*
X95193893Y-63563693D01*
X95193893Y-63563698D01*
X95183829Y-63678736D01*
X95174532Y-63785000D01*
X92557920Y-63785000D01*
X92691815Y-63617102D01*
X92826743Y-63383398D01*
X92925334Y-63132195D01*
X92985383Y-62869103D01*
X93005549Y-62600000D01*
X92985383Y-62330897D01*
X92925334Y-62067805D01*
X92826743Y-61816602D01*
X92691815Y-61582898D01*
X92523561Y-61371915D01*
X92390966Y-61248885D01*
X92329146Y-61191524D01*
X92329143Y-61191521D01*
X92325741Y-61188365D01*
X92321912Y-61185754D01*
X92321909Y-61185752D01*
X92207435Y-61107705D01*
X92102775Y-61036349D01*
X92098589Y-61034333D01*
X91863820Y-60921274D01*
X91863814Y-60921271D01*
X91859641Y-60919262D01*
X91855219Y-60917898D01*
X91855209Y-60917894D01*
X91606202Y-60841086D01*
X91606196Y-60841084D01*
X91601772Y-60839720D01*
X91597195Y-60839030D01*
X91597186Y-60839028D01*
X91339514Y-60800191D01*
X91339513Y-60800190D01*
X91334929Y-60799500D01*
X91065071Y-60799500D01*
X91060487Y-60800190D01*
X91060485Y-60800191D01*
X90802813Y-60839028D01*
X90802801Y-60839030D01*
X90798228Y-60839720D01*
X90793806Y-60841083D01*
X90793797Y-60841086D01*
X90544790Y-60917894D01*
X90544775Y-60917899D01*
X90540359Y-60919262D01*
X90536185Y-60921271D01*
X90536180Y-60921274D01*
X90301411Y-61034333D01*
X90301404Y-61034336D01*
X90297226Y-61036349D01*
X90293393Y-61038962D01*
X90293390Y-61038964D01*
X90078090Y-61185752D01*
X90078080Y-61185759D01*
X90074259Y-61188365D01*
X90070863Y-61191516D01*
X90070853Y-61191524D01*
X89879843Y-61368756D01*
X89879839Y-61368759D01*
X89876439Y-61371915D01*
X89873549Y-61375537D01*
X89873546Y-61375542D01*
X89711077Y-61579271D01*
X89708185Y-61582898D01*
X89705866Y-61586913D01*
X89705865Y-61586916D01*
X89575578Y-61812581D01*
X89575575Y-61812586D01*
X89573257Y-61816602D01*
X89571563Y-61820916D01*
X89571561Y-61820922D01*
X89476363Y-62063480D01*
X89474666Y-62067805D01*
X89473633Y-62072326D01*
X89473632Y-62072333D01*
X89415648Y-62326377D01*
X89415646Y-62326385D01*
X89414617Y-62330897D01*
X89414270Y-62335516D01*
X89414270Y-62335522D01*
X89397684Y-62556858D01*
X89394451Y-62600000D01*
X73454577Y-62600000D01*
X73455024Y-62333674D01*
X84400000Y-62333674D01*
X84403450Y-62346549D01*
X84416326Y-62350000D01*
X85933674Y-62350000D01*
X85946549Y-62346549D01*
X85950000Y-62333674D01*
X86450000Y-62333674D01*
X86453450Y-62346549D01*
X86466326Y-62350000D01*
X87983674Y-62350000D01*
X87996549Y-62346549D01*
X88000000Y-62333674D01*
X88000000Y-61255482D01*
X87999646Y-61248885D01*
X87994426Y-61200332D01*
X87990888Y-61185358D01*
X87946452Y-61066222D01*
X87938037Y-61050810D01*
X87862501Y-60949907D01*
X87850092Y-60937498D01*
X87749189Y-60861962D01*
X87733777Y-60853547D01*
X87614641Y-60809111D01*
X87599667Y-60805573D01*
X87551114Y-60800353D01*
X87544518Y-60800000D01*
X86466326Y-60800000D01*
X86453450Y-60803450D01*
X86450000Y-60816326D01*
X86450000Y-62333674D01*
X85950000Y-62333674D01*
X85950000Y-60816326D01*
X85946549Y-60803450D01*
X85933674Y-60800000D01*
X84855482Y-60800000D01*
X84848885Y-60800353D01*
X84800332Y-60805573D01*
X84785358Y-60809111D01*
X84666222Y-60853547D01*
X84650810Y-60861962D01*
X84549907Y-60937498D01*
X84537498Y-60949907D01*
X84461962Y-61050810D01*
X84453547Y-61066222D01*
X84409111Y-61185358D01*
X84405573Y-61200332D01*
X84400353Y-61248885D01*
X84400000Y-61255482D01*
X84400000Y-62333674D01*
X73455024Y-62333674D01*
X73460614Y-59000000D01*
X75644532Y-59000000D01*
X75645004Y-59005395D01*
X75663631Y-59218310D01*
X75664365Y-59226692D01*
X75665762Y-59231907D01*
X75665764Y-59231916D01*
X75721858Y-59441263D01*
X75721861Y-59441271D01*
X75723261Y-59446496D01*
X75819432Y-59652734D01*
X75949953Y-59839139D01*
X76110861Y-60000047D01*
X76297266Y-60130568D01*
X76503504Y-60226739D01*
X76508734Y-60228140D01*
X76508736Y-60228141D01*
X76599355Y-60252422D01*
X76723308Y-60285635D01*
X76950000Y-60305468D01*
X77176692Y-60285635D01*
X77396496Y-60226739D01*
X77456619Y-60198703D01*
X80218217Y-60198703D01*
X80225650Y-60206814D01*
X80283077Y-60247025D01*
X80292427Y-60252423D01*
X80488768Y-60343979D01*
X80498902Y-60347667D01*
X80708162Y-60403739D01*
X80718793Y-60405613D01*
X80934605Y-60424494D01*
X80945395Y-60424494D01*
X81161206Y-60405613D01*
X81171837Y-60403739D01*
X81381097Y-60347667D01*
X81391231Y-60343979D01*
X81587575Y-60252422D01*
X81596920Y-60247026D01*
X81654348Y-60206814D01*
X81661780Y-60198703D01*
X81655867Y-60189421D01*
X80951542Y-59485095D01*
X80939999Y-59478431D01*
X80928457Y-59485095D01*
X80224128Y-60189424D01*
X80218217Y-60198703D01*
X77456619Y-60198703D01*
X77602734Y-60130568D01*
X77789139Y-60000047D01*
X77950047Y-59839139D01*
X78080568Y-59652734D01*
X78176739Y-59446496D01*
X78235635Y-59226692D01*
X78244497Y-59125395D01*
X79635506Y-59125395D01*
X79654386Y-59341206D01*
X79656260Y-59351837D01*
X79712332Y-59561097D01*
X79716020Y-59571231D01*
X79807576Y-59767572D01*
X79812974Y-59776922D01*
X79853184Y-59834348D01*
X79861295Y-59841781D01*
X79870574Y-59835870D01*
X80574903Y-59131541D01*
X80581567Y-59119999D01*
X81298431Y-59119999D01*
X81305095Y-59131541D01*
X82009421Y-59835867D01*
X82018703Y-59841780D01*
X82026814Y-59834348D01*
X82067026Y-59776920D01*
X82072422Y-59767575D01*
X82163979Y-59571231D01*
X82167667Y-59561097D01*
X82223739Y-59351837D01*
X82225613Y-59341206D01*
X82244494Y-59125395D01*
X82244494Y-59114605D01*
X82225613Y-58898793D01*
X82223739Y-58888162D01*
X82167667Y-58678902D01*
X82163979Y-58668768D01*
X82072423Y-58472427D01*
X82067025Y-58463077D01*
X82026814Y-58405650D01*
X82018703Y-58398217D01*
X82009424Y-58404128D01*
X81305095Y-59108456D01*
X81298431Y-59119999D01*
X80581567Y-59119999D01*
X80574903Y-59108456D01*
X79870574Y-58404128D01*
X79861296Y-58398217D01*
X79853183Y-58405651D01*
X79812971Y-58463081D01*
X79807577Y-58472425D01*
X79716020Y-58668768D01*
X79712332Y-58678902D01*
X79656260Y-58888162D01*
X79654386Y-58898793D01*
X79635506Y-59114605D01*
X79635506Y-59125395D01*
X78244497Y-59125395D01*
X78255468Y-59000000D01*
X78235635Y-58773308D01*
X78234235Y-58768083D01*
X78178141Y-58558736D01*
X78178140Y-58558734D01*
X78176739Y-58553504D01*
X78145632Y-58486797D01*
X78134015Y-58434393D01*
X78134015Y-58041296D01*
X80218217Y-58041296D01*
X80224128Y-58050574D01*
X80928457Y-58754903D01*
X80940000Y-58761567D01*
X80951542Y-58754903D01*
X81655870Y-58050574D01*
X81661781Y-58041295D01*
X81654348Y-58033184D01*
X81596922Y-57992974D01*
X81587572Y-57987576D01*
X81391231Y-57896020D01*
X81381097Y-57892332D01*
X81171837Y-57836260D01*
X81161206Y-57834386D01*
X80945395Y-57815506D01*
X80934605Y-57815506D01*
X80718793Y-57834386D01*
X80708162Y-57836260D01*
X80498902Y-57892332D01*
X80488768Y-57896020D01*
X80292425Y-57987577D01*
X80283081Y-57992971D01*
X80225651Y-58033183D01*
X80218217Y-58041296D01*
X78134015Y-58041296D01*
X78134015Y-55511797D01*
X78143454Y-55464344D01*
X78170334Y-55424116D01*
X78594236Y-55000214D01*
X79876588Y-53717860D01*
X79907515Y-53695293D01*
X79943852Y-53683236D01*
X80077913Y-53660866D01*
X80305664Y-53582679D01*
X80517439Y-53468072D01*
X80707463Y-53320171D01*
X80870551Y-53143010D01*
X80886191Y-53119070D01*
X80930982Y-53077837D01*
X80990000Y-53062892D01*
X81049018Y-53077837D01*
X81093808Y-53119070D01*
X81109449Y-53143010D01*
X81272537Y-53320171D01*
X81462561Y-53468072D01*
X81674336Y-53582679D01*
X81902087Y-53660866D01*
X82139601Y-53700500D01*
X82375266Y-53700500D01*
X82380399Y-53700500D01*
X82617913Y-53660866D01*
X82845664Y-53582679D01*
X83057439Y-53468072D01*
X83200344Y-53356844D01*
X83252772Y-53332992D01*
X83310322Y-53335399D01*
X83360575Y-53363548D01*
X83392688Y-53411366D01*
X83401047Y-53433777D01*
X83409462Y-53449189D01*
X83484998Y-53550092D01*
X83497407Y-53562501D01*
X83598310Y-53638037D01*
X83613722Y-53646452D01*
X83732858Y-53690888D01*
X83747832Y-53694426D01*
X83796385Y-53699646D01*
X83802982Y-53700000D01*
X84533674Y-53700000D01*
X84546549Y-53696549D01*
X84550000Y-53683674D01*
X85050000Y-53683674D01*
X85053450Y-53696549D01*
X85066326Y-53700000D01*
X85797018Y-53700000D01*
X85803614Y-53699646D01*
X85852167Y-53694426D01*
X85867141Y-53690888D01*
X85986277Y-53646452D01*
X86001689Y-53638037D01*
X86102592Y-53562501D01*
X86115001Y-53550092D01*
X86190537Y-53449189D01*
X86198952Y-53433777D01*
X86243388Y-53314641D01*
X86246926Y-53299667D01*
X86252146Y-53251114D01*
X86252500Y-53244518D01*
X86252500Y-52466326D01*
X86249049Y-52453450D01*
X86245877Y-52452600D01*
X90727000Y-52452600D01*
X90727211Y-52455150D01*
X90727212Y-52455166D01*
X90741480Y-52627356D01*
X90741481Y-52627364D01*
X90741905Y-52632476D01*
X90743162Y-52637443D01*
X90743164Y-52637450D01*
X90764298Y-52720905D01*
X90801017Y-52865905D01*
X90803077Y-52870601D01*
X90895685Y-53081727D01*
X90895688Y-53081732D01*
X90897745Y-53086422D01*
X90910000Y-53105179D01*
X91026647Y-53283722D01*
X91026650Y-53283726D01*
X91029449Y-53288010D01*
X91032914Y-53291774D01*
X91032918Y-53291779D01*
X91143006Y-53411366D01*
X91192537Y-53465171D01*
X91382561Y-53613072D01*
X91594336Y-53727679D01*
X91822087Y-53805866D01*
X92059601Y-53845500D01*
X92295266Y-53845500D01*
X92300399Y-53845500D01*
X92537913Y-53805866D01*
X92765664Y-53727679D01*
X92977439Y-53613072D01*
X93167463Y-53465171D01*
X93330551Y-53288010D01*
X93346191Y-53264070D01*
X93390982Y-53222837D01*
X93450000Y-53207892D01*
X93509018Y-53222837D01*
X93553808Y-53264070D01*
X93569449Y-53288010D01*
X93572919Y-53291779D01*
X93572924Y-53291785D01*
X93595581Y-53316397D01*
X93732537Y-53465171D01*
X93922561Y-53613072D01*
X94134336Y-53727679D01*
X94362087Y-53805866D01*
X94599601Y-53845500D01*
X94835266Y-53845500D01*
X94840399Y-53845500D01*
X95077913Y-53805866D01*
X95305664Y-53727679D01*
X95517439Y-53613072D01*
X95660344Y-53501844D01*
X95712772Y-53477992D01*
X95770322Y-53480399D01*
X95820575Y-53508548D01*
X95852688Y-53556366D01*
X95861047Y-53578777D01*
X95869462Y-53594189D01*
X95944998Y-53695092D01*
X95957407Y-53707501D01*
X96058310Y-53783037D01*
X96073722Y-53791452D01*
X96192858Y-53835888D01*
X96207832Y-53839426D01*
X96256385Y-53844646D01*
X96262982Y-53845000D01*
X96993674Y-53845000D01*
X97006549Y-53841549D01*
X97010000Y-53828674D01*
X97010000Y-50861326D01*
X97006549Y-50848450D01*
X96993674Y-50845000D01*
X96262982Y-50845000D01*
X96256385Y-50845353D01*
X96207832Y-50850573D01*
X96192858Y-50854111D01*
X96073722Y-50898547D01*
X96058310Y-50906962D01*
X95957407Y-50982498D01*
X95944998Y-50994907D01*
X95869462Y-51095810D01*
X95861045Y-51111224D01*
X95852687Y-51133635D01*
X95820574Y-51181451D01*
X95770321Y-51209600D01*
X95712772Y-51212007D01*
X95660344Y-51188154D01*
X95521485Y-51080077D01*
X95521484Y-51080076D01*
X95517439Y-51076928D01*
X95342948Y-50982498D01*
X95339953Y-50980877D01*
X95297314Y-50942829D01*
X95276266Y-50889699D01*
X95281280Y-50832773D01*
X95311286Y-50784145D01*
X95646586Y-50448846D01*
X95686812Y-50421969D01*
X95734265Y-50412530D01*
X98049320Y-50412530D01*
X98111320Y-50429143D01*
X98156707Y-50474530D01*
X98173320Y-50536530D01*
X98173320Y-50721000D01*
X98156707Y-50783000D01*
X98111320Y-50828387D01*
X98049320Y-50845000D01*
X97526326Y-50845000D01*
X97513450Y-50848450D01*
X97510000Y-50861326D01*
X97510000Y-53828674D01*
X97513450Y-53841549D01*
X97526326Y-53845000D01*
X98049320Y-53845000D01*
X98111320Y-53861613D01*
X98156707Y-53907000D01*
X98173320Y-53969000D01*
X98173320Y-55365868D01*
X98163881Y-55413321D01*
X98137001Y-55453549D01*
X96046687Y-57543861D01*
X96011412Y-57568562D01*
X95832172Y-57652144D01*
X95832169Y-57652145D01*
X95827266Y-57654432D01*
X95822833Y-57657535D01*
X95822826Y-57657540D01*
X95645296Y-57781847D01*
X95645291Y-57781850D01*
X95640861Y-57784953D01*
X95637037Y-57788776D01*
X95637031Y-57788782D01*
X95483782Y-57942031D01*
X95483776Y-57942037D01*
X95479953Y-57945861D01*
X95476850Y-57950291D01*
X95476847Y-57950296D01*
X95352540Y-58127826D01*
X95352535Y-58127833D01*
X95349432Y-58132266D01*
X95347144Y-58137172D01*
X95347142Y-58137176D01*
X95255550Y-58333594D01*
X95255547Y-58333599D01*
X95253261Y-58338504D01*
X95251862Y-58343724D01*
X95251858Y-58343736D01*
X95195764Y-58553083D01*
X95195762Y-58553094D01*
X95194365Y-58558308D01*
X95174532Y-58785000D01*
X95175004Y-58790395D01*
X95193039Y-58996542D01*
X95194365Y-59011692D01*
X95195762Y-59016907D01*
X95195764Y-59016916D01*
X95251858Y-59226263D01*
X95251861Y-59226271D01*
X95253261Y-59231496D01*
X95349432Y-59437734D01*
X95479953Y-59624139D01*
X95640861Y-59785047D01*
X95827266Y-59915568D01*
X96033504Y-60011739D01*
X96253308Y-60070635D01*
X96480000Y-60090468D01*
X96706692Y-60070635D01*
X96732563Y-60063703D01*
X100658217Y-60063703D01*
X100665650Y-60071814D01*
X100723077Y-60112025D01*
X100732427Y-60117423D01*
X100928768Y-60208979D01*
X100938902Y-60212667D01*
X101148162Y-60268739D01*
X101158793Y-60270613D01*
X101374605Y-60289494D01*
X101385395Y-60289494D01*
X101601206Y-60270613D01*
X101611837Y-60268739D01*
X101821097Y-60212667D01*
X101831231Y-60208979D01*
X102027575Y-60117422D01*
X102036920Y-60112026D01*
X102094348Y-60071814D01*
X102101780Y-60063703D01*
X102095867Y-60054421D01*
X101391542Y-59350095D01*
X101380000Y-59343431D01*
X101368457Y-59350095D01*
X100664128Y-60054424D01*
X100658217Y-60063703D01*
X96732563Y-60063703D01*
X96926496Y-60011739D01*
X97132734Y-59915568D01*
X97319139Y-59785047D01*
X97480047Y-59624139D01*
X97610568Y-59437734D01*
X97615995Y-59426097D01*
X97696437Y-59253587D01*
X97721135Y-59218313D01*
X97949053Y-58990395D01*
X100075506Y-58990395D01*
X100094386Y-59206206D01*
X100096260Y-59216837D01*
X100152332Y-59426097D01*
X100156020Y-59436231D01*
X100247576Y-59632572D01*
X100252974Y-59641922D01*
X100293184Y-59699348D01*
X100301295Y-59706781D01*
X100310574Y-59700870D01*
X101014903Y-58996542D01*
X101021567Y-58984999D01*
X101738431Y-58984999D01*
X101745095Y-58996542D01*
X102449421Y-59700867D01*
X102458703Y-59706780D01*
X102466814Y-59699348D01*
X102507026Y-59641920D01*
X102512422Y-59632575D01*
X102603979Y-59436231D01*
X102607667Y-59426097D01*
X102663739Y-59216837D01*
X102665613Y-59206206D01*
X102684494Y-58990395D01*
X102684494Y-58979605D01*
X102665613Y-58763793D01*
X102663739Y-58753162D01*
X102607667Y-58543902D01*
X102603979Y-58533768D01*
X102512423Y-58337427D01*
X102507025Y-58328077D01*
X102466814Y-58270650D01*
X102458703Y-58263217D01*
X102449424Y-58269128D01*
X101745095Y-58973457D01*
X101738431Y-58984999D01*
X101021567Y-58984999D01*
X101014903Y-58973457D01*
X100310574Y-58269128D01*
X100301296Y-58263217D01*
X100293183Y-58270651D01*
X100252971Y-58328081D01*
X100247577Y-58337425D01*
X100156020Y-58533768D01*
X100152332Y-58543902D01*
X100096260Y-58753162D01*
X100094386Y-58763793D01*
X100075506Y-58979605D01*
X100075506Y-58990395D01*
X97949053Y-58990395D01*
X99033152Y-57906296D01*
X100658217Y-57906296D01*
X100664128Y-57915574D01*
X101368457Y-58619903D01*
X101379999Y-58626567D01*
X101391542Y-58619903D01*
X102095870Y-57915574D01*
X102101781Y-57906295D01*
X102094348Y-57898184D01*
X102036922Y-57857974D01*
X102027572Y-57852576D01*
X101831231Y-57761020D01*
X101821097Y-57757332D01*
X101611837Y-57701260D01*
X101601206Y-57699386D01*
X101385395Y-57680506D01*
X101374605Y-57680506D01*
X101158793Y-57699386D01*
X101148162Y-57701260D01*
X100938902Y-57757332D01*
X100928768Y-57761020D01*
X100732425Y-57852577D01*
X100723081Y-57857971D01*
X100665651Y-57898183D01*
X100658217Y-57906296D01*
X99033152Y-57906296D01*
X100173212Y-56766236D01*
X100177288Y-56762343D01*
X100236081Y-56708748D01*
X100283987Y-56645308D01*
X100287542Y-56640822D01*
X100334660Y-56584080D01*
X100338329Y-56579662D01*
X100347542Y-56563120D01*
X100356912Y-56548740D01*
X100368317Y-56533639D01*
X100403767Y-56462444D01*
X100406417Y-56457419D01*
X100445105Y-56387962D01*
X100451120Y-56370013D01*
X100457683Y-56354167D01*
X100466126Y-56337213D01*
X100487887Y-56260724D01*
X100489561Y-56255318D01*
X100514838Y-56179907D01*
X100517453Y-56161157D01*
X100520997Y-56144359D01*
X100526176Y-56126159D01*
X100533513Y-56046971D01*
X100534163Y-56041357D01*
X100545153Y-55962581D01*
X100541482Y-55883178D01*
X100541350Y-55877451D01*
X100541350Y-49770312D01*
X100550789Y-49722859D01*
X100577669Y-49682631D01*
X100704783Y-49555517D01*
X101159392Y-49100906D01*
X101163468Y-49097013D01*
X101222261Y-49043418D01*
X101270167Y-48979978D01*
X101273722Y-48975492D01*
X101320840Y-48918750D01*
X101324509Y-48914332D01*
X101333722Y-48897790D01*
X101343092Y-48883410D01*
X101354497Y-48868309D01*
X101389947Y-48797114D01*
X101392597Y-48792089D01*
X101401147Y-48776739D01*
X101431285Y-48722632D01*
X101437300Y-48704683D01*
X101443863Y-48688837D01*
X101452306Y-48671883D01*
X101474067Y-48595394D01*
X101475741Y-48589988D01*
X101501018Y-48514577D01*
X101503633Y-48495827D01*
X101507177Y-48479029D01*
X101512356Y-48460829D01*
X101519693Y-48381641D01*
X101520343Y-48376027D01*
X101531333Y-48297251D01*
X101527662Y-48217848D01*
X101527530Y-48212121D01*
X101527530Y-36218742D01*
X101527662Y-36213015D01*
X101531069Y-36139326D01*
X101531334Y-36133599D01*
X101520348Y-36054850D01*
X101519689Y-36049162D01*
X101512885Y-35975733D01*
X101512356Y-35970021D01*
X101509888Y-35961348D01*
X101507177Y-35951818D01*
X101503633Y-35935022D01*
X101501018Y-35916273D01*
X101475753Y-35840897D01*
X101474059Y-35835424D01*
X101453873Y-35764474D01*
X101453872Y-35764472D01*
X101452306Y-35758967D01*
X101443870Y-35742026D01*
X101437297Y-35726156D01*
X101431285Y-35708218D01*
X101392597Y-35638759D01*
X101389930Y-35633699D01*
X101357052Y-35567672D01*
X101357051Y-35567671D01*
X101354497Y-35562541D01*
X101343092Y-35547438D01*
X101333720Y-35533056D01*
X101324509Y-35516518D01*
X101273722Y-35455358D01*
X101270169Y-35450872D01*
X101225722Y-35392014D01*
X101225717Y-35392008D01*
X101222261Y-35387432D01*
X101218024Y-35383569D01*
X101218020Y-35383565D01*
X101163514Y-35333877D01*
X101159371Y-35329921D01*
X99236818Y-33407368D01*
X99209938Y-33367140D01*
X99200499Y-33319687D01*
X99200499Y-31900439D01*
X99200499Y-31897128D01*
X99194091Y-31837517D01*
X99143796Y-31702669D01*
X99057546Y-31587454D01*
X99035932Y-31571274D01*
X98949431Y-31506519D01*
X98949430Y-31506518D01*
X98942331Y-31501204D01*
X98871965Y-31474959D01*
X98814752Y-31453620D01*
X98814750Y-31453619D01*
X98807483Y-31450909D01*
X98799770Y-31450079D01*
X98799767Y-31450079D01*
X98751180Y-31444855D01*
X98751169Y-31444854D01*
X98747873Y-31444500D01*
X98744550Y-31444500D01*
X96055439Y-31444500D01*
X96055420Y-31444500D01*
X96052128Y-31444501D01*
X96048850Y-31444853D01*
X96048838Y-31444854D01*
X96000231Y-31450079D01*
X96000225Y-31450080D01*
X95992517Y-31450909D01*
X95985252Y-31453618D01*
X95985246Y-31453620D01*
X95865980Y-31498104D01*
X95865978Y-31498104D01*
X95857669Y-31501204D01*
X95850572Y-31506516D01*
X95850568Y-31506519D01*
X95749550Y-31582141D01*
X95749546Y-31582144D01*
X95742454Y-31587454D01*
X95737144Y-31594546D01*
X95737141Y-31594550D01*
X95661519Y-31695568D01*
X95661516Y-31695572D01*
X95656204Y-31702669D01*
X95653104Y-31710978D01*
X95653104Y-31710980D01*
X95608620Y-31830247D01*
X95608619Y-31830250D01*
X95605909Y-31837517D01*
X95605079Y-31845227D01*
X95605079Y-31845232D01*
X95599855Y-31893819D01*
X95599854Y-31893831D01*
X95599500Y-31897127D01*
X95599500Y-31900449D01*
X95599500Y-33319687D01*
X95590061Y-33367140D01*
X95563181Y-33407368D01*
X94334140Y-34636408D01*
X94329999Y-34640363D01*
X94275484Y-34690060D01*
X94275479Y-34690064D01*
X94271254Y-34693917D01*
X94267806Y-34698482D01*
X94267803Y-34698486D01*
X94223344Y-34757358D01*
X94219790Y-34761844D01*
X94172670Y-34818589D01*
X94172663Y-34818597D01*
X94169006Y-34823003D01*
X94166216Y-34828011D01*
X94166213Y-34828016D01*
X94159794Y-34839540D01*
X94150426Y-34853917D01*
X94142474Y-34864448D01*
X94142469Y-34864454D01*
X94139018Y-34869026D01*
X94136466Y-34874150D01*
X94136464Y-34874154D01*
X94103591Y-34940170D01*
X94100922Y-34945233D01*
X94065020Y-35009691D01*
X94065013Y-35009704D01*
X94062230Y-35014703D01*
X94060409Y-35020132D01*
X94060408Y-35020137D01*
X94056212Y-35032655D01*
X94049647Y-35048503D01*
X94043765Y-35060317D01*
X94043762Y-35060323D01*
X94041209Y-35065452D01*
X94039643Y-35070955D01*
X94039641Y-35070961D01*
X94019456Y-35141904D01*
X94017762Y-35147372D01*
X93994321Y-35217312D01*
X93994317Y-35217325D01*
X93992497Y-35222758D01*
X93991705Y-35228428D01*
X93991702Y-35228445D01*
X93989880Y-35241508D01*
X93986338Y-35258301D01*
X93981159Y-35276506D01*
X93980630Y-35282208D01*
X93980629Y-35282217D01*
X93973823Y-35355669D01*
X93973163Y-35361357D01*
X93962974Y-35434402D01*
X93962973Y-35434407D01*
X93962182Y-35440084D01*
X93963397Y-35466357D01*
X93965853Y-35519487D01*
X93965985Y-35525214D01*
X93965985Y-40999782D01*
X93960830Y-41035164D01*
X93945795Y-41067599D01*
X93914076Y-41116151D01*
X93912020Y-41120835D01*
X93912015Y-41120847D01*
X93844835Y-41274003D01*
X93820843Y-41328700D01*
X93819585Y-41333665D01*
X93819584Y-41333670D01*
X93765125Y-41548720D01*
X93765123Y-41548729D01*
X93763866Y-41553695D01*
X93763442Y-41558802D01*
X93763441Y-41558813D01*
X93752284Y-41693470D01*
X93744700Y-41785000D01*
X93745124Y-41790117D01*
X93763441Y-42011186D01*
X93763442Y-42011195D01*
X93763866Y-42016305D01*
X93765123Y-42021272D01*
X93765125Y-42021279D01*
X93819584Y-42236329D01*
X93820843Y-42241300D01*
X93836036Y-42275937D01*
X93912016Y-42449154D01*
X93912019Y-42449159D01*
X93914076Y-42453849D01*
X93977548Y-42551000D01*
X94038219Y-42643865D01*
X94038222Y-42643869D01*
X94041021Y-42648153D01*
X94044491Y-42651922D01*
X94135801Y-42751112D01*
X94164574Y-42803865D01*
X94165167Y-42863951D01*
X94137440Y-42917261D01*
X94087906Y-42951276D01*
X94015982Y-42978102D01*
X94015973Y-42978106D01*
X94007669Y-42981204D01*
X94000572Y-42986516D01*
X94000568Y-42986519D01*
X93899550Y-43062141D01*
X93899546Y-43062144D01*
X93892454Y-43067454D01*
X93887144Y-43074546D01*
X93887141Y-43074550D01*
X93811519Y-43175568D01*
X93811516Y-43175572D01*
X93806204Y-43182669D01*
X93803104Y-43190978D01*
X93803104Y-43190980D01*
X93758620Y-43310247D01*
X93758619Y-43310250D01*
X93755909Y-43317517D01*
X93755079Y-43325227D01*
X93755079Y-43325232D01*
X93749855Y-43373819D01*
X93749854Y-43373831D01*
X93749500Y-43377127D01*
X93749500Y-43380448D01*
X93749500Y-43380449D01*
X93749500Y-45269560D01*
X93749500Y-45269578D01*
X93749501Y-45272872D01*
X93749853Y-45276150D01*
X93749854Y-45276161D01*
X93755079Y-45324768D01*
X93755080Y-45324773D01*
X93755909Y-45332483D01*
X93758619Y-45339749D01*
X93758620Y-45339753D01*
X93792217Y-45429831D01*
X93806204Y-45467331D01*
X93892454Y-45582546D01*
X94007669Y-45668796D01*
X94142517Y-45719091D01*
X94202127Y-45725500D01*
X94824687Y-45725499D01*
X94872140Y-45734938D01*
X94912368Y-45761818D01*
X96983369Y-47832819D01*
X97013619Y-47882182D01*
X97018161Y-47939898D01*
X96996006Y-47993385D01*
X96951983Y-48030985D01*
X96895688Y-48044500D01*
X95222682Y-48044500D01*
X95216955Y-48044368D01*
X95143280Y-48040961D01*
X95143271Y-48040961D01*
X95137552Y-48040697D01*
X95131875Y-48041488D01*
X95131870Y-48041489D01*
X95058825Y-48051678D01*
X95053137Y-48052338D01*
X94979685Y-48059144D01*
X94979676Y-48059145D01*
X94973974Y-48059674D01*
X94968460Y-48061242D01*
X94968458Y-48061243D01*
X94955770Y-48064853D01*
X94938976Y-48068395D01*
X94925913Y-48070217D01*
X94925896Y-48070220D01*
X94920226Y-48071012D01*
X94914793Y-48072832D01*
X94914780Y-48072836D01*
X94844840Y-48096277D01*
X94839372Y-48097971D01*
X94768429Y-48118156D01*
X94768423Y-48118158D01*
X94762920Y-48119724D01*
X94757791Y-48122277D01*
X94757785Y-48122280D01*
X94745971Y-48128162D01*
X94730123Y-48134727D01*
X94717605Y-48138923D01*
X94717600Y-48138924D01*
X94712171Y-48140745D01*
X94707172Y-48143528D01*
X94707159Y-48143535D01*
X94642701Y-48179437D01*
X94637638Y-48182106D01*
X94571622Y-48214979D01*
X94571618Y-48214981D01*
X94566494Y-48217533D01*
X94561922Y-48220984D01*
X94561916Y-48220989D01*
X94551385Y-48228941D01*
X94537008Y-48238309D01*
X94525484Y-48244728D01*
X94525479Y-48244731D01*
X94520471Y-48247521D01*
X94516065Y-48251178D01*
X94516057Y-48251185D01*
X94459312Y-48298305D01*
X94454826Y-48301859D01*
X94395954Y-48346318D01*
X94395950Y-48346321D01*
X94391385Y-48349769D01*
X94387532Y-48353994D01*
X94387528Y-48353999D01*
X94337831Y-48408514D01*
X94333876Y-48412655D01*
X91898561Y-50847970D01*
X91867637Y-50870537D01*
X91831302Y-50882596D01*
X91827150Y-50883289D01*
X91822087Y-50884134D01*
X91817237Y-50885798D01*
X91817229Y-50885801D01*
X91599184Y-50960656D01*
X91599176Y-50960659D01*
X91594336Y-50962321D01*
X91589840Y-50964753D01*
X91589831Y-50964758D01*
X91387069Y-51074488D01*
X91387065Y-51074490D01*
X91382561Y-51076928D01*
X91378521Y-51080072D01*
X91378514Y-51080077D01*
X91196584Y-51221678D01*
X91196576Y-51221685D01*
X91192537Y-51224829D01*
X91189067Y-51228597D01*
X91189063Y-51228602D01*
X91032918Y-51398220D01*
X91032909Y-51398230D01*
X91029449Y-51401990D01*
X91026654Y-51406267D01*
X91026647Y-51406277D01*
X90900547Y-51599289D01*
X90897745Y-51603578D01*
X90895690Y-51608262D01*
X90895685Y-51608272D01*
X90803077Y-51819398D01*
X90801017Y-51824095D01*
X90799759Y-51829060D01*
X90799758Y-51829065D01*
X90743164Y-52052549D01*
X90743162Y-52052558D01*
X90741905Y-52057524D01*
X90741481Y-52062633D01*
X90741480Y-52062643D01*
X90727212Y-52234833D01*
X90727211Y-52234850D01*
X90727000Y-52237400D01*
X90727000Y-52452600D01*
X86245877Y-52452600D01*
X86236174Y-52450000D01*
X85066326Y-52450000D01*
X85053450Y-52453450D01*
X85050000Y-52466326D01*
X85050000Y-53683674D01*
X84550000Y-53683674D01*
X84550000Y-51933674D01*
X85050000Y-51933674D01*
X85053450Y-51946549D01*
X85066326Y-51950000D01*
X86236174Y-51950000D01*
X86249049Y-51946549D01*
X86252500Y-51933674D01*
X86252500Y-51155482D01*
X86252146Y-51148885D01*
X86246926Y-51100332D01*
X86243388Y-51085358D01*
X86198952Y-50966222D01*
X86190537Y-50950810D01*
X86115001Y-50849907D01*
X86102592Y-50837498D01*
X86001689Y-50761962D01*
X85986277Y-50753547D01*
X85867141Y-50709111D01*
X85852167Y-50705573D01*
X85803614Y-50700353D01*
X85797018Y-50700000D01*
X85066326Y-50700000D01*
X85053450Y-50703450D01*
X85050000Y-50716326D01*
X85050000Y-51933674D01*
X84550000Y-51933674D01*
X84550000Y-50716326D01*
X84546549Y-50703450D01*
X84533674Y-50700000D01*
X83802982Y-50700000D01*
X83796385Y-50700353D01*
X83747832Y-50705573D01*
X83732858Y-50709111D01*
X83613722Y-50753547D01*
X83598310Y-50761962D01*
X83497407Y-50837498D01*
X83484998Y-50849907D01*
X83409462Y-50950810D01*
X83401045Y-50966224D01*
X83392687Y-50988635D01*
X83360574Y-51036451D01*
X83310321Y-51064600D01*
X83252772Y-51067007D01*
X83200344Y-51043154D01*
X83061485Y-50935077D01*
X83061484Y-50935076D01*
X83057439Y-50931928D01*
X82954202Y-50876059D01*
X82850168Y-50819758D01*
X82850163Y-50819756D01*
X82845664Y-50817321D01*
X82840818Y-50815657D01*
X82840815Y-50815656D01*
X82622766Y-50740800D01*
X82622765Y-50740799D01*
X82617913Y-50739134D01*
X82612863Y-50738291D01*
X82612854Y-50738289D01*
X82385461Y-50700344D01*
X82385452Y-50700343D01*
X82380399Y-50699500D01*
X82139601Y-50699500D01*
X82134548Y-50700343D01*
X82134538Y-50700344D01*
X81907145Y-50738289D01*
X81907133Y-50738291D01*
X81902087Y-50739134D01*
X81897237Y-50740798D01*
X81897233Y-50740800D01*
X81679184Y-50815656D01*
X81679176Y-50815659D01*
X81674336Y-50817321D01*
X81669840Y-50819753D01*
X81669831Y-50819758D01*
X81467069Y-50929488D01*
X81467065Y-50929490D01*
X81462561Y-50931928D01*
X81458521Y-50935072D01*
X81458514Y-50935077D01*
X81276584Y-51076678D01*
X81276576Y-51076685D01*
X81272537Y-51079829D01*
X81269067Y-51083597D01*
X81269063Y-51083602D01*
X81119245Y-51246349D01*
X81070211Y-51278966D01*
X81011660Y-51285283D01*
X80956798Y-51263876D01*
X80917999Y-51219572D01*
X80904015Y-51162366D01*
X80904015Y-50469767D01*
X80913454Y-50422314D01*
X80940334Y-50382086D01*
X80970709Y-50351709D01*
X81332362Y-49990056D01*
X81336438Y-49986163D01*
X81395231Y-49932568D01*
X81443137Y-49869128D01*
X81446692Y-49864642D01*
X81493810Y-49807900D01*
X81497479Y-49803482D01*
X81506692Y-49786940D01*
X81516062Y-49772560D01*
X81527467Y-49757459D01*
X81562917Y-49686264D01*
X81565567Y-49681239D01*
X81582810Y-49650282D01*
X81604255Y-49611782D01*
X81610270Y-49593833D01*
X81616833Y-49577987D01*
X81625276Y-49561033D01*
X81647037Y-49484544D01*
X81648711Y-49479138D01*
X81673988Y-49403727D01*
X81676603Y-49384976D01*
X81680145Y-49368184D01*
X81685326Y-49349979D01*
X81692659Y-49270833D01*
X81693319Y-49265145D01*
X81693899Y-49260986D01*
X81704304Y-49186401D01*
X81700631Y-49106984D01*
X81700500Y-49101258D01*
X81700500Y-45799500D01*
X81717113Y-45737500D01*
X81762500Y-45692113D01*
X81824500Y-45675500D01*
X82167579Y-45675499D01*
X82309687Y-45675499D01*
X82357140Y-45684938D01*
X82397368Y-45711818D01*
X84668860Y-47983310D01*
X84693561Y-48018586D01*
X84777141Y-48197823D01*
X84777145Y-48197831D01*
X84779432Y-48202734D01*
X84909953Y-48389139D01*
X85070861Y-48550047D01*
X85257266Y-48680568D01*
X85463504Y-48776739D01*
X85683308Y-48835635D01*
X85910000Y-48855468D01*
X86136692Y-48835635D01*
X86356496Y-48776739D01*
X86562734Y-48680568D01*
X86749139Y-48550047D01*
X86910047Y-48389139D01*
X87040568Y-48202734D01*
X87136739Y-47996496D01*
X87195635Y-47776692D01*
X87215468Y-47550000D01*
X87215031Y-47545000D01*
X89734532Y-47545000D01*
X89754365Y-47771692D01*
X89755762Y-47776907D01*
X89755764Y-47776916D01*
X89811858Y-47986263D01*
X89811861Y-47986271D01*
X89813261Y-47991496D01*
X89815549Y-47996403D01*
X89815550Y-47996405D01*
X89862545Y-48097185D01*
X89909432Y-48197734D01*
X90039953Y-48384139D01*
X90200861Y-48545047D01*
X90387266Y-48675568D01*
X90593504Y-48771739D01*
X90598734Y-48773140D01*
X90598736Y-48773141D01*
X90678774Y-48794587D01*
X90813308Y-48830635D01*
X91040000Y-48850468D01*
X91266692Y-48830635D01*
X91486496Y-48771739D01*
X91692734Y-48675568D01*
X91879139Y-48545047D01*
X92040047Y-48384139D01*
X92170568Y-48197734D01*
X92266739Y-47991496D01*
X92325635Y-47771692D01*
X92345468Y-47545000D01*
X92325635Y-47318308D01*
X92266739Y-47098504D01*
X92170568Y-46892266D01*
X92040047Y-46705861D01*
X91879139Y-46544953D01*
X91692734Y-46414432D01*
X91499494Y-46324322D01*
X91491405Y-46320550D01*
X91491403Y-46320549D01*
X91486496Y-46318261D01*
X91481271Y-46316861D01*
X91481263Y-46316858D01*
X91271916Y-46260764D01*
X91271907Y-46260762D01*
X91266692Y-46259365D01*
X91261304Y-46258893D01*
X91261301Y-46258893D01*
X91045395Y-46240004D01*
X91040000Y-46239532D01*
X91034605Y-46240004D01*
X90818698Y-46258893D01*
X90818693Y-46258893D01*
X90813308Y-46259365D01*
X90808094Y-46260762D01*
X90808083Y-46260764D01*
X90598736Y-46316858D01*
X90598724Y-46316862D01*
X90593504Y-46318261D01*
X90588599Y-46320547D01*
X90588594Y-46320550D01*
X90392176Y-46412142D01*
X90392172Y-46412144D01*
X90387266Y-46414432D01*
X90382833Y-46417535D01*
X90382826Y-46417540D01*
X90205296Y-46541847D01*
X90205291Y-46541850D01*
X90200861Y-46544953D01*
X90197037Y-46548776D01*
X90197031Y-46548782D01*
X90043782Y-46702031D01*
X90043776Y-46702037D01*
X90039953Y-46705861D01*
X90036850Y-46710291D01*
X90036847Y-46710296D01*
X89912540Y-46887826D01*
X89912535Y-46887833D01*
X89909432Y-46892266D01*
X89907144Y-46897172D01*
X89907142Y-46897176D01*
X89815550Y-47093594D01*
X89815547Y-47093599D01*
X89813261Y-47098504D01*
X89811862Y-47103724D01*
X89811858Y-47103736D01*
X89755764Y-47313083D01*
X89755762Y-47313094D01*
X89754365Y-47318308D01*
X89734532Y-47545000D01*
X87215031Y-47545000D01*
X87195635Y-47323308D01*
X87136739Y-47103504D01*
X87040568Y-46897266D01*
X86910047Y-46710861D01*
X86749139Y-46549953D01*
X86562734Y-46419432D01*
X86557831Y-46417145D01*
X86557823Y-46417141D01*
X86378586Y-46333561D01*
X86343310Y-46308860D01*
X83736818Y-43702368D01*
X83709938Y-43662140D01*
X83700499Y-43614687D01*
X83700499Y-43330439D01*
X83700499Y-43327128D01*
X83694091Y-43267517D01*
X83643796Y-43132669D01*
X83557546Y-43017454D01*
X83442331Y-42931204D01*
X83403083Y-42916565D01*
X83362094Y-42901277D01*
X83312559Y-42867261D01*
X83284832Y-42813951D01*
X83285425Y-42753865D01*
X83314196Y-42701114D01*
X83408979Y-42598153D01*
X83535924Y-42403849D01*
X83629157Y-42191300D01*
X83686134Y-41966305D01*
X83705300Y-41735000D01*
X83686134Y-41503695D01*
X83629157Y-41278700D01*
X83535924Y-41066151D01*
X83504204Y-41017599D01*
X83489170Y-40985164D01*
X83484015Y-40949782D01*
X83484015Y-36141797D01*
X83493454Y-36094344D01*
X83520334Y-36054116D01*
X84487631Y-35086818D01*
X84527859Y-35059938D01*
X84575312Y-35050499D01*
X85994561Y-35050499D01*
X85997872Y-35050499D01*
X86057483Y-35044091D01*
X86192331Y-34993796D01*
X86307546Y-34907546D01*
X86393796Y-34792331D01*
X86444091Y-34657483D01*
X86450500Y-34597873D01*
X86450499Y-33245000D01*
X90594451Y-33245000D01*
X90594798Y-33249631D01*
X90606618Y-33407368D01*
X90614617Y-33514103D01*
X90615647Y-33518616D01*
X90615648Y-33518622D01*
X90673632Y-33772666D01*
X90674666Y-33777195D01*
X90773257Y-34028398D01*
X90908185Y-34262102D01*
X91076439Y-34473085D01*
X91274259Y-34656635D01*
X91497226Y-34808651D01*
X91740359Y-34925738D01*
X91744787Y-34927103D01*
X91744790Y-34927105D01*
X91803560Y-34945233D01*
X91998228Y-35005280D01*
X92265071Y-35045500D01*
X92530292Y-35045500D01*
X92534929Y-35045500D01*
X92801772Y-35005280D01*
X93059641Y-34925738D01*
X93302775Y-34808651D01*
X93525741Y-34656635D01*
X93723561Y-34473085D01*
X93891815Y-34262102D01*
X94026743Y-34028398D01*
X94125334Y-33777195D01*
X94185383Y-33514103D01*
X94205549Y-33245000D01*
X94185383Y-32975897D01*
X94125334Y-32712805D01*
X94026743Y-32461602D01*
X93891815Y-32227898D01*
X93723561Y-32016915D01*
X93599849Y-31902127D01*
X93529146Y-31836524D01*
X93529143Y-31836521D01*
X93525741Y-31833365D01*
X93521912Y-31830754D01*
X93521909Y-31830752D01*
X93353569Y-31715980D01*
X93302775Y-31681349D01*
X93298589Y-31679333D01*
X93063820Y-31566274D01*
X93063814Y-31566271D01*
X93059641Y-31564262D01*
X93055219Y-31562898D01*
X93055209Y-31562894D01*
X92806202Y-31486086D01*
X92806196Y-31486084D01*
X92801772Y-31484720D01*
X92797195Y-31484030D01*
X92797186Y-31484028D01*
X92539514Y-31445191D01*
X92539513Y-31445190D01*
X92534929Y-31444500D01*
X92265071Y-31444500D01*
X92260487Y-31445190D01*
X92260485Y-31445191D01*
X92002813Y-31484028D01*
X92002801Y-31484030D01*
X91998228Y-31484720D01*
X91993806Y-31486083D01*
X91993797Y-31486086D01*
X91744790Y-31562894D01*
X91744775Y-31562899D01*
X91740359Y-31564262D01*
X91736185Y-31566271D01*
X91736180Y-31566274D01*
X91501411Y-31679333D01*
X91501404Y-31679336D01*
X91497226Y-31681349D01*
X91493393Y-31683962D01*
X91493390Y-31683964D01*
X91278090Y-31830752D01*
X91278080Y-31830759D01*
X91274259Y-31833365D01*
X91270863Y-31836516D01*
X91270853Y-31836524D01*
X91079843Y-32013756D01*
X91079839Y-32013759D01*
X91076439Y-32016915D01*
X91073549Y-32020537D01*
X91073546Y-32020542D01*
X91069559Y-32025542D01*
X90908185Y-32227898D01*
X90905866Y-32231913D01*
X90905865Y-32231916D01*
X90775578Y-32457581D01*
X90775575Y-32457586D01*
X90773257Y-32461602D01*
X90771563Y-32465916D01*
X90771561Y-32465922D01*
X90769599Y-32470922D01*
X90674666Y-32712805D01*
X90673633Y-32717326D01*
X90673632Y-32717333D01*
X90615648Y-32971377D01*
X90615646Y-32971385D01*
X90614617Y-32975897D01*
X90614270Y-32980516D01*
X90614270Y-32980522D01*
X90594798Y-33240369D01*
X90594451Y-33245000D01*
X86450499Y-33245000D01*
X86450499Y-31902128D01*
X86444091Y-31842517D01*
X86393796Y-31707669D01*
X86307546Y-31592454D01*
X86269886Y-31564262D01*
X86199431Y-31511519D01*
X86199430Y-31511518D01*
X86192331Y-31506204D01*
X86057483Y-31455909D01*
X86049770Y-31455079D01*
X86049767Y-31455079D01*
X86001180Y-31449855D01*
X86001169Y-31449854D01*
X85997873Y-31449500D01*
X85994550Y-31449500D01*
X83305439Y-31449500D01*
X83305420Y-31449500D01*
X83302128Y-31449501D01*
X83298850Y-31449853D01*
X83298838Y-31449854D01*
X83250231Y-31455079D01*
X83250225Y-31455080D01*
X83242517Y-31455909D01*
X83235252Y-31458618D01*
X83235246Y-31458620D01*
X83115980Y-31503104D01*
X83115978Y-31503104D01*
X83107669Y-31506204D01*
X83100572Y-31511516D01*
X83100568Y-31511519D01*
X82999550Y-31587141D01*
X82999546Y-31587144D01*
X82992454Y-31592454D01*
X82987144Y-31599546D01*
X82987141Y-31599550D01*
X82911519Y-31700568D01*
X82911516Y-31700572D01*
X82906204Y-31707669D01*
X82903104Y-31715978D01*
X82903104Y-31715980D01*
X82858620Y-31835247D01*
X82858619Y-31835250D01*
X82855909Y-31842517D01*
X82855079Y-31850227D01*
X82855079Y-31850232D01*
X82849855Y-31898819D01*
X82849854Y-31898831D01*
X82849500Y-31902127D01*
X82849500Y-31905449D01*
X82849500Y-33324687D01*
X82840061Y-33372140D01*
X82813181Y-33412368D01*
X81484140Y-34741408D01*
X81479999Y-34745363D01*
X81425484Y-34795060D01*
X81425479Y-34795064D01*
X81421254Y-34798917D01*
X81417806Y-34803482D01*
X81417803Y-34803486D01*
X81373344Y-34862358D01*
X81369790Y-34866844D01*
X81322670Y-34923589D01*
X81322663Y-34923597D01*
X81319006Y-34928003D01*
X81316216Y-34933011D01*
X81316213Y-34933016D01*
X81309794Y-34944540D01*
X81300426Y-34958917D01*
X81292474Y-34969448D01*
X81292469Y-34969454D01*
X81289018Y-34974026D01*
X81286466Y-34979150D01*
X81286464Y-34979154D01*
X81253591Y-35045170D01*
X81250922Y-35050233D01*
X81215020Y-35114691D01*
X81215013Y-35114704D01*
X81212230Y-35119703D01*
X81210409Y-35125132D01*
X81210408Y-35125137D01*
X81206212Y-35137655D01*
X81199647Y-35153503D01*
X81193765Y-35165317D01*
X81193762Y-35165323D01*
X81191209Y-35170452D01*
X81189643Y-35175955D01*
X81189641Y-35175961D01*
X81169456Y-35246904D01*
X81167762Y-35252372D01*
X81144321Y-35322312D01*
X81144317Y-35322325D01*
X81142497Y-35327758D01*
X81141705Y-35333428D01*
X81141702Y-35333445D01*
X81139880Y-35346508D01*
X81136338Y-35363301D01*
X81131159Y-35381506D01*
X81130630Y-35387208D01*
X81130629Y-35387217D01*
X81123823Y-35460669D01*
X81123163Y-35466357D01*
X81112974Y-35539402D01*
X81112973Y-35539407D01*
X81112182Y-35545084D01*
X81112447Y-35550811D01*
X81115853Y-35624487D01*
X81115985Y-35630214D01*
X81115985Y-40423960D01*
X81098404Y-40487607D01*
X81050647Y-40533206D01*
X80986256Y-40547827D01*
X80982959Y-40547675D01*
X80978017Y-40547446D01*
X80978009Y-40547446D01*
X80972292Y-40547182D01*
X80966615Y-40547973D01*
X80966610Y-40547974D01*
X80893573Y-40558162D01*
X80887885Y-40558822D01*
X80814423Y-40565629D01*
X80814413Y-40565630D01*
X80808714Y-40566159D01*
X80803202Y-40567726D01*
X80803192Y-40567729D01*
X80790499Y-40571340D01*
X80773710Y-40574882D01*
X80760651Y-40576704D01*
X80760641Y-40576706D01*
X80754966Y-40577498D01*
X80749535Y-40579317D01*
X80749527Y-40579320D01*
X80679601Y-40602756D01*
X80674134Y-40604449D01*
X80603170Y-40624641D01*
X80603167Y-40624641D01*
X80597660Y-40626209D01*
X80592537Y-40628759D01*
X80592526Y-40628764D01*
X80580709Y-40634648D01*
X80564854Y-40641215D01*
X80552343Y-40645408D01*
X80552334Y-40645411D01*
X80546910Y-40647230D01*
X80541917Y-40650010D01*
X80541901Y-40650018D01*
X80477435Y-40685925D01*
X80472372Y-40688594D01*
X80401234Y-40724018D01*
X80396667Y-40727466D01*
X80396660Y-40727471D01*
X80386132Y-40735422D01*
X80371752Y-40744792D01*
X80360219Y-40751215D01*
X80360207Y-40751222D01*
X80355211Y-40754006D01*
X80350805Y-40757664D01*
X80350800Y-40757668D01*
X80294052Y-40804790D01*
X80289566Y-40808344D01*
X80230694Y-40852803D01*
X80230690Y-40852806D01*
X80226125Y-40856254D01*
X80222272Y-40860479D01*
X80222268Y-40860484D01*
X80172571Y-40914999D01*
X80168616Y-40919140D01*
X79700625Y-41387131D01*
X79696484Y-41391086D01*
X79641969Y-41440783D01*
X79641964Y-41440787D01*
X79637739Y-41444640D01*
X79634291Y-41449205D01*
X79634288Y-41449209D01*
X79589829Y-41508081D01*
X79586275Y-41512567D01*
X79539155Y-41569312D01*
X79539148Y-41569320D01*
X79535491Y-41573726D01*
X79532701Y-41578734D01*
X79532698Y-41578739D01*
X79526279Y-41590263D01*
X79516911Y-41604640D01*
X79508959Y-41615171D01*
X79508954Y-41615177D01*
X79505503Y-41619749D01*
X79502951Y-41624873D01*
X79502949Y-41624877D01*
X79470076Y-41690893D01*
X79467407Y-41695956D01*
X79431505Y-41760414D01*
X79431498Y-41760427D01*
X79428715Y-41765426D01*
X79426894Y-41770855D01*
X79426893Y-41770860D01*
X79422697Y-41783378D01*
X79416132Y-41799226D01*
X79410250Y-41811040D01*
X79410247Y-41811046D01*
X79407694Y-41816175D01*
X79406128Y-41821678D01*
X79406126Y-41821684D01*
X79385941Y-41892627D01*
X79384247Y-41898095D01*
X79360806Y-41968035D01*
X79360802Y-41968048D01*
X79358982Y-41973481D01*
X79358190Y-41979151D01*
X79358187Y-41979168D01*
X79356365Y-41992231D01*
X79352823Y-42009025D01*
X79349337Y-42021279D01*
X79347644Y-42027229D01*
X79347115Y-42032931D01*
X79347114Y-42032940D01*
X79340308Y-42106392D01*
X79339648Y-42112080D01*
X79329459Y-42185125D01*
X79329458Y-42185130D01*
X79328667Y-42190807D01*
X79331219Y-42245996D01*
X79332338Y-42270210D01*
X79332470Y-42275937D01*
X79332470Y-46455265D01*
X79313051Y-46521890D01*
X79260876Y-46567647D01*
X79192287Y-46578204D01*
X79129972Y-46550786D01*
X79129139Y-46549953D01*
X79089061Y-46521890D01*
X78947173Y-46422540D01*
X78947171Y-46422539D01*
X78942734Y-46419432D01*
X78736496Y-46323261D01*
X78731271Y-46321861D01*
X78731263Y-46321858D01*
X78521916Y-46265764D01*
X78521907Y-46265762D01*
X78516692Y-46264365D01*
X78511304Y-46263893D01*
X78511301Y-46263893D01*
X78295395Y-46245004D01*
X78290000Y-46244532D01*
X78284605Y-46245004D01*
X78068698Y-46263893D01*
X78068693Y-46263893D01*
X78063308Y-46264365D01*
X78058094Y-46265762D01*
X78058083Y-46265764D01*
X77848736Y-46321858D01*
X77848724Y-46321862D01*
X77843504Y-46323261D01*
X77838599Y-46325547D01*
X77838594Y-46325550D01*
X77642176Y-46417142D01*
X77642172Y-46417144D01*
X77637266Y-46419432D01*
X77632833Y-46422535D01*
X77632826Y-46422540D01*
X77455296Y-46546847D01*
X77455291Y-46546850D01*
X77450861Y-46549953D01*
X77447037Y-46553776D01*
X77447031Y-46553782D01*
X77293782Y-46707031D01*
X77293776Y-46707037D01*
X77289953Y-46710861D01*
X77286850Y-46715291D01*
X77286847Y-46715296D01*
X77162540Y-46892826D01*
X77162535Y-46892833D01*
X77159432Y-46897266D01*
X77157144Y-46902172D01*
X77157142Y-46902176D01*
X77065550Y-47098594D01*
X77065547Y-47098599D01*
X77063261Y-47103504D01*
X77061862Y-47108724D01*
X77061858Y-47108736D01*
X77005764Y-47318083D01*
X77005762Y-47318094D01*
X77004365Y-47323308D01*
X76984532Y-47550000D01*
X77004365Y-47776692D01*
X77005762Y-47781907D01*
X77005764Y-47781916D01*
X77061858Y-47991263D01*
X77061861Y-47991271D01*
X77063261Y-47996496D01*
X77065549Y-48001403D01*
X77065550Y-48001405D01*
X77084242Y-48041489D01*
X77159432Y-48202734D01*
X77289953Y-48389139D01*
X77450861Y-48550047D01*
X77637266Y-48680568D01*
X77843504Y-48776739D01*
X78063308Y-48835635D01*
X78290000Y-48855468D01*
X78516692Y-48835635D01*
X78736496Y-48776739D01*
X78942734Y-48680568D01*
X78949928Y-48675530D01*
X78951648Y-48674876D01*
X78951856Y-48674756D01*
X78951875Y-48674789D01*
X79006655Y-48653943D01*
X79066832Y-48661864D01*
X79116041Y-48697397D01*
X79142491Y-48752028D01*
X79139844Y-48812667D01*
X79108734Y-48864785D01*
X78904140Y-49069378D01*
X78899999Y-49073333D01*
X78845484Y-49123030D01*
X78845479Y-49123034D01*
X78841254Y-49126887D01*
X78837806Y-49131452D01*
X78837803Y-49131456D01*
X78793344Y-49190328D01*
X78789790Y-49194814D01*
X78742670Y-49251559D01*
X78742663Y-49251567D01*
X78739006Y-49255973D01*
X78736216Y-49260981D01*
X78736213Y-49260986D01*
X78729794Y-49272510D01*
X78720426Y-49286887D01*
X78712474Y-49297418D01*
X78712469Y-49297424D01*
X78709018Y-49301996D01*
X78706466Y-49307120D01*
X78706464Y-49307124D01*
X78673591Y-49373140D01*
X78670922Y-49378203D01*
X78635020Y-49442661D01*
X78635013Y-49442674D01*
X78632230Y-49447673D01*
X78630409Y-49453102D01*
X78630408Y-49453107D01*
X78626212Y-49465625D01*
X78619647Y-49481473D01*
X78613765Y-49493287D01*
X78613762Y-49493293D01*
X78611209Y-49498422D01*
X78609643Y-49503925D01*
X78609641Y-49503931D01*
X78589456Y-49574874D01*
X78587762Y-49580342D01*
X78564321Y-49650282D01*
X78564317Y-49650295D01*
X78562497Y-49655728D01*
X78561705Y-49661398D01*
X78561702Y-49661415D01*
X78559880Y-49674478D01*
X78556338Y-49691271D01*
X78551159Y-49709476D01*
X78550630Y-49715178D01*
X78550629Y-49715187D01*
X78543823Y-49788639D01*
X78543163Y-49794327D01*
X78532974Y-49867372D01*
X78532973Y-49867377D01*
X78532182Y-49873054D01*
X78535112Y-49936422D01*
X78535853Y-49952457D01*
X78535985Y-49958184D01*
X78535985Y-51271294D01*
X78530830Y-51306676D01*
X78515796Y-51339111D01*
X78437745Y-51458578D01*
X78435690Y-51463262D01*
X78435684Y-51463274D01*
X78343077Y-51674398D01*
X78341017Y-51679095D01*
X78339759Y-51684060D01*
X78339758Y-51684065D01*
X78283162Y-51907559D01*
X78281905Y-51912524D01*
X78281482Y-51917625D01*
X78281482Y-51917627D01*
X78281039Y-51922974D01*
X78269963Y-51964874D01*
X78245144Y-52000404D01*
X76134140Y-54111408D01*
X76129999Y-54115363D01*
X76075484Y-54165060D01*
X76075479Y-54165064D01*
X76071254Y-54168917D01*
X76067806Y-54173482D01*
X76067803Y-54173486D01*
X76023344Y-54232358D01*
X76019790Y-54236844D01*
X75972670Y-54293589D01*
X75972663Y-54293597D01*
X75969006Y-54298003D01*
X75966216Y-54303011D01*
X75966213Y-54303016D01*
X75959794Y-54314540D01*
X75950426Y-54328917D01*
X75942474Y-54339448D01*
X75942469Y-54339454D01*
X75939018Y-54344026D01*
X75936466Y-54349150D01*
X75936464Y-54349154D01*
X75903591Y-54415170D01*
X75900922Y-54420233D01*
X75865020Y-54484691D01*
X75865013Y-54484704D01*
X75862230Y-54489703D01*
X75860409Y-54495132D01*
X75860408Y-54495137D01*
X75856212Y-54507655D01*
X75849647Y-54523503D01*
X75843765Y-54535317D01*
X75843762Y-54535323D01*
X75841209Y-54540452D01*
X75839643Y-54545955D01*
X75839641Y-54545961D01*
X75819456Y-54616904D01*
X75817762Y-54622372D01*
X75794321Y-54692312D01*
X75794317Y-54692325D01*
X75792497Y-54697758D01*
X75791705Y-54703428D01*
X75791702Y-54703445D01*
X75789880Y-54716508D01*
X75786338Y-54733301D01*
X75781159Y-54751506D01*
X75780630Y-54757208D01*
X75780629Y-54757217D01*
X75773823Y-54830669D01*
X75773163Y-54836357D01*
X75762974Y-54909402D01*
X75762973Y-54909407D01*
X75762182Y-54915084D01*
X75762447Y-54920811D01*
X75765853Y-54994487D01*
X75765985Y-55000214D01*
X75765985Y-58434393D01*
X75754367Y-58486798D01*
X75725550Y-58548594D01*
X75725547Y-58548599D01*
X75723261Y-58553504D01*
X75721862Y-58558724D01*
X75721858Y-58558736D01*
X75665764Y-58768083D01*
X75665762Y-58768094D01*
X75664365Y-58773308D01*
X75663893Y-58778693D01*
X75663893Y-58778698D01*
X75653386Y-58898793D01*
X75644532Y-59000000D01*
X73460614Y-59000000D01*
X73503795Y-33250000D01*
X77844451Y-33250000D01*
X77844798Y-33254631D01*
X77863895Y-33509477D01*
X77864617Y-33519103D01*
X77865647Y-33523616D01*
X77865648Y-33523622D01*
X77923632Y-33777666D01*
X77924666Y-33782195D01*
X78023257Y-34033398D01*
X78158185Y-34267102D01*
X78326439Y-34478085D01*
X78329843Y-34481243D01*
X78515464Y-34653475D01*
X78524259Y-34661635D01*
X78747226Y-34813651D01*
X78990359Y-34930738D01*
X78994787Y-34932103D01*
X78994790Y-34932105D01*
X79081713Y-34958917D01*
X79248228Y-35010280D01*
X79515071Y-35050500D01*
X79780292Y-35050500D01*
X79784929Y-35050500D01*
X80051772Y-35010280D01*
X80309641Y-34930738D01*
X80552775Y-34813651D01*
X80775741Y-34661635D01*
X80973561Y-34478085D01*
X81141815Y-34267102D01*
X81276743Y-34033398D01*
X81375334Y-33782195D01*
X81435383Y-33519103D01*
X81455549Y-33250000D01*
X81435383Y-32980897D01*
X81375334Y-32717805D01*
X81276743Y-32466602D01*
X81141815Y-32232898D01*
X80973561Y-32021915D01*
X80874650Y-31930139D01*
X80779146Y-31841524D01*
X80779143Y-31841521D01*
X80775741Y-31838365D01*
X80771912Y-31835754D01*
X80771909Y-31835752D01*
X80657435Y-31757705D01*
X80552775Y-31686349D01*
X80548589Y-31684333D01*
X80313820Y-31571274D01*
X80313814Y-31571271D01*
X80309641Y-31569262D01*
X80305219Y-31567898D01*
X80305209Y-31567894D01*
X80056202Y-31491086D01*
X80056196Y-31491084D01*
X80051772Y-31489720D01*
X80047195Y-31489030D01*
X80047186Y-31489028D01*
X79789514Y-31450191D01*
X79789513Y-31450190D01*
X79784929Y-31449500D01*
X79515071Y-31449500D01*
X79510487Y-31450190D01*
X79510485Y-31450191D01*
X79252813Y-31489028D01*
X79252801Y-31489030D01*
X79248228Y-31489720D01*
X79243806Y-31491083D01*
X79243797Y-31491086D01*
X78994790Y-31567894D01*
X78994775Y-31567899D01*
X78990359Y-31569262D01*
X78986185Y-31571271D01*
X78986180Y-31571274D01*
X78751411Y-31684333D01*
X78751404Y-31684336D01*
X78747226Y-31686349D01*
X78743393Y-31688962D01*
X78743390Y-31688964D01*
X78528090Y-31835752D01*
X78528080Y-31835759D01*
X78524259Y-31838365D01*
X78520863Y-31841516D01*
X78520853Y-31841524D01*
X78329843Y-32018756D01*
X78329839Y-32018759D01*
X78326439Y-32021915D01*
X78323549Y-32025537D01*
X78323546Y-32025542D01*
X78162172Y-32227898D01*
X78158185Y-32232898D01*
X78155866Y-32236913D01*
X78155865Y-32236916D01*
X78025578Y-32462581D01*
X78025575Y-32462586D01*
X78023257Y-32466602D01*
X78021563Y-32470916D01*
X78021561Y-32470922D01*
X77926628Y-32712805D01*
X77924666Y-32717805D01*
X77923633Y-32722326D01*
X77923632Y-32722333D01*
X77865648Y-32976377D01*
X77865646Y-32976385D01*
X77864617Y-32980897D01*
X77844451Y-33250000D01*
X73503795Y-33250000D01*
X73509963Y-29571944D01*
X73517568Y-29529397D01*
X73589033Y-29334854D01*
X73678514Y-29091266D01*
X73715609Y-29038698D01*
X74637796Y-28271645D01*
X74691769Y-28247977D01*
X74690000Y-28250000D01*
X75468219Y-27919256D01*
X75513662Y-27909417D01*
X78737816Y-27830053D01*
X78742176Y-27830024D01*
X88620000Y-27940000D01*
X94700000Y-27900000D01*
X99931442Y-27800163D01*
X99948498Y-27801014D01*
G37*
%TD.AperFunction*%
%TD*%
M02*
