%TF.GenerationSoftware,KiCad,Pcbnew,(7.0.0)*%
%TF.CreationDate,2023-04-15T22:01:32+02:00*%
%TF.ProjectId,incredibly_simple_voltage_regulator,696e6372-6564-4696-926c-795f73696d70,rev?*%
%TF.SameCoordinates,Original*%
%TF.FileFunction,Copper,L2,Bot*%
%TF.FilePolarity,Positive*%
%FSLAX46Y46*%
G04 Gerber Fmt 4.6, Leading zero omitted, Abs format (unit mm)*
G04 Created by KiCad (PCBNEW (7.0.0)) date 2023-04-15 22:01:32*
%MOMM*%
%LPD*%
G01*
G04 APERTURE LIST*
%TA.AperFunction,ComponentPad*%
%ADD10C,1.800000*%
%TD*%
%TA.AperFunction,ComponentPad*%
%ADD11R,1.800000X1.800000*%
%TD*%
%TA.AperFunction,ComponentPad*%
%ADD12C,1.600000*%
%TD*%
%TA.AperFunction,ComponentPad*%
%ADD13O,1.600000X1.600000*%
%TD*%
%TA.AperFunction,ComponentPad*%
%ADD14R,1.905000X2.000000*%
%TD*%
%TA.AperFunction,ComponentPad*%
%ADD15O,1.905000X2.000000*%
%TD*%
%TA.AperFunction,ComponentPad*%
%ADD16R,2.600000X2.600000*%
%TD*%
%TA.AperFunction,ComponentPad*%
%ADD17C,2.600000*%
%TD*%
%TA.AperFunction,Conductor*%
%ADD18C,1.367030*%
%TD*%
G04 APERTURE END LIST*
D10*
%TO.P,D1,2,A*%
%TO.N,/5V OUT*%
X95150000Y-41785000D03*
D11*
%TO.P,D1,1,K*%
%TO.N,Net-(D1-K)*%
X95149999Y-44324999D03*
%TD*%
D12*
%TO.P,C4,1*%
%TO.N,/9V OUT*%
X76950000Y-59000000D03*
%TO.P,C4,2*%
%TO.N,GND*%
X76950000Y-64000000D03*
%TD*%
D13*
%TO.P,R1,2*%
%TO.N,GND*%
X91039999Y-47544999D03*
D12*
%TO.P,R1,1*%
%TO.N,Net-(D1-K)*%
X98660000Y-47545000D03*
%TD*%
D14*
%TO.P,U2,1,VI*%
%TO.N,+12V*%
X84799999Y-52199999D03*
D15*
%TO.P,U2,2,GND*%
%TO.N,GND*%
X82259999Y-52199999D03*
%TO.P,U2,3,VO*%
%TO.N,/9V OUT*%
X79719999Y-52199999D03*
%TD*%
D11*
%TO.P,D2,1,K*%
%TO.N,Net-(D2-K)*%
X82299999Y-44274999D03*
D10*
%TO.P,D2,2,A*%
%TO.N,/9V OUT*%
X82300000Y-41735000D03*
%TD*%
D12*
%TO.P,C3,1*%
%TO.N,+12V*%
X80940000Y-59120000D03*
%TO.P,C3,2*%
%TO.N,GND*%
X80940000Y-64120000D03*
%TD*%
D16*
%TO.P,J2,1,Pin_1*%
%TO.N,/9V OUT*%
X84649999Y-33249999D03*
D17*
%TO.P,J2,2,Pin_2*%
%TO.N,GND*%
X79650000Y-33250000D03*
%TD*%
D12*
%TO.P,C2,2*%
%TO.N,GND*%
X96480000Y-63785000D03*
%TO.P,C2,1*%
%TO.N,/5V OUT*%
X96480000Y-58785000D03*
%TD*%
D16*
%TO.P,J1,1,Pin_1*%
%TO.N,/5V OUT*%
X97399999Y-33244999D03*
D17*
%TO.P,J1,2,Pin_2*%
%TO.N,GND*%
X92400000Y-33245000D03*
%TD*%
D15*
%TO.P,U1,3,VO*%
%TO.N,/5V OUT*%
X92179999Y-52344999D03*
%TO.P,U1,2,GND*%
%TO.N,GND*%
X94719999Y-52344999D03*
D14*
%TO.P,U1,1,VI*%
%TO.N,+12V*%
X97259999Y-52344999D03*
%TD*%
D17*
%TO.P,J3,2,Pin_2*%
%TO.N,GND*%
X91200000Y-62600000D03*
D16*
%TO.P,J3,1,Pin_1*%
%TO.N,+12V*%
X86199999Y-62599999D03*
%TD*%
D12*
%TO.P,C1,2*%
%TO.N,GND*%
X101380000Y-63985000D03*
%TO.P,C1,1*%
%TO.N,+12V*%
X101380000Y-58985000D03*
%TD*%
%TO.P,R2,1*%
%TO.N,Net-(D2-K)*%
X85910000Y-47550000D03*
D13*
%TO.P,R2,2*%
%TO.N,GND*%
X78289999Y-47549999D03*
%TD*%
D18*
%TO.N,GND*%
X78290000Y-34610000D02*
X79650000Y-33250000D01*
X78290000Y-47550000D02*
X78290000Y-34610000D01*
X82260000Y-51520000D02*
X78290000Y-47550000D01*
X82260000Y-52200000D02*
X82260000Y-51520000D01*
X79256485Y-55307532D02*
X82260000Y-52304017D01*
X79256485Y-61693515D02*
X79256485Y-55307532D01*
X82260000Y-52304017D02*
X82260000Y-52200000D01*
X76950000Y-64000000D02*
X79256485Y-61693515D01*
X77070000Y-64120000D02*
X76950000Y-64000000D01*
X80940000Y-64120000D02*
X77070000Y-64120000D01*
X80940000Y-63492970D02*
X80940000Y-64120000D01*
X84016485Y-60416485D02*
X80940000Y-63492970D01*
X89016485Y-60416485D02*
X84016485Y-60416485D01*
X91200000Y-62600000D02*
X89016485Y-60416485D01*
X101180000Y-63785000D02*
X101380000Y-63985000D01*
X96480000Y-63785000D02*
X101180000Y-63785000D01*
X95295000Y-62600000D02*
X96480000Y-63785000D01*
X91200000Y-62600000D02*
X95295000Y-62600000D01*
X94720000Y-59080000D02*
X91200000Y-62600000D01*
X94720000Y-52345000D02*
X94720000Y-59080000D01*
X91040000Y-47545000D02*
X94720000Y-51225000D01*
X94720000Y-51225000D02*
X94720000Y-52345000D01*
X92400000Y-46185000D02*
X91040000Y-47545000D01*
X92400000Y-33245000D02*
X92400000Y-46185000D01*
%TD*%
%TA.AperFunction,Conductor*%
%TO.N,GND*%
G36*
X101166273Y-28019960D02*
G01*
X101229060Y-28037117D01*
X102603928Y-28846971D01*
X102646369Y-28888453D01*
X102664673Y-28944907D01*
X102749833Y-30127687D01*
X102750147Y-30135405D01*
X103089589Y-65587143D01*
X103083174Y-65627714D01*
X103063858Y-65663963D01*
X101848356Y-67243158D01*
X101815550Y-67272841D01*
X101774411Y-67289117D01*
X99681857Y-67707628D01*
X99657902Y-67710035D01*
X75789857Y-67779883D01*
X75751895Y-67774046D01*
X75717540Y-67756872D01*
X74178768Y-66660497D01*
X74136352Y-66607421D01*
X73539644Y-65183021D01*
X73530014Y-65135039D01*
X73530046Y-65078703D01*
X76228217Y-65078703D01*
X76235650Y-65086814D01*
X76293077Y-65127025D01*
X76302427Y-65132423D01*
X76498768Y-65223979D01*
X76508902Y-65227667D01*
X76718162Y-65283739D01*
X76728793Y-65285613D01*
X76944605Y-65304494D01*
X76955395Y-65304494D01*
X77171206Y-65285613D01*
X77181837Y-65283739D01*
X77391097Y-65227667D01*
X77401231Y-65223979D01*
X77455435Y-65198703D01*
X80218217Y-65198703D01*
X80225650Y-65206814D01*
X80283077Y-65247025D01*
X80292427Y-65252423D01*
X80488768Y-65343979D01*
X80498902Y-65347667D01*
X80708162Y-65403739D01*
X80718793Y-65405613D01*
X80934605Y-65424494D01*
X80945395Y-65424494D01*
X81161206Y-65405613D01*
X81171837Y-65403739D01*
X81381097Y-65347667D01*
X81391231Y-65343979D01*
X81587575Y-65252422D01*
X81596920Y-65247026D01*
X81654348Y-65206814D01*
X81661780Y-65198703D01*
X81655867Y-65189421D01*
X81330149Y-64863703D01*
X95758217Y-64863703D01*
X95765650Y-64871814D01*
X95823077Y-64912025D01*
X95832427Y-64917423D01*
X96028768Y-65008979D01*
X96038902Y-65012667D01*
X96248162Y-65068739D01*
X96258793Y-65070613D01*
X96474605Y-65089494D01*
X96485395Y-65089494D01*
X96701206Y-65070613D01*
X96711837Y-65068739D01*
X96730631Y-65063703D01*
X100658217Y-65063703D01*
X100665650Y-65071814D01*
X100723077Y-65112025D01*
X100732427Y-65117423D01*
X100928768Y-65208979D01*
X100938902Y-65212667D01*
X101148162Y-65268739D01*
X101158793Y-65270613D01*
X101374605Y-65289494D01*
X101385395Y-65289494D01*
X101601206Y-65270613D01*
X101611837Y-65268739D01*
X101821097Y-65212667D01*
X101831231Y-65208979D01*
X102027575Y-65117422D01*
X102036920Y-65112026D01*
X102094348Y-65071814D01*
X102101780Y-65063703D01*
X102095867Y-65054421D01*
X101391542Y-64350095D01*
X101380000Y-64343431D01*
X101368457Y-64350095D01*
X100664128Y-65054424D01*
X100658217Y-65063703D01*
X96730631Y-65063703D01*
X96921097Y-65012667D01*
X96931231Y-65008979D01*
X97127575Y-64917422D01*
X97136920Y-64912026D01*
X97194348Y-64871814D01*
X97201780Y-64863703D01*
X97195867Y-64854421D01*
X96491542Y-64150095D01*
X96480000Y-64143431D01*
X96468457Y-64150095D01*
X95764128Y-64854424D01*
X95758217Y-64863703D01*
X81330149Y-64863703D01*
X80951542Y-64485095D01*
X80940000Y-64478431D01*
X80928457Y-64485095D01*
X80224128Y-65189424D01*
X80218217Y-65198703D01*
X77455435Y-65198703D01*
X77597575Y-65132422D01*
X77606920Y-65127026D01*
X77664348Y-65086814D01*
X77671780Y-65078703D01*
X77665867Y-65069421D01*
X76961542Y-64365095D01*
X76950000Y-64358431D01*
X76938457Y-64365095D01*
X76234128Y-65069424D01*
X76228217Y-65078703D01*
X73530046Y-65078703D01*
X73530162Y-64871814D01*
X73530649Y-64005395D01*
X75645506Y-64005395D01*
X75664386Y-64221206D01*
X75666260Y-64231837D01*
X75722332Y-64441097D01*
X75726020Y-64451231D01*
X75817576Y-64647572D01*
X75822974Y-64656922D01*
X75863184Y-64714348D01*
X75871295Y-64721781D01*
X75880574Y-64715870D01*
X76584903Y-64011542D01*
X76591566Y-64000000D01*
X77308431Y-64000000D01*
X77315095Y-64011542D01*
X78019421Y-64715867D01*
X78028703Y-64721780D01*
X78036814Y-64714348D01*
X78077026Y-64656920D01*
X78082422Y-64647575D01*
X78173979Y-64451231D01*
X78177667Y-64441097D01*
X78233739Y-64231837D01*
X78235613Y-64221206D01*
X78243995Y-64125395D01*
X79635506Y-64125395D01*
X79654386Y-64341206D01*
X79656260Y-64351837D01*
X79712332Y-64561097D01*
X79716020Y-64571231D01*
X79807576Y-64767572D01*
X79812974Y-64776922D01*
X79853184Y-64834348D01*
X79861295Y-64841781D01*
X79870574Y-64835870D01*
X80574903Y-64131542D01*
X80581567Y-64120000D01*
X81298431Y-64120000D01*
X81305095Y-64131542D01*
X82009421Y-64835867D01*
X82018703Y-64841780D01*
X82026814Y-64834348D01*
X82067026Y-64776920D01*
X82072422Y-64767575D01*
X82163979Y-64571231D01*
X82167667Y-64561097D01*
X82223739Y-64351837D01*
X82225613Y-64341206D01*
X82244494Y-64125395D01*
X82244494Y-64114605D01*
X82229619Y-63944578D01*
X84399500Y-63944578D01*
X84399501Y-63947872D01*
X84399853Y-63951150D01*
X84399854Y-63951161D01*
X84405079Y-63999768D01*
X84405080Y-63999773D01*
X84405909Y-64007483D01*
X84408619Y-64014749D01*
X84408620Y-64014753D01*
X84420427Y-64046408D01*
X84456204Y-64142331D01*
X84461518Y-64149430D01*
X84461519Y-64149431D01*
X84526497Y-64236231D01*
X84542454Y-64257546D01*
X84657669Y-64343796D01*
X84792517Y-64394091D01*
X84852127Y-64400500D01*
X87547872Y-64400499D01*
X87607483Y-64394091D01*
X87742331Y-64343796D01*
X87857546Y-64257546D01*
X87943796Y-64142331D01*
X87982578Y-64038350D01*
X90118604Y-64038350D01*
X90126150Y-64046408D01*
X90293641Y-64160601D01*
X90301662Y-64165232D01*
X90536362Y-64278258D01*
X90544973Y-64281638D01*
X90793908Y-64358424D01*
X90802924Y-64360482D01*
X91060523Y-64399308D01*
X91069746Y-64400000D01*
X91330254Y-64400000D01*
X91339476Y-64399308D01*
X91597075Y-64360482D01*
X91606091Y-64358424D01*
X91855027Y-64281637D01*
X91863637Y-64278258D01*
X92098340Y-64165231D01*
X92106359Y-64160601D01*
X92273846Y-64046409D01*
X92281394Y-64038350D01*
X92275477Y-64029030D01*
X92036842Y-63790395D01*
X95175506Y-63790395D01*
X95194386Y-64006206D01*
X95196260Y-64016837D01*
X95252332Y-64226097D01*
X95256020Y-64236231D01*
X95347576Y-64432572D01*
X95352974Y-64441922D01*
X95393184Y-64499348D01*
X95401295Y-64506781D01*
X95410574Y-64500870D01*
X96114903Y-63796542D01*
X96121566Y-63785000D01*
X96838431Y-63785000D01*
X96845095Y-63796542D01*
X97549421Y-64500867D01*
X97558703Y-64506780D01*
X97566814Y-64499348D01*
X97607026Y-64441920D01*
X97612422Y-64432575D01*
X97703979Y-64236231D01*
X97707667Y-64226097D01*
X97763739Y-64016837D01*
X97765613Y-64006206D01*
X97766996Y-63990395D01*
X100075506Y-63990395D01*
X100094386Y-64206206D01*
X100096260Y-64216837D01*
X100152332Y-64426097D01*
X100156020Y-64436231D01*
X100247576Y-64632572D01*
X100252974Y-64641922D01*
X100293184Y-64699348D01*
X100301295Y-64706781D01*
X100310574Y-64700870D01*
X101014903Y-63996542D01*
X101021567Y-63985000D01*
X101021566Y-63984999D01*
X101738431Y-63984999D01*
X101745095Y-63996541D01*
X102449421Y-64700867D01*
X102458703Y-64706780D01*
X102466814Y-64699348D01*
X102507026Y-64641920D01*
X102512422Y-64632575D01*
X102603979Y-64436231D01*
X102607667Y-64426097D01*
X102663739Y-64216837D01*
X102665613Y-64206206D01*
X102684494Y-63990395D01*
X102684494Y-63979605D01*
X102665613Y-63763793D01*
X102663739Y-63753162D01*
X102607667Y-63543902D01*
X102603979Y-63533768D01*
X102512423Y-63337427D01*
X102507025Y-63328077D01*
X102466814Y-63270650D01*
X102458703Y-63263217D01*
X102449424Y-63269128D01*
X101745095Y-63973456D01*
X101738431Y-63984999D01*
X101021566Y-63984999D01*
X101014903Y-63973457D01*
X100310574Y-63269128D01*
X100301296Y-63263217D01*
X100293183Y-63270651D01*
X100252971Y-63328081D01*
X100247577Y-63337425D01*
X100156020Y-63533768D01*
X100152332Y-63543902D01*
X100096260Y-63753162D01*
X100094386Y-63763793D01*
X100075506Y-63979605D01*
X100075506Y-63990395D01*
X97766996Y-63990395D01*
X97784494Y-63790395D01*
X97784494Y-63779605D01*
X97765613Y-63563793D01*
X97763739Y-63553162D01*
X97707667Y-63343902D01*
X97703979Y-63333768D01*
X97612423Y-63137427D01*
X97607025Y-63128077D01*
X97566814Y-63070650D01*
X97558703Y-63063217D01*
X97549424Y-63069128D01*
X96845095Y-63773457D01*
X96838431Y-63785000D01*
X96121566Y-63785000D01*
X96121567Y-63784999D01*
X96114903Y-63773457D01*
X95410574Y-63069128D01*
X95401296Y-63063217D01*
X95393183Y-63070651D01*
X95352971Y-63128081D01*
X95347577Y-63137425D01*
X95256020Y-63333768D01*
X95252332Y-63343902D01*
X95196260Y-63553162D01*
X95194386Y-63563793D01*
X95175506Y-63779605D01*
X95175506Y-63790395D01*
X92036842Y-63790395D01*
X91211542Y-62965095D01*
X91200000Y-62958431D01*
X91188457Y-62965095D01*
X90124521Y-64029030D01*
X90118604Y-64038350D01*
X87982578Y-64038350D01*
X87994091Y-64007483D01*
X88000500Y-63947873D01*
X88000500Y-62604630D01*
X89395300Y-62604630D01*
X89414767Y-62864399D01*
X89416146Y-62873552D01*
X89474111Y-63127515D01*
X89476844Y-63136375D01*
X89572011Y-63378856D01*
X89576030Y-63387202D01*
X89706278Y-63612798D01*
X89711496Y-63620450D01*
X89751379Y-63670462D01*
X89762615Y-63678435D01*
X89774674Y-63671771D01*
X90834904Y-62611542D01*
X90841568Y-62599999D01*
X91558431Y-62599999D01*
X91565095Y-62611542D01*
X92625325Y-63671772D01*
X92637382Y-63678436D01*
X92648619Y-63670463D01*
X92688507Y-63620445D01*
X92693719Y-63612800D01*
X92823969Y-63387202D01*
X92827988Y-63378856D01*
X92923155Y-63136375D01*
X92925888Y-63127515D01*
X92983853Y-62873552D01*
X92985232Y-62864399D01*
X92997081Y-62706296D01*
X95758217Y-62706296D01*
X95764128Y-62715574D01*
X96468457Y-63419903D01*
X96480000Y-63426567D01*
X96491542Y-63419903D01*
X97005148Y-62906296D01*
X100658217Y-62906296D01*
X100664128Y-62915574D01*
X101368457Y-63619903D01*
X101380000Y-63626567D01*
X101391542Y-63619903D01*
X102095870Y-62915574D01*
X102101781Y-62906295D01*
X102094348Y-62898184D01*
X102036922Y-62857974D01*
X102027572Y-62852576D01*
X101831231Y-62761020D01*
X101821097Y-62757332D01*
X101611837Y-62701260D01*
X101601206Y-62699386D01*
X101385395Y-62680506D01*
X101374605Y-62680506D01*
X101158793Y-62699386D01*
X101148162Y-62701260D01*
X100938902Y-62757332D01*
X100928768Y-62761020D01*
X100732425Y-62852577D01*
X100723081Y-62857971D01*
X100665651Y-62898183D01*
X100658217Y-62906296D01*
X97005148Y-62906296D01*
X97195870Y-62715574D01*
X97201781Y-62706295D01*
X97194348Y-62698184D01*
X97136922Y-62657974D01*
X97127572Y-62652576D01*
X96931231Y-62561020D01*
X96921097Y-62557332D01*
X96711837Y-62501260D01*
X96701206Y-62499386D01*
X96485395Y-62480506D01*
X96474605Y-62480506D01*
X96258793Y-62499386D01*
X96248162Y-62501260D01*
X96038902Y-62557332D01*
X96028768Y-62561020D01*
X95832425Y-62652577D01*
X95823081Y-62657971D01*
X95765651Y-62698183D01*
X95758217Y-62706296D01*
X92997081Y-62706296D01*
X93004700Y-62604630D01*
X93004700Y-62595370D01*
X92985232Y-62335600D01*
X92983853Y-62326447D01*
X92925888Y-62072484D01*
X92923155Y-62063624D01*
X92827988Y-61821143D01*
X92823969Y-61812797D01*
X92693721Y-61587201D01*
X92688503Y-61579549D01*
X92648619Y-61529536D01*
X92637382Y-61521562D01*
X92625325Y-61528226D01*
X91565095Y-62588457D01*
X91558431Y-62599999D01*
X90841568Y-62599999D01*
X90834904Y-62588457D01*
X89774674Y-61528227D01*
X89762615Y-61521562D01*
X89751380Y-61529534D01*
X89711488Y-61579558D01*
X89706282Y-61587195D01*
X89576030Y-61812797D01*
X89572011Y-61821143D01*
X89476844Y-62063624D01*
X89474111Y-62072484D01*
X89416146Y-62326447D01*
X89414767Y-62335600D01*
X89395300Y-62595370D01*
X89395300Y-62604630D01*
X88000500Y-62604630D01*
X88000499Y-61252128D01*
X87994091Y-61192517D01*
X87982578Y-61161648D01*
X90118603Y-61161648D01*
X90124519Y-61170966D01*
X91188457Y-62234904D01*
X91200000Y-62241568D01*
X91211542Y-62234904D01*
X92275477Y-61170968D01*
X92281394Y-61161648D01*
X92273846Y-61153589D01*
X92106360Y-61039398D01*
X92098340Y-61034768D01*
X91863637Y-60921741D01*
X91855027Y-60918362D01*
X91606091Y-60841575D01*
X91597075Y-60839517D01*
X91339476Y-60800691D01*
X91330254Y-60800000D01*
X91069746Y-60800000D01*
X91060523Y-60800691D01*
X90802924Y-60839517D01*
X90793908Y-60841575D01*
X90544973Y-60918361D01*
X90536362Y-60921741D01*
X90301660Y-61034768D01*
X90293639Y-61039399D01*
X90126151Y-61153590D01*
X90118603Y-61161648D01*
X87982578Y-61161648D01*
X87943796Y-61057669D01*
X87857546Y-60942454D01*
X87742331Y-60856204D01*
X87607483Y-60805909D01*
X87599770Y-60805079D01*
X87599767Y-60805079D01*
X87551180Y-60799855D01*
X87551169Y-60799854D01*
X87547873Y-60799500D01*
X87544550Y-60799500D01*
X84855439Y-60799500D01*
X84855420Y-60799500D01*
X84852128Y-60799501D01*
X84848850Y-60799853D01*
X84848838Y-60799854D01*
X84800231Y-60805079D01*
X84800225Y-60805080D01*
X84792517Y-60805909D01*
X84785252Y-60808618D01*
X84785246Y-60808620D01*
X84665980Y-60853104D01*
X84665978Y-60853104D01*
X84657669Y-60856204D01*
X84650572Y-60861516D01*
X84650568Y-60861519D01*
X84549550Y-60937141D01*
X84549546Y-60937144D01*
X84542454Y-60942454D01*
X84537144Y-60949546D01*
X84537141Y-60949550D01*
X84461519Y-61050568D01*
X84461516Y-61050572D01*
X84456204Y-61057669D01*
X84453104Y-61065978D01*
X84453104Y-61065980D01*
X84408620Y-61185247D01*
X84408619Y-61185250D01*
X84405909Y-61192517D01*
X84405079Y-61200227D01*
X84405079Y-61200232D01*
X84399855Y-61248819D01*
X84399854Y-61248831D01*
X84399500Y-61252127D01*
X84399500Y-61255448D01*
X84399500Y-61255449D01*
X84399500Y-63944560D01*
X84399500Y-63944578D01*
X82229619Y-63944578D01*
X82225613Y-63898793D01*
X82223739Y-63888162D01*
X82167667Y-63678902D01*
X82163979Y-63668768D01*
X82072423Y-63472427D01*
X82067025Y-63463077D01*
X82026814Y-63405650D01*
X82018703Y-63398217D01*
X82009424Y-63404128D01*
X81305095Y-64108457D01*
X81298431Y-64120000D01*
X80581567Y-64120000D01*
X80574903Y-64108457D01*
X79870574Y-63404128D01*
X79861296Y-63398217D01*
X79853183Y-63405651D01*
X79812971Y-63463081D01*
X79807577Y-63472425D01*
X79716020Y-63668768D01*
X79712332Y-63678902D01*
X79656260Y-63888162D01*
X79654386Y-63898793D01*
X79635506Y-64114605D01*
X79635506Y-64125395D01*
X78243995Y-64125395D01*
X78254494Y-64005395D01*
X78254494Y-63994605D01*
X78235613Y-63778793D01*
X78233739Y-63768162D01*
X78177667Y-63558902D01*
X78173979Y-63548768D01*
X78082423Y-63352427D01*
X78077025Y-63343077D01*
X78036814Y-63285650D01*
X78028703Y-63278217D01*
X78019424Y-63284128D01*
X77315095Y-63988457D01*
X77308431Y-64000000D01*
X76591566Y-64000000D01*
X76591567Y-63999999D01*
X76584903Y-63988457D01*
X75880574Y-63284128D01*
X75871296Y-63278217D01*
X75863183Y-63285651D01*
X75822971Y-63343081D01*
X75817577Y-63352425D01*
X75726020Y-63548768D01*
X75722332Y-63558902D01*
X75666260Y-63768162D01*
X75664386Y-63778793D01*
X75645506Y-63994605D01*
X75645506Y-64005395D01*
X73530649Y-64005395D01*
X73531258Y-62921296D01*
X76228217Y-62921296D01*
X76234128Y-62930574D01*
X76938457Y-63634903D01*
X76950000Y-63641567D01*
X76961542Y-63634903D01*
X77555148Y-63041296D01*
X80218217Y-63041296D01*
X80224128Y-63050574D01*
X80928457Y-63754903D01*
X80939999Y-63761567D01*
X80951542Y-63754903D01*
X81655870Y-63050574D01*
X81661781Y-63041295D01*
X81654348Y-63033184D01*
X81596922Y-62992974D01*
X81587572Y-62987576D01*
X81391231Y-62896020D01*
X81381097Y-62892332D01*
X81171837Y-62836260D01*
X81161206Y-62834386D01*
X80945395Y-62815506D01*
X80934605Y-62815506D01*
X80718793Y-62834386D01*
X80708162Y-62836260D01*
X80498902Y-62892332D01*
X80488768Y-62896020D01*
X80292425Y-62987577D01*
X80283081Y-62992971D01*
X80225651Y-63033183D01*
X80218217Y-63041296D01*
X77555148Y-63041296D01*
X77665870Y-62930574D01*
X77671781Y-62921295D01*
X77664348Y-62913184D01*
X77606922Y-62872974D01*
X77597572Y-62867576D01*
X77401231Y-62776020D01*
X77391097Y-62772332D01*
X77181837Y-62716260D01*
X77171206Y-62714386D01*
X76955395Y-62695506D01*
X76944605Y-62695506D01*
X76728793Y-62714386D01*
X76718162Y-62716260D01*
X76508902Y-62772332D01*
X76498768Y-62776020D01*
X76302425Y-62867577D01*
X76293081Y-62872971D01*
X76235651Y-62913183D01*
X76228217Y-62921296D01*
X73531258Y-62921296D01*
X73533462Y-59000000D01*
X75644532Y-59000000D01*
X75645004Y-59005395D01*
X75663509Y-59216916D01*
X75664365Y-59226692D01*
X75665762Y-59231907D01*
X75665764Y-59231916D01*
X75721858Y-59441263D01*
X75721861Y-59441271D01*
X75723261Y-59446496D01*
X75819432Y-59652734D01*
X75949953Y-59839139D01*
X76110861Y-60000047D01*
X76297266Y-60130568D01*
X76503504Y-60226739D01*
X76723308Y-60285635D01*
X76950000Y-60305468D01*
X77176692Y-60285635D01*
X77396496Y-60226739D01*
X77602734Y-60130568D01*
X77789139Y-60000047D01*
X77950047Y-59839139D01*
X78080568Y-59652734D01*
X78176739Y-59446496D01*
X78235635Y-59226692D01*
X78244969Y-59120000D01*
X79634532Y-59120000D01*
X79635004Y-59125395D01*
X79644286Y-59231496D01*
X79654365Y-59346692D01*
X79655762Y-59351907D01*
X79655764Y-59351916D01*
X79711858Y-59561263D01*
X79711861Y-59561271D01*
X79713261Y-59566496D01*
X79715549Y-59571403D01*
X79715550Y-59571405D01*
X79741926Y-59627968D01*
X79809432Y-59772734D01*
X79812539Y-59777171D01*
X79812540Y-59777173D01*
X79820228Y-59788152D01*
X79939953Y-59959139D01*
X80100861Y-60120047D01*
X80287266Y-60250568D01*
X80493504Y-60346739D01*
X80713308Y-60405635D01*
X80940000Y-60425468D01*
X81166692Y-60405635D01*
X81386496Y-60346739D01*
X81592734Y-60250568D01*
X81779139Y-60120047D01*
X81940047Y-59959139D01*
X82070568Y-59772734D01*
X82166739Y-59566496D01*
X82225635Y-59346692D01*
X82245468Y-59120000D01*
X82225635Y-58893308D01*
X82196614Y-58785000D01*
X95174532Y-58785000D01*
X95175004Y-58790395D01*
X95192501Y-58990395D01*
X95194365Y-59011692D01*
X95195762Y-59016907D01*
X95195764Y-59016916D01*
X95251858Y-59226263D01*
X95251861Y-59226271D01*
X95253261Y-59231496D01*
X95349432Y-59437734D01*
X95479953Y-59624139D01*
X95640861Y-59785047D01*
X95827266Y-59915568D01*
X96033504Y-60011739D01*
X96253308Y-60070635D01*
X96480000Y-60090468D01*
X96706692Y-60070635D01*
X96926496Y-60011739D01*
X97132734Y-59915568D01*
X97319139Y-59785047D01*
X97480047Y-59624139D01*
X97610568Y-59437734D01*
X97706739Y-59231496D01*
X97765635Y-59011692D01*
X97767970Y-58985000D01*
X100074532Y-58985000D01*
X100094365Y-59211692D01*
X100095762Y-59216907D01*
X100095764Y-59216916D01*
X100151858Y-59426263D01*
X100151861Y-59426271D01*
X100153261Y-59431496D01*
X100249432Y-59637734D01*
X100379953Y-59824139D01*
X100540861Y-59985047D01*
X100727266Y-60115568D01*
X100933504Y-60211739D01*
X100938734Y-60213140D01*
X100938736Y-60213141D01*
X101086959Y-60252857D01*
X101153308Y-60270635D01*
X101380000Y-60290468D01*
X101606692Y-60270635D01*
X101826496Y-60211739D01*
X102032734Y-60115568D01*
X102219139Y-59985047D01*
X102380047Y-59824139D01*
X102510568Y-59637734D01*
X102606739Y-59431496D01*
X102665635Y-59211692D01*
X102685468Y-58985000D01*
X102665635Y-58758308D01*
X102612160Y-58558736D01*
X102608141Y-58543736D01*
X102608140Y-58543734D01*
X102606739Y-58538504D01*
X102510568Y-58332266D01*
X102380047Y-58145861D01*
X102219139Y-57984953D01*
X102088188Y-57893261D01*
X102037173Y-57857540D01*
X102037171Y-57857539D01*
X102032734Y-57854432D01*
X101863572Y-57775550D01*
X101831405Y-57760550D01*
X101831403Y-57760549D01*
X101826496Y-57758261D01*
X101821271Y-57756861D01*
X101821263Y-57756858D01*
X101611916Y-57700764D01*
X101611907Y-57700762D01*
X101606692Y-57699365D01*
X101601304Y-57698893D01*
X101601301Y-57698893D01*
X101385395Y-57680004D01*
X101380000Y-57679532D01*
X101374605Y-57680004D01*
X101158698Y-57698893D01*
X101158693Y-57698893D01*
X101153308Y-57699365D01*
X101148094Y-57700762D01*
X101148083Y-57700764D01*
X100938736Y-57756858D01*
X100938724Y-57756862D01*
X100933504Y-57758261D01*
X100928599Y-57760547D01*
X100928594Y-57760550D01*
X100732176Y-57852142D01*
X100732172Y-57852144D01*
X100727266Y-57854432D01*
X100722833Y-57857535D01*
X100722826Y-57857540D01*
X100545296Y-57981847D01*
X100545291Y-57981850D01*
X100540861Y-57984953D01*
X100537037Y-57988776D01*
X100537031Y-57988782D01*
X100383782Y-58142031D01*
X100383776Y-58142037D01*
X100379953Y-58145861D01*
X100376850Y-58150291D01*
X100376847Y-58150296D01*
X100252540Y-58327826D01*
X100252535Y-58327833D01*
X100249432Y-58332266D01*
X100247144Y-58337172D01*
X100247142Y-58337176D01*
X100155550Y-58533594D01*
X100155547Y-58533599D01*
X100153261Y-58538504D01*
X100151862Y-58543724D01*
X100151858Y-58543736D01*
X100095764Y-58753083D01*
X100095762Y-58753094D01*
X100094365Y-58758308D01*
X100093893Y-58763693D01*
X100093893Y-58763698D01*
X100083011Y-58888083D01*
X100074532Y-58985000D01*
X97767970Y-58985000D01*
X97785468Y-58785000D01*
X97765635Y-58558308D01*
X97742556Y-58472176D01*
X97708141Y-58343736D01*
X97708140Y-58343734D01*
X97706739Y-58338504D01*
X97610568Y-58132266D01*
X97480047Y-57945861D01*
X97319139Y-57784953D01*
X97196906Y-57699365D01*
X97137173Y-57657540D01*
X97137171Y-57657539D01*
X97132734Y-57654432D01*
X96926496Y-57558261D01*
X96921271Y-57556861D01*
X96921263Y-57556858D01*
X96711916Y-57500764D01*
X96711907Y-57500762D01*
X96706692Y-57499365D01*
X96701304Y-57498893D01*
X96701301Y-57498893D01*
X96485395Y-57480004D01*
X96480000Y-57479532D01*
X96474605Y-57480004D01*
X96258698Y-57498893D01*
X96258693Y-57498893D01*
X96253308Y-57499365D01*
X96248094Y-57500762D01*
X96248083Y-57500764D01*
X96038736Y-57556858D01*
X96038724Y-57556862D01*
X96033504Y-57558261D01*
X96028599Y-57560547D01*
X96028594Y-57560550D01*
X95832176Y-57652142D01*
X95832172Y-57652144D01*
X95827266Y-57654432D01*
X95822833Y-57657535D01*
X95822826Y-57657540D01*
X95645296Y-57781847D01*
X95645291Y-57781850D01*
X95640861Y-57784953D01*
X95637037Y-57788776D01*
X95637031Y-57788782D01*
X95483782Y-57942031D01*
X95483776Y-57942037D01*
X95479953Y-57945861D01*
X95476850Y-57950291D01*
X95476847Y-57950296D01*
X95352540Y-58127826D01*
X95352535Y-58127833D01*
X95349432Y-58132266D01*
X95347144Y-58137172D01*
X95347142Y-58137176D01*
X95255550Y-58333594D01*
X95255547Y-58333599D01*
X95253261Y-58338504D01*
X95251862Y-58343724D01*
X95251858Y-58343736D01*
X95195764Y-58553083D01*
X95195762Y-58553094D01*
X95194365Y-58558308D01*
X95193893Y-58563693D01*
X95193893Y-58563698D01*
X95183829Y-58678736D01*
X95174532Y-58785000D01*
X82196614Y-58785000D01*
X82166739Y-58673504D01*
X82070568Y-58467266D01*
X81940047Y-58280861D01*
X81779139Y-58119953D01*
X81592734Y-57989432D01*
X81386496Y-57893261D01*
X81381271Y-57891861D01*
X81381263Y-57891858D01*
X81171916Y-57835764D01*
X81171907Y-57835762D01*
X81166692Y-57834365D01*
X81161304Y-57833893D01*
X81161301Y-57833893D01*
X80945395Y-57815004D01*
X80940000Y-57814532D01*
X80934605Y-57815004D01*
X80718698Y-57833893D01*
X80718693Y-57833893D01*
X80713308Y-57834365D01*
X80708094Y-57835762D01*
X80708083Y-57835764D01*
X80498736Y-57891858D01*
X80498724Y-57891862D01*
X80493504Y-57893261D01*
X80488599Y-57895547D01*
X80488594Y-57895550D01*
X80292176Y-57987142D01*
X80292172Y-57987144D01*
X80287266Y-57989432D01*
X80282833Y-57992535D01*
X80282826Y-57992540D01*
X80105296Y-58116847D01*
X80105291Y-58116850D01*
X80100861Y-58119953D01*
X80097037Y-58123776D01*
X80097031Y-58123782D01*
X79943782Y-58277031D01*
X79943776Y-58277037D01*
X79939953Y-58280861D01*
X79936850Y-58285291D01*
X79936847Y-58285296D01*
X79812540Y-58462826D01*
X79812535Y-58462833D01*
X79809432Y-58467266D01*
X79807144Y-58472172D01*
X79807142Y-58472176D01*
X79715550Y-58668594D01*
X79715547Y-58668599D01*
X79713261Y-58673504D01*
X79711862Y-58678724D01*
X79711858Y-58678736D01*
X79655764Y-58888083D01*
X79655762Y-58888094D01*
X79654365Y-58893308D01*
X79653893Y-58898693D01*
X79653893Y-58898698D01*
X79635004Y-59114605D01*
X79634532Y-59120000D01*
X78244969Y-59120000D01*
X78255468Y-59000000D01*
X78235635Y-58773308D01*
X78207577Y-58668594D01*
X78178141Y-58558736D01*
X78178140Y-58558734D01*
X78176739Y-58553504D01*
X78080568Y-58347266D01*
X77950047Y-58160861D01*
X77789139Y-57999953D01*
X77602734Y-57869432D01*
X77429781Y-57788782D01*
X77401405Y-57775550D01*
X77401403Y-57775549D01*
X77396496Y-57773261D01*
X77391271Y-57771861D01*
X77391263Y-57771858D01*
X77181916Y-57715764D01*
X77181907Y-57715762D01*
X77176692Y-57714365D01*
X77171304Y-57713893D01*
X77171301Y-57713893D01*
X76955395Y-57695004D01*
X76950000Y-57694532D01*
X76944605Y-57695004D01*
X76728698Y-57713893D01*
X76728693Y-57713893D01*
X76723308Y-57714365D01*
X76718094Y-57715762D01*
X76718083Y-57715764D01*
X76508736Y-57771858D01*
X76508724Y-57771862D01*
X76503504Y-57773261D01*
X76498599Y-57775547D01*
X76498594Y-57775550D01*
X76302176Y-57867142D01*
X76302172Y-57867144D01*
X76297266Y-57869432D01*
X76292833Y-57872535D01*
X76292826Y-57872540D01*
X76115296Y-57996847D01*
X76115291Y-57996850D01*
X76110861Y-57999953D01*
X76107037Y-58003776D01*
X76107031Y-58003782D01*
X75953782Y-58157031D01*
X75953776Y-58157037D01*
X75949953Y-58160861D01*
X75946850Y-58165291D01*
X75946847Y-58165296D01*
X75822540Y-58342826D01*
X75822535Y-58342833D01*
X75819432Y-58347266D01*
X75817144Y-58352172D01*
X75817142Y-58352176D01*
X75725550Y-58548594D01*
X75725547Y-58548599D01*
X75723261Y-58553504D01*
X75721862Y-58558724D01*
X75721858Y-58558736D01*
X75665764Y-58768083D01*
X75665762Y-58768094D01*
X75664365Y-58773308D01*
X75644532Y-59000000D01*
X73533462Y-59000000D01*
X73537223Y-52307600D01*
X78267000Y-52307600D01*
X78267211Y-52310150D01*
X78267212Y-52310166D01*
X78281480Y-52482356D01*
X78281481Y-52482364D01*
X78281905Y-52487476D01*
X78283162Y-52492443D01*
X78283164Y-52492450D01*
X78317327Y-52627356D01*
X78341017Y-52720905D01*
X78343077Y-52725601D01*
X78435685Y-52936727D01*
X78435688Y-52936732D01*
X78437745Y-52941422D01*
X78503597Y-53042216D01*
X78566647Y-53138722D01*
X78566650Y-53138726D01*
X78569449Y-53143010D01*
X78572914Y-53146774D01*
X78572918Y-53146779D01*
X78689150Y-53273040D01*
X78732537Y-53320171D01*
X78736583Y-53323320D01*
X78736584Y-53323321D01*
X78788048Y-53363377D01*
X78922561Y-53468072D01*
X79134336Y-53582679D01*
X79362087Y-53660866D01*
X79599601Y-53700500D01*
X79835266Y-53700500D01*
X79840399Y-53700500D01*
X80077913Y-53660866D01*
X80305664Y-53582679D01*
X80517439Y-53468072D01*
X80707463Y-53320171D01*
X80870551Y-53143010D01*
X80886490Y-53118614D01*
X80931279Y-53077381D01*
X80990297Y-53062435D01*
X81049315Y-53077380D01*
X81094107Y-53118614D01*
X81107039Y-53138409D01*
X81113314Y-53146471D01*
X81269408Y-53316033D01*
X81276918Y-53322946D01*
X81458787Y-53464501D01*
X81467345Y-53470093D01*
X81670031Y-53579780D01*
X81679386Y-53583883D01*
X81897357Y-53658713D01*
X81907268Y-53661224D01*
X81996679Y-53676144D01*
X82007636Y-53675577D01*
X82010000Y-53664860D01*
X82510000Y-53664860D01*
X82512363Y-53675577D01*
X82523320Y-53676144D01*
X82612731Y-53661224D01*
X82622642Y-53658713D01*
X82840613Y-53583883D01*
X82849968Y-53579780D01*
X83052654Y-53470093D01*
X83061211Y-53464502D01*
X83199746Y-53356675D01*
X83252174Y-53332821D01*
X83309724Y-53335228D01*
X83359978Y-53363377D01*
X83392091Y-53411195D01*
X83403704Y-53442331D01*
X83409018Y-53449430D01*
X83409019Y-53449431D01*
X83424799Y-53470511D01*
X83489954Y-53557546D01*
X83605169Y-53643796D01*
X83740017Y-53694091D01*
X83799627Y-53700500D01*
X85800372Y-53700499D01*
X85859983Y-53694091D01*
X85994831Y-53643796D01*
X86110046Y-53557546D01*
X86196296Y-53442331D01*
X86246591Y-53307483D01*
X86253000Y-53247873D01*
X86253000Y-52452600D01*
X90727000Y-52452600D01*
X90727211Y-52455150D01*
X90727212Y-52455166D01*
X90741480Y-52627356D01*
X90741481Y-52627364D01*
X90741905Y-52632476D01*
X90743162Y-52637443D01*
X90743164Y-52637450D01*
X90763039Y-52715934D01*
X90801017Y-52865905D01*
X90803077Y-52870601D01*
X90895685Y-53081727D01*
X90895688Y-53081732D01*
X90897745Y-53086422D01*
X90934716Y-53143010D01*
X91026647Y-53283722D01*
X91026650Y-53283726D01*
X91029449Y-53288010D01*
X91032914Y-53291774D01*
X91032918Y-53291779D01*
X91098829Y-53363377D01*
X91192537Y-53465171D01*
X91196583Y-53468320D01*
X91196584Y-53468321D01*
X91248048Y-53508377D01*
X91382561Y-53613072D01*
X91594336Y-53727679D01*
X91822087Y-53805866D01*
X92059601Y-53845500D01*
X92295266Y-53845500D01*
X92300399Y-53845500D01*
X92537913Y-53805866D01*
X92765664Y-53727679D01*
X92977439Y-53613072D01*
X93167463Y-53465171D01*
X93330551Y-53288010D01*
X93346490Y-53263614D01*
X93391279Y-53222381D01*
X93450297Y-53207435D01*
X93509315Y-53222380D01*
X93554107Y-53263614D01*
X93567039Y-53283409D01*
X93573314Y-53291471D01*
X93729408Y-53461033D01*
X93736918Y-53467946D01*
X93918787Y-53609501D01*
X93927345Y-53615093D01*
X94130031Y-53724780D01*
X94139386Y-53728883D01*
X94357357Y-53803713D01*
X94367268Y-53806224D01*
X94456679Y-53821144D01*
X94467636Y-53820577D01*
X94470000Y-53809860D01*
X94970000Y-53809860D01*
X94972363Y-53820577D01*
X94983320Y-53821144D01*
X95072731Y-53806224D01*
X95082642Y-53803713D01*
X95300613Y-53728883D01*
X95309968Y-53724780D01*
X95512654Y-53615093D01*
X95521211Y-53609502D01*
X95659746Y-53501675D01*
X95712174Y-53477821D01*
X95769724Y-53480228D01*
X95819978Y-53508377D01*
X95852091Y-53556195D01*
X95863704Y-53587331D01*
X95869018Y-53594430D01*
X95869019Y-53594431D01*
X95943624Y-53694091D01*
X95949954Y-53702546D01*
X96065169Y-53788796D01*
X96200017Y-53839091D01*
X96259627Y-53845500D01*
X98260372Y-53845499D01*
X98319983Y-53839091D01*
X98454831Y-53788796D01*
X98570046Y-53702546D01*
X98656296Y-53587331D01*
X98706591Y-53452483D01*
X98713000Y-53392873D01*
X98712999Y-51297128D01*
X98706591Y-51237517D01*
X98656296Y-51102669D01*
X98570046Y-50987454D01*
X98541360Y-50965980D01*
X98461931Y-50906519D01*
X98461930Y-50906518D01*
X98454831Y-50901204D01*
X98319983Y-50850909D01*
X98312270Y-50850079D01*
X98312267Y-50850079D01*
X98263680Y-50844855D01*
X98263669Y-50844854D01*
X98260373Y-50844500D01*
X98257050Y-50844500D01*
X96262939Y-50844500D01*
X96262920Y-50844500D01*
X96259628Y-50844501D01*
X96256350Y-50844853D01*
X96256338Y-50844854D01*
X96207731Y-50850079D01*
X96207725Y-50850080D01*
X96200017Y-50850909D01*
X96192752Y-50853618D01*
X96192746Y-50853620D01*
X96073480Y-50898104D01*
X96073478Y-50898104D01*
X96065169Y-50901204D01*
X96058072Y-50906516D01*
X96058068Y-50906519D01*
X95957050Y-50982141D01*
X95957046Y-50982144D01*
X95949954Y-50987454D01*
X95944644Y-50994546D01*
X95944641Y-50994550D01*
X95869019Y-51095568D01*
X95869016Y-51095572D01*
X95863704Y-51102669D01*
X95860606Y-51110974D01*
X95860601Y-51110984D01*
X95852090Y-51133805D01*
X95819977Y-51181622D01*
X95769724Y-51209771D01*
X95712174Y-51212178D01*
X95659746Y-51188324D01*
X95521212Y-51080498D01*
X95512654Y-51074906D01*
X95309968Y-50965219D01*
X95300613Y-50961116D01*
X95082642Y-50886286D01*
X95072731Y-50883775D01*
X94983320Y-50868855D01*
X94972363Y-50869422D01*
X94970000Y-50880140D01*
X94970000Y-53809860D01*
X94470000Y-53809860D01*
X94470000Y-50880140D01*
X94467636Y-50869422D01*
X94456679Y-50868855D01*
X94367268Y-50883775D01*
X94357357Y-50886286D01*
X94139386Y-50961116D01*
X94130031Y-50965219D01*
X93927345Y-51074906D01*
X93918787Y-51080498D01*
X93736918Y-51222053D01*
X93729408Y-51228966D01*
X93573315Y-51398527D01*
X93567041Y-51406589D01*
X93554105Y-51426389D01*
X93509313Y-51467621D01*
X93450295Y-51482565D01*
X93391278Y-51467618D01*
X93346488Y-51426384D01*
X93333359Y-51406288D01*
X93330551Y-51401990D01*
X93167463Y-51224829D01*
X93148116Y-51209771D01*
X92981485Y-51080077D01*
X92981484Y-51080076D01*
X92977439Y-51076928D01*
X92825218Y-50994550D01*
X92770168Y-50964758D01*
X92770163Y-50964756D01*
X92765664Y-50962321D01*
X92760818Y-50960657D01*
X92760815Y-50960656D01*
X92542766Y-50885800D01*
X92542765Y-50885799D01*
X92537913Y-50884134D01*
X92532863Y-50883291D01*
X92532854Y-50883289D01*
X92305461Y-50845344D01*
X92305452Y-50845343D01*
X92300399Y-50844500D01*
X92059601Y-50844500D01*
X92054548Y-50845343D01*
X92054538Y-50845344D01*
X91827145Y-50883289D01*
X91827133Y-50883291D01*
X91822087Y-50884134D01*
X91817237Y-50885798D01*
X91817233Y-50885800D01*
X91599184Y-50960656D01*
X91599176Y-50960659D01*
X91594336Y-50962321D01*
X91589840Y-50964753D01*
X91589831Y-50964758D01*
X91387069Y-51074488D01*
X91387065Y-51074490D01*
X91382561Y-51076928D01*
X91378521Y-51080072D01*
X91378514Y-51080077D01*
X91196584Y-51221678D01*
X91196576Y-51221685D01*
X91192537Y-51224829D01*
X91189067Y-51228597D01*
X91189063Y-51228602D01*
X91032918Y-51398220D01*
X91032909Y-51398230D01*
X91029449Y-51401990D01*
X91026654Y-51406267D01*
X91026647Y-51406277D01*
X90900547Y-51599289D01*
X90897745Y-51603578D01*
X90895690Y-51608262D01*
X90895685Y-51608272D01*
X90803077Y-51819398D01*
X90801017Y-51824095D01*
X90799759Y-51829060D01*
X90799758Y-51829065D01*
X90743164Y-52052549D01*
X90743162Y-52052558D01*
X90741905Y-52057524D01*
X90741481Y-52062633D01*
X90741480Y-52062643D01*
X90727212Y-52234833D01*
X90727211Y-52234850D01*
X90727000Y-52237400D01*
X90727000Y-52452600D01*
X86253000Y-52452600D01*
X86252999Y-51152128D01*
X86246591Y-51092517D01*
X86196296Y-50957669D01*
X86110046Y-50842454D01*
X85994831Y-50756204D01*
X85859983Y-50705909D01*
X85852270Y-50705079D01*
X85852267Y-50705079D01*
X85803680Y-50699855D01*
X85803669Y-50699854D01*
X85800373Y-50699500D01*
X85797050Y-50699500D01*
X83802939Y-50699500D01*
X83802920Y-50699500D01*
X83799628Y-50699501D01*
X83796350Y-50699853D01*
X83796338Y-50699854D01*
X83747731Y-50705079D01*
X83747725Y-50705080D01*
X83740017Y-50705909D01*
X83732752Y-50708618D01*
X83732746Y-50708620D01*
X83613480Y-50753104D01*
X83613478Y-50753104D01*
X83605169Y-50756204D01*
X83598072Y-50761516D01*
X83598068Y-50761519D01*
X83497050Y-50837141D01*
X83497046Y-50837144D01*
X83489954Y-50842454D01*
X83484644Y-50849546D01*
X83484641Y-50849550D01*
X83409019Y-50950568D01*
X83409016Y-50950572D01*
X83403704Y-50957669D01*
X83400606Y-50965974D01*
X83400601Y-50965984D01*
X83392090Y-50988805D01*
X83359977Y-51036622D01*
X83309724Y-51064771D01*
X83252174Y-51067178D01*
X83199746Y-51043324D01*
X83061212Y-50935498D01*
X83052654Y-50929906D01*
X82849968Y-50820219D01*
X82840613Y-50816116D01*
X82622642Y-50741286D01*
X82612731Y-50738775D01*
X82523320Y-50723855D01*
X82512363Y-50724422D01*
X82510000Y-50735140D01*
X82510000Y-53664860D01*
X82010000Y-53664860D01*
X82010000Y-50735140D01*
X82007636Y-50724422D01*
X81996679Y-50723855D01*
X81907268Y-50738775D01*
X81897357Y-50741286D01*
X81679386Y-50816116D01*
X81670031Y-50820219D01*
X81467345Y-50929906D01*
X81458787Y-50935498D01*
X81276918Y-51077053D01*
X81269408Y-51083966D01*
X81113315Y-51253527D01*
X81107041Y-51261589D01*
X81094105Y-51281389D01*
X81049313Y-51322621D01*
X80990295Y-51337565D01*
X80931278Y-51322618D01*
X80886488Y-51281384D01*
X80873359Y-51261288D01*
X80870551Y-51256990D01*
X80707463Y-51079829D01*
X80688116Y-51064771D01*
X80521485Y-50935077D01*
X80521484Y-50935076D01*
X80517439Y-50931928D01*
X80401938Y-50869422D01*
X80310168Y-50819758D01*
X80310163Y-50819756D01*
X80305664Y-50817321D01*
X80300818Y-50815657D01*
X80300815Y-50815656D01*
X80082766Y-50740800D01*
X80082765Y-50740799D01*
X80077913Y-50739134D01*
X80072863Y-50738291D01*
X80072854Y-50738289D01*
X79845461Y-50700344D01*
X79845452Y-50700343D01*
X79840399Y-50699500D01*
X79599601Y-50699500D01*
X79594548Y-50700343D01*
X79594538Y-50700344D01*
X79367145Y-50738289D01*
X79367133Y-50738291D01*
X79362087Y-50739134D01*
X79357237Y-50740798D01*
X79357233Y-50740800D01*
X79139184Y-50815656D01*
X79139176Y-50815659D01*
X79134336Y-50817321D01*
X79129840Y-50819753D01*
X79129831Y-50819758D01*
X78927069Y-50929488D01*
X78927065Y-50929490D01*
X78922561Y-50931928D01*
X78918521Y-50935072D01*
X78918514Y-50935077D01*
X78736584Y-51076678D01*
X78736576Y-51076685D01*
X78732537Y-51079829D01*
X78729067Y-51083597D01*
X78729063Y-51083602D01*
X78572918Y-51253220D01*
X78572909Y-51253230D01*
X78569449Y-51256990D01*
X78566654Y-51261267D01*
X78566647Y-51261277D01*
X78471711Y-51406589D01*
X78437745Y-51458578D01*
X78435690Y-51463262D01*
X78435685Y-51463272D01*
X78343077Y-51674398D01*
X78341017Y-51679095D01*
X78339759Y-51684060D01*
X78339758Y-51684065D01*
X78283164Y-51907549D01*
X78283162Y-51907558D01*
X78281905Y-51912524D01*
X78281481Y-51917633D01*
X78281480Y-51917643D01*
X78267212Y-52089833D01*
X78267211Y-52089850D01*
X78267000Y-52092400D01*
X78267000Y-52307600D01*
X73537223Y-52307600D01*
X73539754Y-47802551D01*
X77014452Y-47802551D01*
X77014820Y-47813780D01*
X77062330Y-47991092D01*
X77066022Y-48001234D01*
X77157579Y-48197580D01*
X77162967Y-48206912D01*
X77287232Y-48384381D01*
X77294169Y-48392647D01*
X77447352Y-48545830D01*
X77455618Y-48552767D01*
X77633087Y-48677032D01*
X77642419Y-48682420D01*
X77838765Y-48773977D01*
X77848907Y-48777669D01*
X78026219Y-48825179D01*
X78037448Y-48825547D01*
X78040000Y-48814605D01*
X78540000Y-48814605D01*
X78542551Y-48825547D01*
X78553780Y-48825179D01*
X78731092Y-48777669D01*
X78741234Y-48773977D01*
X78937580Y-48682420D01*
X78946912Y-48677032D01*
X79124381Y-48552767D01*
X79132647Y-48545830D01*
X79285830Y-48392647D01*
X79292767Y-48384381D01*
X79417032Y-48206912D01*
X79422420Y-48197580D01*
X79513977Y-48001234D01*
X79517669Y-47991092D01*
X79565179Y-47813780D01*
X79565547Y-47802551D01*
X79554605Y-47800000D01*
X78556326Y-47800000D01*
X78543450Y-47803450D01*
X78540000Y-47816326D01*
X78540000Y-48814605D01*
X78040000Y-48814605D01*
X78040000Y-47816326D01*
X78036549Y-47803450D01*
X78023674Y-47800000D01*
X77025395Y-47800000D01*
X77014452Y-47802551D01*
X73539754Y-47802551D01*
X73539896Y-47550000D01*
X84604532Y-47550000D01*
X84624365Y-47776692D01*
X84625762Y-47781907D01*
X84625764Y-47781916D01*
X84681858Y-47991263D01*
X84681861Y-47991271D01*
X84683261Y-47996496D01*
X84779432Y-48202734D01*
X84909953Y-48389139D01*
X85070861Y-48550047D01*
X85257266Y-48680568D01*
X85463504Y-48776739D01*
X85468734Y-48778140D01*
X85468736Y-48778141D01*
X85644285Y-48825179D01*
X85683308Y-48835635D01*
X85910000Y-48855468D01*
X86136692Y-48835635D01*
X86356496Y-48776739D01*
X86562734Y-48680568D01*
X86749139Y-48550047D01*
X86910047Y-48389139D01*
X87040568Y-48202734D01*
X87136739Y-47996496D01*
X87190046Y-47797551D01*
X89764452Y-47797551D01*
X89764820Y-47808780D01*
X89812330Y-47986092D01*
X89816022Y-47996234D01*
X89907579Y-48192580D01*
X89912967Y-48201912D01*
X90037232Y-48379381D01*
X90044169Y-48387647D01*
X90197352Y-48540830D01*
X90205618Y-48547767D01*
X90383087Y-48672032D01*
X90392419Y-48677420D01*
X90588765Y-48768977D01*
X90598907Y-48772669D01*
X90776219Y-48820179D01*
X90787448Y-48820547D01*
X90790000Y-48809605D01*
X91290000Y-48809605D01*
X91292551Y-48820547D01*
X91303780Y-48820179D01*
X91481092Y-48772669D01*
X91491234Y-48768977D01*
X91687580Y-48677420D01*
X91696912Y-48672032D01*
X91874381Y-48547767D01*
X91882647Y-48540830D01*
X92035830Y-48387647D01*
X92042767Y-48379381D01*
X92167032Y-48201912D01*
X92172420Y-48192580D01*
X92263977Y-47996234D01*
X92267669Y-47986092D01*
X92315179Y-47808780D01*
X92315547Y-47797551D01*
X92304605Y-47795000D01*
X91306326Y-47795000D01*
X91293450Y-47798450D01*
X91290000Y-47811326D01*
X91290000Y-48809605D01*
X90790000Y-48809605D01*
X90790000Y-47811326D01*
X90786549Y-47798450D01*
X90773674Y-47795000D01*
X89775395Y-47795000D01*
X89764452Y-47797551D01*
X87190046Y-47797551D01*
X87195635Y-47776692D01*
X87215468Y-47550000D01*
X87215031Y-47545000D01*
X97354532Y-47545000D01*
X97374365Y-47771692D01*
X97375762Y-47776907D01*
X97375764Y-47776916D01*
X97431858Y-47986263D01*
X97431861Y-47986271D01*
X97433261Y-47991496D01*
X97435549Y-47996403D01*
X97435550Y-47996405D01*
X97437802Y-48001234D01*
X97529432Y-48197734D01*
X97659953Y-48384139D01*
X97820861Y-48545047D01*
X98007266Y-48675568D01*
X98213504Y-48771739D01*
X98218734Y-48773140D01*
X98218736Y-48773141D01*
X98373483Y-48814605D01*
X98433308Y-48830635D01*
X98660000Y-48850468D01*
X98886692Y-48830635D01*
X99106496Y-48771739D01*
X99312734Y-48675568D01*
X99499139Y-48545047D01*
X99660047Y-48384139D01*
X99790568Y-48197734D01*
X99886739Y-47991496D01*
X99945635Y-47771692D01*
X99965468Y-47545000D01*
X99945635Y-47318308D01*
X99935015Y-47278674D01*
X99888141Y-47103736D01*
X99888140Y-47103734D01*
X99886739Y-47098504D01*
X99790568Y-46892266D01*
X99660047Y-46705861D01*
X99499139Y-46544953D01*
X99437224Y-46501600D01*
X99317173Y-46417540D01*
X99317171Y-46417539D01*
X99312734Y-46414432D01*
X99248145Y-46384313D01*
X99111405Y-46320550D01*
X99111403Y-46320549D01*
X99106496Y-46318261D01*
X99101271Y-46316861D01*
X99101263Y-46316858D01*
X98891916Y-46260764D01*
X98891907Y-46260762D01*
X98886692Y-46259365D01*
X98881304Y-46258893D01*
X98881301Y-46258893D01*
X98665395Y-46240004D01*
X98660000Y-46239532D01*
X98654605Y-46240004D01*
X98438698Y-46258893D01*
X98438693Y-46258893D01*
X98433308Y-46259365D01*
X98428094Y-46260762D01*
X98428083Y-46260764D01*
X98218736Y-46316858D01*
X98218724Y-46316862D01*
X98213504Y-46318261D01*
X98208599Y-46320547D01*
X98208594Y-46320550D01*
X98012176Y-46412142D01*
X98012172Y-46412144D01*
X98007266Y-46414432D01*
X98002833Y-46417535D01*
X98002826Y-46417540D01*
X97825296Y-46541847D01*
X97825291Y-46541850D01*
X97820861Y-46544953D01*
X97817037Y-46548776D01*
X97817031Y-46548782D01*
X97663782Y-46702031D01*
X97663776Y-46702037D01*
X97659953Y-46705861D01*
X97656850Y-46710291D01*
X97656847Y-46710296D01*
X97532540Y-46887826D01*
X97532535Y-46887833D01*
X97529432Y-46892266D01*
X97527144Y-46897172D01*
X97527142Y-46897176D01*
X97435550Y-47093594D01*
X97435547Y-47093599D01*
X97433261Y-47098504D01*
X97431862Y-47103724D01*
X97431858Y-47103736D01*
X97375764Y-47313083D01*
X97375762Y-47313094D01*
X97374365Y-47318308D01*
X97354532Y-47545000D01*
X87215031Y-47545000D01*
X87195635Y-47323308D01*
X87187366Y-47292448D01*
X89764452Y-47292448D01*
X89775395Y-47295000D01*
X90773674Y-47295000D01*
X90786549Y-47291549D01*
X90790000Y-47278674D01*
X91290000Y-47278674D01*
X91293450Y-47291549D01*
X91306326Y-47295000D01*
X92304605Y-47295000D01*
X92315547Y-47292448D01*
X92315179Y-47281219D01*
X92267669Y-47103907D01*
X92263977Y-47093765D01*
X92172420Y-46897419D01*
X92167032Y-46888087D01*
X92042767Y-46710618D01*
X92035830Y-46702352D01*
X91882647Y-46549169D01*
X91874381Y-46542232D01*
X91696912Y-46417967D01*
X91687580Y-46412579D01*
X91491234Y-46321022D01*
X91481092Y-46317330D01*
X91303780Y-46269820D01*
X91292551Y-46269452D01*
X91290000Y-46280395D01*
X91290000Y-47278674D01*
X90790000Y-47278674D01*
X90790000Y-46280395D01*
X90787448Y-46269452D01*
X90776219Y-46269820D01*
X90598907Y-46317330D01*
X90588765Y-46321022D01*
X90392419Y-46412579D01*
X90383087Y-46417967D01*
X90205618Y-46542232D01*
X90197352Y-46549169D01*
X90044169Y-46702352D01*
X90037232Y-46710618D01*
X89912967Y-46888087D01*
X89907579Y-46897419D01*
X89816022Y-47093765D01*
X89812330Y-47103907D01*
X89764820Y-47281219D01*
X89764452Y-47292448D01*
X87187366Y-47292448D01*
X87136739Y-47103504D01*
X87040568Y-46897266D01*
X86910047Y-46710861D01*
X86749139Y-46549953D01*
X86562734Y-46419432D01*
X86356496Y-46323261D01*
X86351271Y-46321861D01*
X86351263Y-46321858D01*
X86141916Y-46265764D01*
X86141907Y-46265762D01*
X86136692Y-46264365D01*
X86131304Y-46263893D01*
X86131301Y-46263893D01*
X85915395Y-46245004D01*
X85910000Y-46244532D01*
X85904605Y-46245004D01*
X85688698Y-46263893D01*
X85688693Y-46263893D01*
X85683308Y-46264365D01*
X85678094Y-46265762D01*
X85678083Y-46265764D01*
X85468736Y-46321858D01*
X85468724Y-46321862D01*
X85463504Y-46323261D01*
X85458599Y-46325547D01*
X85458594Y-46325550D01*
X85262176Y-46417142D01*
X85262172Y-46417144D01*
X85257266Y-46419432D01*
X85252833Y-46422535D01*
X85252826Y-46422540D01*
X85075296Y-46546847D01*
X85075291Y-46546850D01*
X85070861Y-46549953D01*
X85067037Y-46553776D01*
X85067031Y-46553782D01*
X84913782Y-46707031D01*
X84913776Y-46707037D01*
X84909953Y-46710861D01*
X84906850Y-46715291D01*
X84906847Y-46715296D01*
X84782540Y-46892826D01*
X84782535Y-46892833D01*
X84779432Y-46897266D01*
X84777144Y-46902172D01*
X84777142Y-46902176D01*
X84685550Y-47098594D01*
X84685547Y-47098599D01*
X84683261Y-47103504D01*
X84681862Y-47108724D01*
X84681858Y-47108736D01*
X84625764Y-47318083D01*
X84625762Y-47318094D01*
X84624365Y-47323308D01*
X84604532Y-47550000D01*
X73539896Y-47550000D01*
X73540038Y-47297448D01*
X77014452Y-47297448D01*
X77025395Y-47300000D01*
X78023674Y-47300000D01*
X78036549Y-47296549D01*
X78040000Y-47283674D01*
X78540000Y-47283674D01*
X78543450Y-47296549D01*
X78556326Y-47300000D01*
X79554605Y-47300000D01*
X79565547Y-47297448D01*
X79565179Y-47286219D01*
X79517669Y-47108907D01*
X79513977Y-47098765D01*
X79422420Y-46902419D01*
X79417032Y-46893087D01*
X79292767Y-46715618D01*
X79285830Y-46707352D01*
X79132647Y-46554169D01*
X79124381Y-46547232D01*
X78946912Y-46422967D01*
X78937580Y-46417579D01*
X78741234Y-46326022D01*
X78731092Y-46322330D01*
X78553780Y-46274820D01*
X78542551Y-46274452D01*
X78540000Y-46285395D01*
X78540000Y-47283674D01*
X78040000Y-47283674D01*
X78040000Y-46285395D01*
X78037448Y-46274452D01*
X78026219Y-46274820D01*
X77848907Y-46322330D01*
X77838765Y-46326022D01*
X77642419Y-46417579D01*
X77633087Y-46422967D01*
X77455618Y-46547232D01*
X77447352Y-46554169D01*
X77294169Y-46707352D01*
X77287232Y-46715618D01*
X77162967Y-46893087D01*
X77157579Y-46902419D01*
X77066022Y-47098765D01*
X77062330Y-47108907D01*
X77014820Y-47286219D01*
X77014452Y-47297448D01*
X73540038Y-47297448D01*
X73543164Y-41735000D01*
X80894700Y-41735000D01*
X80895124Y-41740117D01*
X80913441Y-41961186D01*
X80913442Y-41961195D01*
X80913866Y-41966305D01*
X80915123Y-41971272D01*
X80915125Y-41971279D01*
X80927787Y-42021279D01*
X80970843Y-42191300D01*
X80972903Y-42195996D01*
X81062016Y-42399154D01*
X81062019Y-42399159D01*
X81064076Y-42403849D01*
X81093675Y-42449154D01*
X81188219Y-42593865D01*
X81188222Y-42593869D01*
X81191021Y-42598153D01*
X81194491Y-42601922D01*
X81285801Y-42701112D01*
X81314574Y-42753865D01*
X81315167Y-42813951D01*
X81287440Y-42867261D01*
X81237906Y-42901276D01*
X81165982Y-42928102D01*
X81165973Y-42928106D01*
X81157669Y-42931204D01*
X81150572Y-42936516D01*
X81150568Y-42936519D01*
X81049550Y-43012141D01*
X81049546Y-43012144D01*
X81042454Y-43017454D01*
X81037144Y-43024546D01*
X81037141Y-43024550D01*
X80961519Y-43125568D01*
X80961516Y-43125572D01*
X80956204Y-43132669D01*
X80953104Y-43140978D01*
X80953104Y-43140980D01*
X80908620Y-43260247D01*
X80908619Y-43260250D01*
X80905909Y-43267517D01*
X80905079Y-43275227D01*
X80905079Y-43275232D01*
X80899855Y-43323819D01*
X80899854Y-43323831D01*
X80899500Y-43327127D01*
X80899500Y-43330448D01*
X80899500Y-43330449D01*
X80899500Y-45219560D01*
X80899500Y-45219578D01*
X80899501Y-45222872D01*
X80899853Y-45226150D01*
X80899854Y-45226161D01*
X80905079Y-45274768D01*
X80905080Y-45274773D01*
X80905909Y-45282483D01*
X80908619Y-45289749D01*
X80908620Y-45289753D01*
X80927269Y-45339752D01*
X80956204Y-45417331D01*
X81042454Y-45532546D01*
X81157669Y-45618796D01*
X81292517Y-45669091D01*
X81352127Y-45675500D01*
X83247872Y-45675499D01*
X83307483Y-45669091D01*
X83442331Y-45618796D01*
X83557546Y-45532546D01*
X83643796Y-45417331D01*
X83694091Y-45282483D01*
X83700500Y-45222873D01*
X83700499Y-43327128D01*
X83694091Y-43267517D01*
X83643796Y-43132669D01*
X83557546Y-43017454D01*
X83442331Y-42931204D01*
X83403083Y-42916565D01*
X83362094Y-42901277D01*
X83312559Y-42867261D01*
X83284832Y-42813951D01*
X83285425Y-42753865D01*
X83314196Y-42701114D01*
X83408979Y-42598153D01*
X83535924Y-42403849D01*
X83629157Y-42191300D01*
X83686134Y-41966305D01*
X83701157Y-41785000D01*
X93744700Y-41785000D01*
X93745124Y-41790117D01*
X93763441Y-42011186D01*
X93763442Y-42011195D01*
X93763866Y-42016305D01*
X93765123Y-42021272D01*
X93765125Y-42021279D01*
X93806922Y-42186329D01*
X93820843Y-42241300D01*
X93822903Y-42245996D01*
X93912016Y-42449154D01*
X93912019Y-42449159D01*
X93914076Y-42453849D01*
X93977548Y-42551000D01*
X94038219Y-42643865D01*
X94038222Y-42643869D01*
X94041021Y-42648153D01*
X94044491Y-42651922D01*
X94135801Y-42751112D01*
X94164574Y-42803865D01*
X94165167Y-42863951D01*
X94137440Y-42917261D01*
X94087906Y-42951276D01*
X94015982Y-42978102D01*
X94015973Y-42978106D01*
X94007669Y-42981204D01*
X94000572Y-42986516D01*
X94000568Y-42986519D01*
X93899550Y-43062141D01*
X93899546Y-43062144D01*
X93892454Y-43067454D01*
X93887144Y-43074546D01*
X93887141Y-43074550D01*
X93811519Y-43175568D01*
X93811516Y-43175572D01*
X93806204Y-43182669D01*
X93803104Y-43190978D01*
X93803104Y-43190980D01*
X93758620Y-43310247D01*
X93758619Y-43310250D01*
X93755909Y-43317517D01*
X93755079Y-43325227D01*
X93755079Y-43325232D01*
X93749855Y-43373819D01*
X93749854Y-43373831D01*
X93749500Y-43377127D01*
X93749500Y-43380448D01*
X93749500Y-43380449D01*
X93749500Y-45269560D01*
X93749500Y-45269578D01*
X93749501Y-45272872D01*
X93749853Y-45276150D01*
X93749854Y-45276161D01*
X93755079Y-45324768D01*
X93755080Y-45324773D01*
X93755909Y-45332483D01*
X93758619Y-45339749D01*
X93758620Y-45339753D01*
X93784455Y-45409019D01*
X93806204Y-45467331D01*
X93811518Y-45474430D01*
X93811519Y-45474431D01*
X93859000Y-45537858D01*
X93892454Y-45582546D01*
X94007669Y-45668796D01*
X94142517Y-45719091D01*
X94202127Y-45725500D01*
X96097872Y-45725499D01*
X96157483Y-45719091D01*
X96292331Y-45668796D01*
X96407546Y-45582546D01*
X96493796Y-45467331D01*
X96544091Y-45332483D01*
X96550500Y-45272873D01*
X96550499Y-43377128D01*
X96544091Y-43317517D01*
X96493796Y-43182669D01*
X96407546Y-43067454D01*
X96333657Y-43012141D01*
X96299431Y-42986519D01*
X96299430Y-42986518D01*
X96292331Y-42981204D01*
X96253083Y-42966565D01*
X96212094Y-42951277D01*
X96162559Y-42917261D01*
X96134832Y-42863951D01*
X96135425Y-42803865D01*
X96164196Y-42751114D01*
X96258979Y-42648153D01*
X96385924Y-42453849D01*
X96479157Y-42241300D01*
X96536134Y-42016305D01*
X96555300Y-41785000D01*
X96536134Y-41553695D01*
X96479157Y-41328700D01*
X96385924Y-41116151D01*
X96258979Y-40921847D01*
X96101784Y-40751087D01*
X96042391Y-40704860D01*
X95922672Y-40611679D01*
X95922671Y-40611678D01*
X95918626Y-40608530D01*
X95821726Y-40556090D01*
X95719007Y-40500501D01*
X95719002Y-40500499D01*
X95714503Y-40498064D01*
X95709657Y-40496400D01*
X95709654Y-40496399D01*
X95499834Y-40424368D01*
X95499833Y-40424367D01*
X95494981Y-40422702D01*
X95489931Y-40421859D01*
X95489922Y-40421857D01*
X95271111Y-40385344D01*
X95271102Y-40385343D01*
X95266049Y-40384500D01*
X95033951Y-40384500D01*
X95028898Y-40385343D01*
X95028888Y-40385344D01*
X94810077Y-40421857D01*
X94810065Y-40421859D01*
X94805019Y-40422702D01*
X94800169Y-40424366D01*
X94800165Y-40424368D01*
X94590345Y-40496399D01*
X94590337Y-40496402D01*
X94585497Y-40498064D01*
X94581001Y-40500496D01*
X94580992Y-40500501D01*
X94385882Y-40606090D01*
X94385878Y-40606092D01*
X94381374Y-40608530D01*
X94377334Y-40611674D01*
X94377327Y-40611679D01*
X94202263Y-40747936D01*
X94202255Y-40747943D01*
X94198216Y-40751087D01*
X94194746Y-40754855D01*
X94194742Y-40754860D01*
X94044491Y-40918077D01*
X94044488Y-40918080D01*
X94041021Y-40921847D01*
X94038226Y-40926124D01*
X94038219Y-40926134D01*
X93916878Y-41111862D01*
X93914076Y-41116151D01*
X93912021Y-41120835D01*
X93912016Y-41120845D01*
X93844835Y-41274003D01*
X93820843Y-41328700D01*
X93819585Y-41333665D01*
X93819584Y-41333670D01*
X93765125Y-41548720D01*
X93765123Y-41548729D01*
X93763866Y-41553695D01*
X93763442Y-41558802D01*
X93763441Y-41558813D01*
X93749267Y-41729883D01*
X93744700Y-41785000D01*
X83701157Y-41785000D01*
X83705300Y-41735000D01*
X83686134Y-41503695D01*
X83629157Y-41278700D01*
X83535924Y-41066151D01*
X83408979Y-40871847D01*
X83251784Y-40701087D01*
X83132866Y-40608530D01*
X83072672Y-40561679D01*
X83072671Y-40561678D01*
X83068626Y-40558530D01*
X82953818Y-40496399D01*
X82869007Y-40450501D01*
X82869002Y-40450499D01*
X82864503Y-40448064D01*
X82859657Y-40446400D01*
X82859654Y-40446399D01*
X82649834Y-40374368D01*
X82649833Y-40374367D01*
X82644981Y-40372702D01*
X82639931Y-40371859D01*
X82639922Y-40371857D01*
X82421111Y-40335344D01*
X82421102Y-40335343D01*
X82416049Y-40334500D01*
X82183951Y-40334500D01*
X82178898Y-40335343D01*
X82178888Y-40335344D01*
X81960077Y-40371857D01*
X81960065Y-40371859D01*
X81955019Y-40372702D01*
X81950169Y-40374366D01*
X81950165Y-40374368D01*
X81740345Y-40446399D01*
X81740337Y-40446402D01*
X81735497Y-40448064D01*
X81731001Y-40450496D01*
X81730992Y-40450501D01*
X81535882Y-40556090D01*
X81535878Y-40556092D01*
X81531374Y-40558530D01*
X81527334Y-40561674D01*
X81527327Y-40561679D01*
X81352263Y-40697936D01*
X81352255Y-40697943D01*
X81348216Y-40701087D01*
X81344746Y-40704855D01*
X81344742Y-40704860D01*
X81194491Y-40868077D01*
X81194488Y-40868080D01*
X81191021Y-40871847D01*
X81188226Y-40876124D01*
X81188219Y-40876134D01*
X81066878Y-41061862D01*
X81064076Y-41066151D01*
X81062021Y-41070835D01*
X81062016Y-41070845D01*
X80972903Y-41274003D01*
X80970843Y-41278700D01*
X80969585Y-41283665D01*
X80969584Y-41283670D01*
X80915125Y-41498720D01*
X80915123Y-41498729D01*
X80913866Y-41503695D01*
X80913442Y-41508802D01*
X80913441Y-41508813D01*
X80895200Y-41728955D01*
X80894700Y-41735000D01*
X73543164Y-41735000D01*
X73547123Y-34688350D01*
X78568604Y-34688350D01*
X78576150Y-34696408D01*
X78743641Y-34810601D01*
X78751662Y-34815232D01*
X78986362Y-34928258D01*
X78994973Y-34931638D01*
X79243908Y-35008424D01*
X79252924Y-35010482D01*
X79510523Y-35049308D01*
X79519746Y-35050000D01*
X79780254Y-35050000D01*
X79789476Y-35049308D01*
X80047075Y-35010482D01*
X80056091Y-35008424D01*
X80305027Y-34931637D01*
X80313637Y-34928258D01*
X80548340Y-34815231D01*
X80556359Y-34810601D01*
X80723846Y-34696409D01*
X80731394Y-34688350D01*
X80725477Y-34679030D01*
X80641025Y-34594578D01*
X82849500Y-34594578D01*
X82849501Y-34597872D01*
X82849853Y-34601150D01*
X82849854Y-34601161D01*
X82855079Y-34649768D01*
X82855080Y-34649773D01*
X82855909Y-34657483D01*
X82858619Y-34664749D01*
X82858620Y-34664753D01*
X82870427Y-34696408D01*
X82906204Y-34792331D01*
X82992454Y-34907546D01*
X83107669Y-34993796D01*
X83242517Y-35044091D01*
X83302127Y-35050500D01*
X85997872Y-35050499D01*
X86057483Y-35044091D01*
X86192331Y-34993796D01*
X86307546Y-34907546D01*
X86393796Y-34792331D01*
X86434443Y-34683350D01*
X91318604Y-34683350D01*
X91326150Y-34691408D01*
X91493641Y-34805601D01*
X91501662Y-34810232D01*
X91736362Y-34923258D01*
X91744973Y-34926638D01*
X91993908Y-35003424D01*
X92002924Y-35005482D01*
X92260523Y-35044308D01*
X92269746Y-35045000D01*
X92530254Y-35045000D01*
X92539476Y-35044308D01*
X92797075Y-35005482D01*
X92806091Y-35003424D01*
X93055027Y-34926637D01*
X93063637Y-34923258D01*
X93298340Y-34810231D01*
X93306359Y-34805601D01*
X93473846Y-34691409D01*
X93481394Y-34683350D01*
X93475477Y-34674030D01*
X93391025Y-34589578D01*
X95599500Y-34589578D01*
X95599501Y-34592872D01*
X95599853Y-34596150D01*
X95599854Y-34596161D01*
X95605079Y-34644768D01*
X95605080Y-34644773D01*
X95605909Y-34652483D01*
X95608619Y-34659749D01*
X95608620Y-34659753D01*
X95620427Y-34691408D01*
X95656204Y-34787331D01*
X95742454Y-34902546D01*
X95857669Y-34988796D01*
X95992517Y-35039091D01*
X96052127Y-35045500D01*
X98747872Y-35045499D01*
X98807483Y-35039091D01*
X98942331Y-34988796D01*
X99057546Y-34902546D01*
X99143796Y-34787331D01*
X99194091Y-34652483D01*
X99200500Y-34592873D01*
X99200499Y-31897128D01*
X99194091Y-31837517D01*
X99143796Y-31702669D01*
X99057546Y-31587454D01*
X99032042Y-31568362D01*
X98949431Y-31506519D01*
X98949430Y-31506518D01*
X98942331Y-31501204D01*
X98871965Y-31474959D01*
X98814752Y-31453620D01*
X98814750Y-31453619D01*
X98807483Y-31450909D01*
X98799770Y-31450079D01*
X98799767Y-31450079D01*
X98751180Y-31444855D01*
X98751169Y-31444854D01*
X98747873Y-31444500D01*
X98744550Y-31444500D01*
X96055439Y-31444500D01*
X96055420Y-31444500D01*
X96052128Y-31444501D01*
X96048850Y-31444853D01*
X96048838Y-31444854D01*
X96000231Y-31450079D01*
X96000225Y-31450080D01*
X95992517Y-31450909D01*
X95985252Y-31453618D01*
X95985246Y-31453620D01*
X95865980Y-31498104D01*
X95865978Y-31498104D01*
X95857669Y-31501204D01*
X95850572Y-31506516D01*
X95850568Y-31506519D01*
X95749550Y-31582141D01*
X95749546Y-31582144D01*
X95742454Y-31587454D01*
X95737144Y-31594546D01*
X95737141Y-31594550D01*
X95661519Y-31695568D01*
X95661516Y-31695572D01*
X95656204Y-31702669D01*
X95653104Y-31710978D01*
X95653104Y-31710980D01*
X95608620Y-31830247D01*
X95608619Y-31830250D01*
X95605909Y-31837517D01*
X95605079Y-31845227D01*
X95605079Y-31845232D01*
X95599855Y-31893819D01*
X95599854Y-31893831D01*
X95599500Y-31897127D01*
X95599500Y-31900448D01*
X95599500Y-31900449D01*
X95599500Y-34589560D01*
X95599500Y-34589578D01*
X93391025Y-34589578D01*
X92411542Y-33610095D01*
X92399999Y-33603431D01*
X92388457Y-33610095D01*
X91324521Y-34674030D01*
X91318604Y-34683350D01*
X86434443Y-34683350D01*
X86444091Y-34657483D01*
X86450500Y-34597873D01*
X86450499Y-33249630D01*
X90595300Y-33249630D01*
X90614767Y-33509399D01*
X90616146Y-33518552D01*
X90674111Y-33772515D01*
X90676844Y-33781375D01*
X90772011Y-34023856D01*
X90776030Y-34032202D01*
X90906278Y-34257798D01*
X90911496Y-34265450D01*
X90951379Y-34315462D01*
X90962615Y-34323435D01*
X90974674Y-34316771D01*
X92034904Y-33256542D01*
X92041568Y-33244999D01*
X92758431Y-33244999D01*
X92765095Y-33256542D01*
X93825325Y-34316772D01*
X93837382Y-34323436D01*
X93848619Y-34315463D01*
X93888507Y-34265445D01*
X93893719Y-34257800D01*
X94023969Y-34032202D01*
X94027988Y-34023856D01*
X94123155Y-33781375D01*
X94125888Y-33772515D01*
X94183853Y-33518552D01*
X94185232Y-33509399D01*
X94204700Y-33249630D01*
X94204700Y-33240370D01*
X94185232Y-32980600D01*
X94183853Y-32971447D01*
X94125888Y-32717484D01*
X94123155Y-32708624D01*
X94027988Y-32466143D01*
X94023969Y-32457797D01*
X93893721Y-32232201D01*
X93888503Y-32224549D01*
X93848619Y-32174536D01*
X93837382Y-32166562D01*
X93825325Y-32173226D01*
X92765095Y-33233457D01*
X92758431Y-33244999D01*
X92041568Y-33244999D01*
X92034904Y-33233457D01*
X90974674Y-32173227D01*
X90962615Y-32166562D01*
X90951380Y-32174534D01*
X90911488Y-32224558D01*
X90906282Y-32232195D01*
X90776030Y-32457797D01*
X90772011Y-32466143D01*
X90676844Y-32708624D01*
X90674111Y-32717484D01*
X90616146Y-32971447D01*
X90614767Y-32980600D01*
X90595300Y-33240370D01*
X90595300Y-33249630D01*
X86450499Y-33249630D01*
X86450499Y-31902128D01*
X86444091Y-31842517D01*
X86430713Y-31806648D01*
X91318603Y-31806648D01*
X91324519Y-31815966D01*
X92388457Y-32879904D01*
X92400000Y-32886568D01*
X92411542Y-32879904D01*
X93475477Y-31815968D01*
X93481394Y-31806648D01*
X93473846Y-31798589D01*
X93306360Y-31684398D01*
X93298340Y-31679768D01*
X93063637Y-31566741D01*
X93055027Y-31563362D01*
X92806091Y-31486575D01*
X92797075Y-31484517D01*
X92539476Y-31445691D01*
X92530254Y-31445000D01*
X92269746Y-31445000D01*
X92260523Y-31445691D01*
X92002924Y-31484517D01*
X91993908Y-31486575D01*
X91744973Y-31563361D01*
X91736362Y-31566741D01*
X91501660Y-31679768D01*
X91493639Y-31684399D01*
X91326151Y-31798590D01*
X91318603Y-31806648D01*
X86430713Y-31806648D01*
X86393796Y-31707669D01*
X86307546Y-31592454D01*
X86192331Y-31506204D01*
X86057483Y-31455909D01*
X86049770Y-31455079D01*
X86049767Y-31455079D01*
X86001180Y-31449855D01*
X86001169Y-31449854D01*
X85997873Y-31449500D01*
X85994550Y-31449500D01*
X83305439Y-31449500D01*
X83305420Y-31449500D01*
X83302128Y-31449501D01*
X83298850Y-31449853D01*
X83298838Y-31449854D01*
X83250231Y-31455079D01*
X83250225Y-31455080D01*
X83242517Y-31455909D01*
X83235252Y-31458618D01*
X83235246Y-31458620D01*
X83115980Y-31503104D01*
X83115978Y-31503104D01*
X83107669Y-31506204D01*
X83100572Y-31511516D01*
X83100568Y-31511519D01*
X82999550Y-31587141D01*
X82999546Y-31587144D01*
X82992454Y-31592454D01*
X82987144Y-31599546D01*
X82987141Y-31599550D01*
X82911519Y-31700568D01*
X82911516Y-31700572D01*
X82906204Y-31707669D01*
X82903104Y-31715978D01*
X82903104Y-31715980D01*
X82858620Y-31835247D01*
X82858619Y-31835250D01*
X82855909Y-31842517D01*
X82855079Y-31850227D01*
X82855079Y-31850232D01*
X82849855Y-31898819D01*
X82849854Y-31898831D01*
X82849500Y-31902127D01*
X82849500Y-31905448D01*
X82849500Y-31905449D01*
X82849500Y-34594560D01*
X82849500Y-34594578D01*
X80641025Y-34594578D01*
X79661542Y-33615095D01*
X79650000Y-33608431D01*
X79638457Y-33615095D01*
X78574521Y-34679030D01*
X78568604Y-34688350D01*
X73547123Y-34688350D01*
X73547929Y-33254630D01*
X77845300Y-33254630D01*
X77864767Y-33514399D01*
X77866146Y-33523552D01*
X77924111Y-33777515D01*
X77926844Y-33786375D01*
X78022011Y-34028856D01*
X78026030Y-34037202D01*
X78156278Y-34262798D01*
X78161496Y-34270450D01*
X78201379Y-34320462D01*
X78212615Y-34328435D01*
X78224674Y-34321771D01*
X79284904Y-33261542D01*
X79291568Y-33250000D01*
X79291567Y-33249999D01*
X80008431Y-33249999D01*
X80015095Y-33261542D01*
X81075325Y-34321772D01*
X81087382Y-34328436D01*
X81098619Y-34320463D01*
X81138507Y-34270445D01*
X81143719Y-34262800D01*
X81273969Y-34037202D01*
X81277988Y-34028856D01*
X81373155Y-33786375D01*
X81375888Y-33777515D01*
X81433853Y-33523552D01*
X81435232Y-33514399D01*
X81454700Y-33254630D01*
X81454700Y-33245370D01*
X81435232Y-32985600D01*
X81433853Y-32976447D01*
X81375888Y-32722484D01*
X81373155Y-32713624D01*
X81277988Y-32471143D01*
X81273969Y-32462797D01*
X81143721Y-32237201D01*
X81138503Y-32229549D01*
X81098619Y-32179536D01*
X81087382Y-32171562D01*
X81075325Y-32178226D01*
X80015095Y-33238457D01*
X80008431Y-33249999D01*
X79291567Y-33249999D01*
X79284904Y-33238457D01*
X78224674Y-32178227D01*
X78212615Y-32171562D01*
X78201380Y-32179534D01*
X78161488Y-32229558D01*
X78156282Y-32237195D01*
X78026030Y-32462797D01*
X78022011Y-32471143D01*
X77926844Y-32713624D01*
X77924111Y-32722484D01*
X77866146Y-32976447D01*
X77864767Y-32985600D01*
X77845300Y-33245370D01*
X77845300Y-33254630D01*
X73547929Y-33254630D01*
X73548740Y-31811648D01*
X78568603Y-31811648D01*
X78574519Y-31820966D01*
X79638457Y-32884904D01*
X79650000Y-32891568D01*
X79661542Y-32884904D01*
X80725477Y-31820968D01*
X80731394Y-31811648D01*
X80723846Y-31803589D01*
X80556360Y-31689398D01*
X80548340Y-31684768D01*
X80313637Y-31571741D01*
X80305027Y-31568362D01*
X80056091Y-31491575D01*
X80047075Y-31489517D01*
X79789476Y-31450691D01*
X79780254Y-31450000D01*
X79519746Y-31450000D01*
X79510523Y-31450691D01*
X79252924Y-31489517D01*
X79243908Y-31491575D01*
X78994973Y-31568361D01*
X78986362Y-31571741D01*
X78751660Y-31684768D01*
X78743639Y-31689399D01*
X78576151Y-31803590D01*
X78568603Y-31811648D01*
X73548740Y-31811648D01*
X73549976Y-29611716D01*
X73556472Y-29572182D01*
X73575235Y-29536781D01*
X74502764Y-28315850D01*
X74534294Y-28286657D01*
X74573895Y-28269976D01*
X75786304Y-27993127D01*
X75814042Y-27990016D01*
X101166273Y-28019960D01*
G37*
%TD.AperFunction*%
%TD*%
M02*
