M48
; DRILL file {KiCad (7.0.0)} date Sat Apr 15 22:03:00 2023
; FORMAT={-:-/ absolute / inch / decimal}
; #@! TF.CreationDate,2023-04-15T22:03:00+02:00
; #@! TF.GenerationSoftware,Kicad,Pcbnew,(7.0.0)
; #@! TF.FileFunction,Plated,1,2,PTH
FMAT,2
INCH
; #@! TA.AperFunction,Plated,PTH,ComponentDrill
T1C0.0315
; #@! TA.AperFunction,Plated,PTH,ComponentDrill
T2C0.0354
; #@! TA.AperFunction,Plated,PTH,ComponentDrill
T3C0.0433
; #@! TA.AperFunction,Plated,PTH,ComponentDrill
T4C0.0512
%
G90
G05
T1
X3.0295Y-2.3228
X3.0295Y-2.5197
X3.0823Y-1.872
X3.1866Y-2.3276
X3.1866Y-2.5244
X3.3823Y-1.872
X3.5843Y-1.8719
X3.7984Y-2.3144
X3.7984Y-2.5112
X3.8843Y-1.8719
X3.9913Y-2.3222
X3.9913Y-2.5191
T2
X3.2402Y-1.6431
X3.2402Y-1.7431
X3.7461Y-1.6451
X3.7461Y-1.7451
T3
X3.1386Y-2.0551
X3.2386Y-2.0551
X3.3386Y-2.0551
X3.6291Y-2.0608
X3.7291Y-2.0608
X3.8291Y-2.0608
T4
X3.1358Y-1.3091
X3.3327Y-1.3091
X3.3937Y-2.4646
X3.5906Y-2.4646
X3.6378Y-1.3089
X3.8346Y-1.3089
T0
M30
