%TF.GenerationSoftware,KiCad,Pcbnew,(7.0.0)*%
%TF.CreationDate,2023-04-15T22:03:08+02:00*%
%TF.ProjectId,incredibly_simple_voltage_regulator,696e6372-6564-4696-926c-795f73696d70,rev?*%
%TF.SameCoordinates,Original*%
%TF.FileFunction,Drillmap*%
%TF.FilePolarity,Positive*%
%FSLAX45Y45*%
G04 Gerber Fmt 4.5, Leading zero omitted, Abs format (unit mm)*
G04 Created by KiCad (PCBNEW (7.0.0)) date 2023-04-15 22:03:08*
%MOMM*%
%LPD*%
G01*
G04 APERTURE LIST*
%ADD10C,0.100000*%
%ADD11C,0.200000*%
G04 APERTURE END LIST*
D10*
X7320373Y-6575034D02*
G75*
G03*
X7560430Y-6810034I235057J4D01*
G01*
X7560430Y-6810034D02*
X10095000Y-6810053D01*
X10094570Y-2770966D02*
X7555966Y-2775377D01*
X10330000Y-6570000D02*
X10334623Y-3005966D01*
X10095000Y-6810053D02*
G75*
G03*
X10330000Y-6570000I0J235053D01*
G01*
X7320966Y-3015430D02*
X7320377Y-6575034D01*
X7555966Y-2775373D02*
G75*
G03*
X7320966Y-3015430I4J-235057D01*
G01*
X10334627Y-3005966D02*
G75*
G03*
X10094570Y-2770966I-235057J-4D01*
G01*
D11*
X7562996Y-7108563D02*
X7562996Y-6908563D01*
X7562996Y-6908563D02*
X7610615Y-6908563D01*
X7610615Y-6908563D02*
X7639187Y-6918087D01*
X7639187Y-6918087D02*
X7658234Y-6937135D01*
X7658234Y-6937135D02*
X7667758Y-6956182D01*
X7667758Y-6956182D02*
X7677282Y-6994277D01*
X7677282Y-6994277D02*
X7677282Y-7022849D01*
X7677282Y-7022849D02*
X7667758Y-7060944D01*
X7667758Y-7060944D02*
X7658234Y-7079992D01*
X7658234Y-7079992D02*
X7639187Y-7099039D01*
X7639187Y-7099039D02*
X7610615Y-7108563D01*
X7610615Y-7108563D02*
X7562996Y-7108563D01*
X7762996Y-7108563D02*
X7762996Y-6975230D01*
X7762996Y-7013325D02*
X7772520Y-6994277D01*
X7772520Y-6994277D02*
X7782044Y-6984754D01*
X7782044Y-6984754D02*
X7801091Y-6975230D01*
X7801091Y-6975230D02*
X7820139Y-6975230D01*
X7886806Y-7108563D02*
X7886806Y-6975230D01*
X7886806Y-6908563D02*
X7877282Y-6918087D01*
X7877282Y-6918087D02*
X7886806Y-6927611D01*
X7886806Y-6927611D02*
X7896330Y-6918087D01*
X7896330Y-6918087D02*
X7886806Y-6908563D01*
X7886806Y-6908563D02*
X7886806Y-6927611D01*
X8010615Y-7108563D02*
X7991568Y-7099039D01*
X7991568Y-7099039D02*
X7982044Y-7079992D01*
X7982044Y-7079992D02*
X7982044Y-6908563D01*
X8115377Y-7108563D02*
X8096330Y-7099039D01*
X8096330Y-7099039D02*
X8086806Y-7079992D01*
X8086806Y-7079992D02*
X8086806Y-6908563D01*
X8311568Y-7108563D02*
X8311568Y-6908563D01*
X8311568Y-6908563D02*
X8378234Y-7051420D01*
X8378234Y-7051420D02*
X8444901Y-6908563D01*
X8444901Y-6908563D02*
X8444901Y-7108563D01*
X8625853Y-7108563D02*
X8625853Y-7003801D01*
X8625853Y-7003801D02*
X8616330Y-6984754D01*
X8616330Y-6984754D02*
X8597282Y-6975230D01*
X8597282Y-6975230D02*
X8559187Y-6975230D01*
X8559187Y-6975230D02*
X8540139Y-6984754D01*
X8625853Y-7099039D02*
X8606806Y-7108563D01*
X8606806Y-7108563D02*
X8559187Y-7108563D01*
X8559187Y-7108563D02*
X8540139Y-7099039D01*
X8540139Y-7099039D02*
X8530615Y-7079992D01*
X8530615Y-7079992D02*
X8530615Y-7060944D01*
X8530615Y-7060944D02*
X8540139Y-7041896D01*
X8540139Y-7041896D02*
X8559187Y-7032373D01*
X8559187Y-7032373D02*
X8606806Y-7032373D01*
X8606806Y-7032373D02*
X8625853Y-7022849D01*
X8721092Y-6975230D02*
X8721092Y-7175230D01*
X8721092Y-6984754D02*
X8740139Y-6975230D01*
X8740139Y-6975230D02*
X8778234Y-6975230D01*
X8778234Y-6975230D02*
X8797282Y-6984754D01*
X8797282Y-6984754D02*
X8806806Y-6994277D01*
X8806806Y-6994277D02*
X8816330Y-7013325D01*
X8816330Y-7013325D02*
X8816330Y-7070468D01*
X8816330Y-7070468D02*
X8806806Y-7089515D01*
X8806806Y-7089515D02*
X8797282Y-7099039D01*
X8797282Y-7099039D02*
X8778234Y-7108563D01*
X8778234Y-7108563D02*
X8740139Y-7108563D01*
X8740139Y-7108563D02*
X8721092Y-7099039D01*
X8902044Y-7089515D02*
X8911568Y-7099039D01*
X8911568Y-7099039D02*
X8902044Y-7108563D01*
X8902044Y-7108563D02*
X8892520Y-7099039D01*
X8892520Y-7099039D02*
X8902044Y-7089515D01*
X8902044Y-7089515D02*
X8902044Y-7108563D01*
X8902044Y-6984754D02*
X8911568Y-6994277D01*
X8911568Y-6994277D02*
X8902044Y-7003801D01*
X8902044Y-7003801D02*
X8892520Y-6994277D01*
X8892520Y-6994277D02*
X8902044Y-6984754D01*
X8902044Y-6984754D02*
X8902044Y-7003801D01*
M02*
