%TF.GenerationSoftware,KiCad,Pcbnew,(7.0.0)*%
%TF.CreationDate,2023-04-15T22:01:32+02:00*%
%TF.ProjectId,incredibly_simple_voltage_regulator,696e6372-6564-4696-926c-795f73696d70,rev?*%
%TF.SameCoordinates,Original*%
%TF.FileFunction,Legend,Bot*%
%TF.FilePolarity,Positive*%
%FSLAX46Y46*%
G04 Gerber Fmt 4.6, Leading zero omitted, Abs format (unit mm)*
G04 Created by KiCad (PCBNEW (7.0.0)) date 2023-04-15 22:01:32*
%MOMM*%
%LPD*%
G01*
G04 APERTURE LIST*
%ADD10C,0.150000*%
G04 APERTURE END LIST*
D10*
X74882380Y-31675238D02*
X75882380Y-32008571D01*
X75882380Y-32008571D02*
X74882380Y-32341904D01*
X75882380Y-32818095D02*
X75834761Y-32722857D01*
X75834761Y-32722857D02*
X75787142Y-32675238D01*
X75787142Y-32675238D02*
X75691904Y-32627619D01*
X75691904Y-32627619D02*
X75406190Y-32627619D01*
X75406190Y-32627619D02*
X75310952Y-32675238D01*
X75310952Y-32675238D02*
X75263333Y-32722857D01*
X75263333Y-32722857D02*
X75215714Y-32818095D01*
X75215714Y-32818095D02*
X75215714Y-32960952D01*
X75215714Y-32960952D02*
X75263333Y-33056190D01*
X75263333Y-33056190D02*
X75310952Y-33103809D01*
X75310952Y-33103809D02*
X75406190Y-33151428D01*
X75406190Y-33151428D02*
X75691904Y-33151428D01*
X75691904Y-33151428D02*
X75787142Y-33103809D01*
X75787142Y-33103809D02*
X75834761Y-33056190D01*
X75834761Y-33056190D02*
X75882380Y-32960952D01*
X75882380Y-32960952D02*
X75882380Y-32818095D01*
X75882380Y-33722857D02*
X75834761Y-33627619D01*
X75834761Y-33627619D02*
X75739523Y-33580000D01*
X75739523Y-33580000D02*
X74882380Y-33580000D01*
X75215714Y-33960953D02*
X75215714Y-34341905D01*
X74882380Y-34103810D02*
X75739523Y-34103810D01*
X75739523Y-34103810D02*
X75834761Y-34151429D01*
X75834761Y-34151429D02*
X75882380Y-34246667D01*
X75882380Y-34246667D02*
X75882380Y-34341905D01*
X75882380Y-35103810D02*
X75358571Y-35103810D01*
X75358571Y-35103810D02*
X75263333Y-35056191D01*
X75263333Y-35056191D02*
X75215714Y-34960953D01*
X75215714Y-34960953D02*
X75215714Y-34770477D01*
X75215714Y-34770477D02*
X75263333Y-34675239D01*
X75834761Y-35103810D02*
X75882380Y-35008572D01*
X75882380Y-35008572D02*
X75882380Y-34770477D01*
X75882380Y-34770477D02*
X75834761Y-34675239D01*
X75834761Y-34675239D02*
X75739523Y-34627620D01*
X75739523Y-34627620D02*
X75644285Y-34627620D01*
X75644285Y-34627620D02*
X75549047Y-34675239D01*
X75549047Y-34675239D02*
X75501428Y-34770477D01*
X75501428Y-34770477D02*
X75501428Y-35008572D01*
X75501428Y-35008572D02*
X75453809Y-35103810D01*
X75215714Y-36008572D02*
X76025238Y-36008572D01*
X76025238Y-36008572D02*
X76120476Y-35960953D01*
X76120476Y-35960953D02*
X76168095Y-35913334D01*
X76168095Y-35913334D02*
X76215714Y-35818096D01*
X76215714Y-35818096D02*
X76215714Y-35675239D01*
X76215714Y-35675239D02*
X76168095Y-35580001D01*
X75834761Y-36008572D02*
X75882380Y-35913334D01*
X75882380Y-35913334D02*
X75882380Y-35722858D01*
X75882380Y-35722858D02*
X75834761Y-35627620D01*
X75834761Y-35627620D02*
X75787142Y-35580001D01*
X75787142Y-35580001D02*
X75691904Y-35532382D01*
X75691904Y-35532382D02*
X75406190Y-35532382D01*
X75406190Y-35532382D02*
X75310952Y-35580001D01*
X75310952Y-35580001D02*
X75263333Y-35627620D01*
X75263333Y-35627620D02*
X75215714Y-35722858D01*
X75215714Y-35722858D02*
X75215714Y-35913334D01*
X75215714Y-35913334D02*
X75263333Y-36008572D01*
X75834761Y-36865715D02*
X75882380Y-36770477D01*
X75882380Y-36770477D02*
X75882380Y-36580001D01*
X75882380Y-36580001D02*
X75834761Y-36484763D01*
X75834761Y-36484763D02*
X75739523Y-36437144D01*
X75739523Y-36437144D02*
X75358571Y-36437144D01*
X75358571Y-36437144D02*
X75263333Y-36484763D01*
X75263333Y-36484763D02*
X75215714Y-36580001D01*
X75215714Y-36580001D02*
X75215714Y-36770477D01*
X75215714Y-36770477D02*
X75263333Y-36865715D01*
X75263333Y-36865715D02*
X75358571Y-36913334D01*
X75358571Y-36913334D02*
X75453809Y-36913334D01*
X75453809Y-36913334D02*
X75549047Y-36437144D01*
X75882380Y-38513334D02*
X75406190Y-38180001D01*
X75882380Y-37941906D02*
X74882380Y-37941906D01*
X74882380Y-37941906D02*
X74882380Y-38322858D01*
X74882380Y-38322858D02*
X74930000Y-38418096D01*
X74930000Y-38418096D02*
X74977619Y-38465715D01*
X74977619Y-38465715D02*
X75072857Y-38513334D01*
X75072857Y-38513334D02*
X75215714Y-38513334D01*
X75215714Y-38513334D02*
X75310952Y-38465715D01*
X75310952Y-38465715D02*
X75358571Y-38418096D01*
X75358571Y-38418096D02*
X75406190Y-38322858D01*
X75406190Y-38322858D02*
X75406190Y-37941906D01*
X75834761Y-39322858D02*
X75882380Y-39227620D01*
X75882380Y-39227620D02*
X75882380Y-39037144D01*
X75882380Y-39037144D02*
X75834761Y-38941906D01*
X75834761Y-38941906D02*
X75739523Y-38894287D01*
X75739523Y-38894287D02*
X75358571Y-38894287D01*
X75358571Y-38894287D02*
X75263333Y-38941906D01*
X75263333Y-38941906D02*
X75215714Y-39037144D01*
X75215714Y-39037144D02*
X75215714Y-39227620D01*
X75215714Y-39227620D02*
X75263333Y-39322858D01*
X75263333Y-39322858D02*
X75358571Y-39370477D01*
X75358571Y-39370477D02*
X75453809Y-39370477D01*
X75453809Y-39370477D02*
X75549047Y-38894287D01*
X75215714Y-40227620D02*
X76025238Y-40227620D01*
X76025238Y-40227620D02*
X76120476Y-40180001D01*
X76120476Y-40180001D02*
X76168095Y-40132382D01*
X76168095Y-40132382D02*
X76215714Y-40037144D01*
X76215714Y-40037144D02*
X76215714Y-39894287D01*
X76215714Y-39894287D02*
X76168095Y-39799049D01*
X75834761Y-40227620D02*
X75882380Y-40132382D01*
X75882380Y-40132382D02*
X75882380Y-39941906D01*
X75882380Y-39941906D02*
X75834761Y-39846668D01*
X75834761Y-39846668D02*
X75787142Y-39799049D01*
X75787142Y-39799049D02*
X75691904Y-39751430D01*
X75691904Y-39751430D02*
X75406190Y-39751430D01*
X75406190Y-39751430D02*
X75310952Y-39799049D01*
X75310952Y-39799049D02*
X75263333Y-39846668D01*
X75263333Y-39846668D02*
X75215714Y-39941906D01*
X75215714Y-39941906D02*
X75215714Y-40132382D01*
X75215714Y-40132382D02*
X75263333Y-40227620D01*
X75215714Y-41132382D02*
X75882380Y-41132382D01*
X75215714Y-40703811D02*
X75739523Y-40703811D01*
X75739523Y-40703811D02*
X75834761Y-40751430D01*
X75834761Y-40751430D02*
X75882380Y-40846668D01*
X75882380Y-40846668D02*
X75882380Y-40989525D01*
X75882380Y-40989525D02*
X75834761Y-41084763D01*
X75834761Y-41084763D02*
X75787142Y-41132382D01*
X75882380Y-41751430D02*
X75834761Y-41656192D01*
X75834761Y-41656192D02*
X75739523Y-41608573D01*
X75739523Y-41608573D02*
X74882380Y-41608573D01*
X75882380Y-42560954D02*
X75358571Y-42560954D01*
X75358571Y-42560954D02*
X75263333Y-42513335D01*
X75263333Y-42513335D02*
X75215714Y-42418097D01*
X75215714Y-42418097D02*
X75215714Y-42227621D01*
X75215714Y-42227621D02*
X75263333Y-42132383D01*
X75834761Y-42560954D02*
X75882380Y-42465716D01*
X75882380Y-42465716D02*
X75882380Y-42227621D01*
X75882380Y-42227621D02*
X75834761Y-42132383D01*
X75834761Y-42132383D02*
X75739523Y-42084764D01*
X75739523Y-42084764D02*
X75644285Y-42084764D01*
X75644285Y-42084764D02*
X75549047Y-42132383D01*
X75549047Y-42132383D02*
X75501428Y-42227621D01*
X75501428Y-42227621D02*
X75501428Y-42465716D01*
X75501428Y-42465716D02*
X75453809Y-42560954D01*
X75215714Y-42894288D02*
X75215714Y-43275240D01*
X74882380Y-43037145D02*
X75739523Y-43037145D01*
X75739523Y-43037145D02*
X75834761Y-43084764D01*
X75834761Y-43084764D02*
X75882380Y-43180002D01*
X75882380Y-43180002D02*
X75882380Y-43275240D01*
X75882380Y-43751431D02*
X75834761Y-43656193D01*
X75834761Y-43656193D02*
X75787142Y-43608574D01*
X75787142Y-43608574D02*
X75691904Y-43560955D01*
X75691904Y-43560955D02*
X75406190Y-43560955D01*
X75406190Y-43560955D02*
X75310952Y-43608574D01*
X75310952Y-43608574D02*
X75263333Y-43656193D01*
X75263333Y-43656193D02*
X75215714Y-43751431D01*
X75215714Y-43751431D02*
X75215714Y-43894288D01*
X75215714Y-43894288D02*
X75263333Y-43989526D01*
X75263333Y-43989526D02*
X75310952Y-44037145D01*
X75310952Y-44037145D02*
X75406190Y-44084764D01*
X75406190Y-44084764D02*
X75691904Y-44084764D01*
X75691904Y-44084764D02*
X75787142Y-44037145D01*
X75787142Y-44037145D02*
X75834761Y-43989526D01*
X75834761Y-43989526D02*
X75882380Y-43894288D01*
X75882380Y-43894288D02*
X75882380Y-43751431D01*
X75882380Y-44513336D02*
X75215714Y-44513336D01*
X75406190Y-44513336D02*
X75310952Y-44560955D01*
X75310952Y-44560955D02*
X75263333Y-44608574D01*
X75263333Y-44608574D02*
X75215714Y-44703812D01*
X75215714Y-44703812D02*
X75215714Y-44799050D01*
X75882380Y-46256193D02*
X75882380Y-45684765D01*
X75882380Y-45970479D02*
X74882380Y-45970479D01*
X74882380Y-45970479D02*
X75025238Y-45875241D01*
X75025238Y-45875241D02*
X75120476Y-45780003D01*
X75120476Y-45780003D02*
X75168095Y-45684765D01*
X74977619Y-46637146D02*
X74930000Y-46684765D01*
X74930000Y-46684765D02*
X74882380Y-46780003D01*
X74882380Y-46780003D02*
X74882380Y-47018098D01*
X74882380Y-47018098D02*
X74930000Y-47113336D01*
X74930000Y-47113336D02*
X74977619Y-47160955D01*
X74977619Y-47160955D02*
X75072857Y-47208574D01*
X75072857Y-47208574D02*
X75168095Y-47208574D01*
X75168095Y-47208574D02*
X75310952Y-47160955D01*
X75310952Y-47160955D02*
X75882380Y-46589527D01*
X75882380Y-46589527D02*
X75882380Y-47208574D01*
X74882380Y-47494289D02*
X75882380Y-47827622D01*
X75882380Y-47827622D02*
X74882380Y-48160955D01*
X75215714Y-48951432D02*
X75215714Y-49332384D01*
X74882380Y-49094289D02*
X75739523Y-49094289D01*
X75739523Y-49094289D02*
X75834761Y-49141908D01*
X75834761Y-49141908D02*
X75882380Y-49237146D01*
X75882380Y-49237146D02*
X75882380Y-49332384D01*
X75882380Y-49808575D02*
X75834761Y-49713337D01*
X75834761Y-49713337D02*
X75787142Y-49665718D01*
X75787142Y-49665718D02*
X75691904Y-49618099D01*
X75691904Y-49618099D02*
X75406190Y-49618099D01*
X75406190Y-49618099D02*
X75310952Y-49665718D01*
X75310952Y-49665718D02*
X75263333Y-49713337D01*
X75263333Y-49713337D02*
X75215714Y-49808575D01*
X75215714Y-49808575D02*
X75215714Y-49951432D01*
X75215714Y-49951432D02*
X75263333Y-50046670D01*
X75263333Y-50046670D02*
X75310952Y-50094289D01*
X75310952Y-50094289D02*
X75406190Y-50141908D01*
X75406190Y-50141908D02*
X75691904Y-50141908D01*
X75691904Y-50141908D02*
X75787142Y-50094289D01*
X75787142Y-50094289D02*
X75834761Y-50046670D01*
X75834761Y-50046670D02*
X75882380Y-49951432D01*
X75882380Y-49951432D02*
X75882380Y-49808575D01*
X74882380Y-51646670D02*
X74882380Y-51170480D01*
X74882380Y-51170480D02*
X75358571Y-51122861D01*
X75358571Y-51122861D02*
X75310952Y-51170480D01*
X75310952Y-51170480D02*
X75263333Y-51265718D01*
X75263333Y-51265718D02*
X75263333Y-51503813D01*
X75263333Y-51503813D02*
X75310952Y-51599051D01*
X75310952Y-51599051D02*
X75358571Y-51646670D01*
X75358571Y-51646670D02*
X75453809Y-51694289D01*
X75453809Y-51694289D02*
X75691904Y-51694289D01*
X75691904Y-51694289D02*
X75787142Y-51646670D01*
X75787142Y-51646670D02*
X75834761Y-51599051D01*
X75834761Y-51599051D02*
X75882380Y-51503813D01*
X75882380Y-51503813D02*
X75882380Y-51265718D01*
X75882380Y-51265718D02*
X75834761Y-51170480D01*
X75834761Y-51170480D02*
X75787142Y-51122861D01*
X74834761Y-52837146D02*
X76120476Y-51980004D01*
X75882380Y-53218099D02*
X75882380Y-53408575D01*
X75882380Y-53408575D02*
X75834761Y-53503813D01*
X75834761Y-53503813D02*
X75787142Y-53551432D01*
X75787142Y-53551432D02*
X75644285Y-53646670D01*
X75644285Y-53646670D02*
X75453809Y-53694289D01*
X75453809Y-53694289D02*
X75072857Y-53694289D01*
X75072857Y-53694289D02*
X74977619Y-53646670D01*
X74977619Y-53646670D02*
X74930000Y-53599051D01*
X74930000Y-53599051D02*
X74882380Y-53503813D01*
X74882380Y-53503813D02*
X74882380Y-53313337D01*
X74882380Y-53313337D02*
X74930000Y-53218099D01*
X74930000Y-53218099D02*
X74977619Y-53170480D01*
X74977619Y-53170480D02*
X75072857Y-53122861D01*
X75072857Y-53122861D02*
X75310952Y-53122861D01*
X75310952Y-53122861D02*
X75406190Y-53170480D01*
X75406190Y-53170480D02*
X75453809Y-53218099D01*
X75453809Y-53218099D02*
X75501428Y-53313337D01*
X75501428Y-53313337D02*
X75501428Y-53503813D01*
X75501428Y-53503813D02*
X75453809Y-53599051D01*
X75453809Y-53599051D02*
X75406190Y-53646670D01*
X75406190Y-53646670D02*
X75310952Y-53694289D01*
X74882380Y-53980004D02*
X75882380Y-54313337D01*
X75882380Y-54313337D02*
X74882380Y-54646670D01*
M02*
