%TF.GenerationSoftware,KiCad,Pcbnew,(7.0.0)*%
%TF.CreationDate,2023-04-19T19:54:13+02:00*%
%TF.ProjectId,steper_motor_controller,73746570-6572-45f6-9d6f-746f725f636f,REV1*%
%TF.SameCoordinates,Original*%
%TF.FileFunction,Copper,L1,Top*%
%TF.FilePolarity,Positive*%
%FSLAX46Y46*%
G04 Gerber Fmt 4.6, Leading zero omitted, Abs format (unit mm)*
G04 Created by KiCad (PCBNEW (7.0.0)) date 2023-04-19 19:54:13*
%MOMM*%
%LPD*%
G01*
G04 APERTURE LIST*
%TA.AperFunction,ComponentPad*%
%ADD10C,5.000000*%
%TD*%
%TA.AperFunction,ComponentPad*%
%ADD11R,2.400000X2.400000*%
%TD*%
%TA.AperFunction,ComponentPad*%
%ADD12O,2.400000X2.400000*%
%TD*%
%TA.AperFunction,ComponentPad*%
%ADD13R,2.600000X2.600000*%
%TD*%
%TA.AperFunction,ComponentPad*%
%ADD14C,2.600000*%
%TD*%
%TA.AperFunction,ComponentPad*%
%ADD15C,1.600000*%
%TD*%
%TA.AperFunction,ComponentPad*%
%ADD16C,2.000000*%
%TD*%
%TA.AperFunction,ComponentPad*%
%ADD17R,1.800000X1.800000*%
%TD*%
%TA.AperFunction,ComponentPad*%
%ADD18O,1.800000X1.800000*%
%TD*%
%TA.AperFunction,ComponentPad*%
%ADD19C,2.400000*%
%TD*%
%TA.AperFunction,ComponentPad*%
%ADD20R,1.600000X1.600000*%
%TD*%
%TA.AperFunction,ComponentPad*%
%ADD21O,1.600000X1.600000*%
%TD*%
%TA.AperFunction,ViaPad*%
%ADD22C,0.800000*%
%TD*%
%TA.AperFunction,Conductor*%
%ADD23C,0.310000*%
%TD*%
%TA.AperFunction,Conductor*%
%ADD24C,0.400000*%
%TD*%
G04 APERTURE END LIST*
D10*
%TO.P,,1*%
%TO.N,N/C*%
X181994500Y-137024500D03*
%TD*%
%TO.P,,1*%
%TO.N,N/C*%
X120465500Y-137044500D03*
%TD*%
%TO.P,,1*%
%TO.N,N/C*%
X181934500Y-50905500D03*
%TD*%
%TO.P,REF\u002A\u002A,1*%
%TO.N,N/C*%
X120575530Y-50895530D03*
%TD*%
D11*
%TO.P,D3,1,K*%
%TO.N,VS*%
X153759999Y-118083331D03*
D12*
%TO.P,D3,2,A*%
%TO.N,Net-(D3-A)*%
X168999999Y-118083331D03*
%TD*%
D13*
%TO.P,J3,1,Pin_1*%
%TO.N,GND*%
X180319999Y-118239999D03*
D14*
%TO.P,J3,2,Pin_2*%
%TO.N,/HALF*%
X180320000Y-113160000D03*
%TO.P,J3,3,Pin_3*%
%TO.N,/HOME*%
X180320000Y-108080000D03*
%TO.P,J3,4,Pin_4*%
%TO.N,/Vref*%
X180320000Y-103000000D03*
%TO.P,J3,5,Pin_5*%
%TO.N,/CLK*%
X180320000Y-97920000D03*
%TO.P,J3,6,Pin_6*%
%TO.N,/CW*%
X180320000Y-92840000D03*
%TO.P,J3,7,Pin_7*%
%TO.N,/ENA*%
X180320000Y-87760000D03*
%TO.P,J3,8,Pin_8*%
%TO.N,/RESET*%
X180320000Y-82680000D03*
%TO.P,J3,9,Pin_9*%
%TO.N,/CTRL*%
X180320000Y-77600000D03*
%TO.P,J3,10,Pin_10*%
%TO.N,/OSC*%
X180320000Y-72520000D03*
%TO.P,J3,11,Pin_11*%
%TO.N,/SYNC*%
X180320000Y-67440000D03*
%TO.P,J3,12,Pin_12*%
%TO.N,unconnected-(J3-Pin_12-Pad12)*%
X180320000Y-62360000D03*
%TD*%
D15*
%TO.P,C2,1*%
%TO.N,VSS*%
X134750000Y-63030000D03*
%TO.P,C2,2*%
%TO.N,GND*%
X134750000Y-68030000D03*
%TD*%
D13*
%TO.P,J1,1,Pin_1*%
%TO.N,VS*%
X132534999Y-53624999D03*
D14*
%TO.P,J1,2,Pin_2*%
%TO.N,GND*%
X127455000Y-53625000D03*
%TD*%
D11*
%TO.P,D8,1,K*%
%TO.N,Net-(D4-A)*%
X119869999Y-103559999D03*
D12*
%TO.P,D8,2,A*%
%TO.N,GND*%
X135109999Y-103559999D03*
%TD*%
D11*
%TO.P,D1,1,K*%
%TO.N,VS*%
X153769999Y-103089999D03*
D12*
%TO.P,D1,2,A*%
%TO.N,Net-(D1-A)*%
X169009999Y-103089999D03*
%TD*%
D11*
%TO.P,D5,1,K*%
%TO.N,Net-(D1-A)*%
X119869999Y-126049999D03*
D12*
%TO.P,D5,2,A*%
%TO.N,GND*%
X135109999Y-126049999D03*
%TD*%
D11*
%TO.P,D7,1,K*%
%TO.N,Net-(D3-A)*%
X119869999Y-111078749D03*
D12*
%TO.P,D7,2,A*%
%TO.N,GND*%
X135109999Y-111078749D03*
%TD*%
D16*
%TO.P,C1,1*%
%TO.N,/OSC*%
X130940000Y-80120000D03*
%TO.P,C1,2*%
%TO.N,GND*%
X130940000Y-72620000D03*
%TD*%
D15*
%TO.P,C3,1*%
%TO.N,VS*%
X122720000Y-73600000D03*
%TO.P,C3,2*%
%TO.N,GND*%
X122720000Y-78600000D03*
%TD*%
D11*
%TO.P,D6,1,K*%
%TO.N,Net-(D2-A)*%
X119869999Y-118553331D03*
D12*
%TO.P,D6,2,A*%
%TO.N,GND*%
X135109999Y-118553331D03*
%TD*%
D17*
%TO.P,U2,1,SENSE_A*%
%TO.N,/Rs1*%
X153369999Y-59499999D03*
D18*
%TO.P,U2,2,OUT1*%
%TO.N,Net-(D1-A)*%
X154639999Y-54419999D03*
%TO.P,U2,3,OUT2*%
%TO.N,Net-(D2-A)*%
X155909999Y-59499999D03*
%TO.P,U2,4,Vs*%
%TO.N,VS*%
X157179999Y-54419999D03*
%TO.P,U2,5,IN1*%
%TO.N,Net-(U1-A)*%
X158449999Y-59499999D03*
%TO.P,U2,6,EnA*%
%TO.N,Net-(U1-INH1)*%
X159719999Y-54419999D03*
%TO.P,U2,7,IN2*%
%TO.N,Net-(U1-B)*%
X160989999Y-59499999D03*
%TO.P,U2,8,GND*%
%TO.N,GND*%
X162259999Y-54419999D03*
%TO.P,U2,9,Vss*%
%TO.N,VSS*%
X163529999Y-59499999D03*
%TO.P,U2,10,IN3*%
%TO.N,Net-(U1-C)*%
X164799999Y-54419999D03*
%TO.P,U2,11,EnB*%
%TO.N,Net-(U1-INH2)*%
X166069999Y-59499999D03*
%TO.P,U2,12,IN4*%
%TO.N,Net-(U1-D)*%
X167339999Y-54419999D03*
%TO.P,U2,13,OUT3*%
%TO.N,Net-(D3-A)*%
X168609999Y-59499999D03*
%TO.P,U2,14,OUT4*%
%TO.N,Net-(D4-A)*%
X169879999Y-54419999D03*
%TO.P,U2,15,SENSE_B*%
%TO.N,/Rs2*%
X171149999Y-59499999D03*
%TD*%
D13*
%TO.P,J2,1,Pin_1*%
%TO.N,VSS*%
X144459999Y-53574999D03*
D14*
%TO.P,J2,2,Pin_2*%
%TO.N,GND*%
X139380000Y-53575000D03*
%TD*%
D19*
%TO.P,Rs1,1*%
%TO.N,/Rs1*%
X147650000Y-106670000D03*
D12*
%TO.P,Rs1,2*%
%TO.N,GND*%
X147649999Y-121909999D03*
%TD*%
D11*
%TO.P,D2,1,K*%
%TO.N,VS*%
X153729999Y-110608749D03*
D12*
%TO.P,D2,2,A*%
%TO.N,Net-(D2-A)*%
X168969999Y-110608749D03*
%TD*%
D13*
%TO.P,J4,1,Pin_1*%
%TO.N,Net-(D1-A)*%
X138319999Y-136344999D03*
D14*
%TO.P,J4,2,Pin_2*%
%TO.N,Net-(D2-A)*%
X143400000Y-136345000D03*
%TO.P,J4,3,Pin_3*%
%TO.N,Net-(D3-A)*%
X148480000Y-136345000D03*
%TO.P,J4,4,Pin_4*%
%TO.N,Net-(D4-A)*%
X153560000Y-136345000D03*
%TD*%
D11*
%TO.P,C4,1*%
%TO.N,VS*%
X142709999Y-73849999D03*
D19*
%TO.P,C4,2*%
%TO.N,GND*%
X147710000Y-73850000D03*
%TD*%
D11*
%TO.P,D4,1,K*%
%TO.N,VS*%
X153769999Y-125579999D03*
D12*
%TO.P,D4,2,A*%
%TO.N,Net-(D4-A)*%
X169009999Y-125579999D03*
%TD*%
D19*
%TO.P,Rs2,1*%
%TO.N,/Rs2*%
X141600000Y-106670000D03*
D12*
%TO.P,Rs2,2*%
%TO.N,GND*%
X141599999Y-121909999D03*
%TD*%
D20*
%TO.P,U1,1,SYNC*%
%TO.N,/SYNC*%
X159839999Y-67579999D03*
D21*
%TO.P,U1,2,GND*%
%TO.N,GND*%
X159839999Y-70119999D03*
%TO.P,U1,3,HOME*%
%TO.N,/HOME*%
X159839999Y-72659999D03*
%TO.P,U1,4,A*%
%TO.N,Net-(U1-A)*%
X159839999Y-75199999D03*
%TO.P,U1,5,INH1*%
%TO.N,Net-(U1-INH1)*%
X159839999Y-77739999D03*
%TO.P,U1,6,B*%
%TO.N,Net-(U1-B)*%
X159839999Y-80279999D03*
%TO.P,U1,7,C*%
%TO.N,Net-(U1-C)*%
X159839999Y-82819999D03*
%TO.P,U1,8,INH2*%
%TO.N,Net-(U1-INH2)*%
X159839999Y-85359999D03*
%TO.P,U1,9,D*%
%TO.N,Net-(U1-D)*%
X159839999Y-87899999D03*
%TO.P,U1,10,ENABLE*%
%TO.N,/ENA*%
X159839999Y-90439999D03*
%TO.P,U1,11,CONTROL*%
%TO.N,/CTRL*%
X167459999Y-90439999D03*
%TO.P,U1,12,Vs*%
%TO.N,VSS*%
X167459999Y-87899999D03*
%TO.P,U1,13,SENS2*%
%TO.N,/Rs2*%
X167459999Y-85359999D03*
%TO.P,U1,14,SENS1*%
%TO.N,/Rs1*%
X167459999Y-82819999D03*
%TO.P,U1,15,Vref*%
%TO.N,/Vref*%
X167459999Y-80279999D03*
%TO.P,U1,16,OSC*%
%TO.N,/OSC*%
X167459999Y-77739999D03*
%TO.P,U1,17,CW*%
%TO.N,/CW*%
X167459999Y-75199999D03*
%TO.P,U1,18,CLOCK*%
%TO.N,/CLK*%
X167459999Y-72659999D03*
%TO.P,U1,19,HALF*%
%TO.N,/HALF*%
X167459999Y-70119999D03*
%TO.P,U1,20,RESET*%
%TO.N,/RESET*%
X167459999Y-67579999D03*
%TD*%
D19*
%TO.P,R1,1*%
%TO.N,/OSC*%
X151920000Y-90110000D03*
D12*
%TO.P,R1,2*%
%TO.N,VSS*%
X126519999Y-90109999D03*
%TD*%
D22*
%TO.N,/HOME*%
X155520000Y-72640000D03*
X153053706Y-84446294D03*
X155990000Y-93940000D03*
X160820000Y-120870000D03*
X160950000Y-122970000D03*
%TO.N,/ENA*%
X159460000Y-95020000D03*
X159400000Y-119960000D03*
X159510000Y-122940000D03*
%TO.N,/SYNC*%
X147820000Y-54860000D03*
X158800000Y-52674500D03*
X161780000Y-52540000D03*
X152340000Y-52674500D03*
%TO.N,/CLK*%
X176880000Y-94510000D03*
X176880000Y-74370000D03*
%TO.N,/CW*%
X175110000Y-91800000D03*
X175170000Y-88880000D03*
X170590000Y-80930000D03*
X170420000Y-76850000D03*
%TO.N,/Vref*%
X171751000Y-89575500D03*
X171750000Y-98760000D03*
%TO.N,/HALF*%
X172615500Y-104880000D03*
X172615500Y-75750000D03*
%TO.N,/RESET*%
X175370000Y-78750000D03*
X175370000Y-75000000D03*
%TO.N,/Rs1*%
X144970000Y-97150000D03*
X140500000Y-96930000D03*
X149830000Y-80540000D03*
X149801886Y-70471886D03*
X153300000Y-68230000D03*
%TO.N,/OSC*%
X169700000Y-80070000D03*
X151970000Y-92790000D03*
%TO.N,Net-(U1-D)*%
X157510000Y-93530000D03*
X167330000Y-56340000D03*
%TO.N,Net-(U1-C)*%
X153901294Y-82848706D03*
X151708241Y-82945665D03*
X148850000Y-59590000D03*
%TO.N,Net-(U1-INH1)*%
X153980000Y-72390000D03*
X152550000Y-71029500D03*
X151500000Y-57220000D03*
X162310000Y-56830000D03*
%TO.N,Net-(U1-B)*%
X162448956Y-61818956D03*
%TO.N,Net-(U1-A)*%
X162665500Y-65000000D03*
%TO.N,Net-(U1-INH2)*%
X160240500Y-65250000D03*
X165950000Y-62020000D03*
%TO.N,/Rs2*%
X172570000Y-61440000D03*
%TO.N,/Rs1*%
X170590000Y-82800000D03*
X147830000Y-100100000D03*
%TO.N,/Rs2*%
X165130000Y-83960000D03*
X141790000Y-100190000D03*
%TO.N,/OSC*%
X134060000Y-81200000D03*
X137020000Y-82600000D03*
%TO.N,VSS*%
X140890000Y-65910000D03*
X137430000Y-71430000D03*
%TO.N,Net-(D1-A)*%
X150400000Y-53910000D03*
X161969500Y-66600000D03*
%TO.N,Net-(D3-A)*%
X173444402Y-73027006D03*
X169280000Y-114750000D03*
%TO.N,Net-(D4-A)*%
X169110000Y-120600000D03*
X174550000Y-73120000D03*
%TD*%
D23*
%TO.N,/HOME*%
X155540000Y-72660000D02*
X159840000Y-72660000D01*
X155520000Y-72640000D02*
X155540000Y-72660000D01*
X155990000Y-87382588D02*
X153053706Y-84446294D01*
X155990000Y-93940000D02*
X155990000Y-87382588D01*
X160820000Y-122840000D02*
X160820000Y-120870000D01*
X160950000Y-122970000D02*
X160820000Y-122840000D01*
%TO.N,/ENA*%
X159840000Y-94640000D02*
X159840000Y-90440000D01*
X159460000Y-95020000D02*
X159840000Y-94640000D01*
X159510000Y-120070000D02*
X159400000Y-119960000D01*
X159510000Y-122940000D02*
X159510000Y-120070000D01*
%TO.N,/SYNC*%
X150412205Y-52674500D02*
X148226705Y-54860000D01*
X148226705Y-54860000D02*
X147820000Y-54860000D01*
X152340000Y-52674500D02*
X150412205Y-52674500D01*
X158934500Y-52540000D02*
X158800000Y-52674500D01*
X161780000Y-52540000D02*
X158934500Y-52540000D01*
%TO.N,/CLK*%
X176910000Y-94510000D02*
X180320000Y-97920000D01*
X176880000Y-94510000D02*
X176910000Y-94510000D01*
X174978295Y-76615000D02*
X176880000Y-74713295D01*
X176880000Y-74713295D02*
X176880000Y-74370000D01*
X171415000Y-76615000D02*
X174978295Y-76615000D01*
X167460000Y-72660000D02*
X171415000Y-76615000D01*
%TO.N,/CW*%
X176150000Y-92840000D02*
X180320000Y-92840000D01*
X175110000Y-91800000D02*
X176150000Y-92840000D01*
X170820107Y-80930000D02*
X175170000Y-85279893D01*
X175170000Y-85279893D02*
X175170000Y-88880000D01*
X168770000Y-75200000D02*
X170420000Y-76850000D01*
X170590000Y-80930000D02*
X170820107Y-80930000D01*
X167460000Y-75200000D02*
X168770000Y-75200000D01*
%TO.N,/Vref*%
X175990000Y-103000000D02*
X180320000Y-103000000D01*
X171750000Y-98760000D02*
X175990000Y-103000000D01*
X171751000Y-82737705D02*
X171751000Y-89575500D01*
X169115000Y-81935000D02*
X170948295Y-81935000D01*
X167460000Y-80280000D02*
X169115000Y-81935000D01*
X170948295Y-81935000D02*
X171751000Y-82737705D01*
%TO.N,/CTRL*%
X182085000Y-79365000D02*
X180320000Y-77600000D01*
X175056087Y-90440000D02*
X182085000Y-83411087D01*
X182085000Y-83411087D02*
X182085000Y-79365000D01*
X167460000Y-90440000D02*
X175056087Y-90440000D01*
%TO.N,/HALF*%
X177650000Y-113160000D02*
X180320000Y-113160000D01*
X174950000Y-110460000D02*
X177650000Y-113160000D01*
X172615500Y-104880000D02*
X174950000Y-107214500D01*
X172615500Y-75275500D02*
X172615500Y-75750000D01*
X174950000Y-107214500D02*
X174950000Y-110460000D01*
X167460000Y-70120000D02*
X172615500Y-75275500D01*
%TO.N,/RESET*%
X175370000Y-78750000D02*
X176390000Y-78750000D01*
X176390000Y-78750000D02*
X180320000Y-82680000D01*
X174194101Y-75000000D02*
X175370000Y-75000000D01*
X167460000Y-68265899D02*
X174194101Y-75000000D01*
X167460000Y-67580000D02*
X167460000Y-68265899D01*
%TO.N,/Rs1*%
X144750000Y-96930000D02*
X144970000Y-97150000D01*
X140500000Y-96930000D02*
X144750000Y-96930000D01*
X149801886Y-70471886D02*
X149801886Y-80511886D01*
X149801886Y-80511886D02*
X149830000Y-80540000D01*
X153370000Y-68160000D02*
X153300000Y-68230000D01*
X153370000Y-59500000D02*
X153370000Y-68160000D01*
%TO.N,/OSC*%
X169770000Y-77740000D02*
X175100000Y-77740000D01*
X167460000Y-77740000D02*
X169770000Y-77740000D01*
X169700000Y-77810000D02*
X169770000Y-77740000D01*
X169700000Y-80070000D02*
X169700000Y-77810000D01*
X151920000Y-90110000D02*
X151920000Y-92740000D01*
X151920000Y-92740000D02*
X151970000Y-92790000D01*
%TO.N,Net-(U1-D)*%
X157510000Y-90230000D02*
X159840000Y-87900000D01*
X157510000Y-93530000D02*
X157510000Y-90230000D01*
X167340000Y-56330000D02*
X167330000Y-56340000D01*
X167340000Y-54420000D02*
X167340000Y-56330000D01*
%TO.N,Net-(U1-C)*%
X153901294Y-82848706D02*
X153930000Y-82820000D01*
X153930000Y-82820000D02*
X159840000Y-82820000D01*
X151920000Y-82733906D02*
X151708241Y-82945665D01*
X151920000Y-72890000D02*
X151920000Y-82733906D01*
X150880000Y-71850000D02*
X151920000Y-72890000D01*
X150880000Y-61620000D02*
X150880000Y-68700000D01*
X148850000Y-59590000D02*
X150880000Y-61620000D01*
X150880000Y-68700000D02*
X150880000Y-71850000D01*
%TO.N,Net-(U1-INH1)*%
X153980000Y-75650000D02*
X156070000Y-77740000D01*
X156070000Y-77740000D02*
X159840000Y-77740000D01*
X153980000Y-72390000D02*
X153980000Y-75650000D01*
X151500000Y-69979500D02*
X152550000Y-71029500D01*
X151500000Y-57220000D02*
X151500000Y-69979500D01*
X161085000Y-55785000D02*
X161265000Y-55785000D01*
X161265000Y-55785000D02*
X162310000Y-56830000D01*
X159720000Y-54420000D02*
X161085000Y-55785000D01*
%TO.N,Net-(U1-B)*%
X160990000Y-60360000D02*
X162448956Y-61818956D01*
X160990000Y-59500000D02*
X160990000Y-60360000D01*
%TO.N,Net-(U1-A)*%
X162665500Y-63715500D02*
X162665500Y-65000000D01*
X158450000Y-59500000D02*
X162665500Y-63715500D01*
%TO.N,Net-(U1-INH2)*%
X152540000Y-82710000D02*
X155190000Y-85360000D01*
X152540000Y-72350000D02*
X152540000Y-82710000D01*
X160240500Y-65250000D02*
X159640000Y-65250000D01*
X159640000Y-65250000D02*
X152540000Y-72350000D01*
X155190000Y-85360000D02*
X159840000Y-85360000D01*
X166070000Y-61900000D02*
X165950000Y-62020000D01*
X166070000Y-59500000D02*
X166070000Y-61900000D01*
%TO.N,/Rs2*%
X171150000Y-60020000D02*
X172570000Y-61440000D01*
X171150000Y-59500000D02*
X171150000Y-60020000D01*
%TO.N,/Rs1*%
X170570000Y-82820000D02*
X167460000Y-82820000D01*
X147650000Y-100280000D02*
X147830000Y-100100000D01*
X170590000Y-82800000D02*
X170570000Y-82820000D01*
X147650000Y-106670000D02*
X147650000Y-100280000D01*
%TO.N,/Rs2*%
X166060000Y-83960000D02*
X167460000Y-85360000D01*
X165130000Y-83960000D02*
X166060000Y-83960000D01*
X141600000Y-106670000D02*
X141600000Y-100380000D01*
X141600000Y-100380000D02*
X141790000Y-100190000D01*
%TO.N,/OSC*%
X175100000Y-77740000D02*
X180320000Y-72520000D01*
X134060000Y-81120000D02*
X134060000Y-81200000D01*
X144410000Y-82600000D02*
X137020000Y-82600000D01*
X130940000Y-80120000D02*
X133060000Y-80120000D01*
X133810000Y-80870000D02*
X134060000Y-81120000D01*
X133060000Y-80120000D02*
X133810000Y-80870000D01*
X151920000Y-90110000D02*
X144410000Y-82600000D01*
%TO.N,VSS*%
X144460000Y-62340000D02*
X140890000Y-65910000D01*
X144205000Y-53575000D02*
X144460000Y-53575000D01*
X163530000Y-59500000D02*
X163530000Y-83970000D01*
X144460000Y-53575000D02*
X146670000Y-55785000D01*
X159815000Y-55785000D02*
X163530000Y-59500000D01*
X163530000Y-83970000D02*
X167460000Y-87900000D01*
X134750000Y-63030000D02*
X144205000Y-53575000D01*
X137430000Y-79200000D02*
X126520000Y-90110000D01*
X144460000Y-53575000D02*
X144460000Y-62340000D01*
X146670000Y-55785000D02*
X159815000Y-55785000D01*
X137430000Y-71430000D02*
X137430000Y-79200000D01*
D24*
%TO.N,VS*%
X142710000Y-73850000D02*
X142710000Y-75450000D01*
X153730000Y-118053332D02*
X153760000Y-118083332D01*
X132535000Y-53625000D02*
X132535000Y-63675000D01*
X132535000Y-63675000D02*
X142710000Y-73850000D01*
X132535000Y-53625000D02*
X122720000Y-63440000D01*
X122720000Y-63440000D02*
X122720000Y-73600000D01*
X132535000Y-53625000D02*
X134395000Y-51765000D01*
X153770000Y-103090000D02*
X153770000Y-110568750D01*
X153730000Y-110608750D02*
X153730000Y-118053332D01*
X153760000Y-118083332D02*
X153760000Y-125570000D01*
X153770000Y-86510000D02*
X153770000Y-103090000D01*
X154525000Y-51765000D02*
X157180000Y-54420000D01*
X142710000Y-75450000D02*
X153770000Y-86510000D01*
X153770000Y-110568750D02*
X153730000Y-110608750D01*
X153760000Y-125570000D02*
X153770000Y-125580000D01*
X134395000Y-51765000D02*
X154525000Y-51765000D01*
D23*
%TO.N,Net-(D1-A)*%
X171970000Y-106050000D02*
X169010000Y-103090000D01*
X138320000Y-136345000D02*
X141325000Y-139350000D01*
X138320000Y-136345000D02*
X130165000Y-136345000D01*
X130165000Y-136345000D02*
X119870000Y-126050000D01*
X161969500Y-96049500D02*
X161969500Y-66600000D01*
X150910000Y-54420000D02*
X154640000Y-54420000D01*
X150400000Y-53910000D02*
X150910000Y-54420000D01*
X141325000Y-139350000D02*
X169520000Y-139350000D01*
X169520000Y-139350000D02*
X171970000Y-136900000D01*
X171970000Y-136900000D02*
X171970000Y-106050000D01*
X169010000Y-103090000D02*
X161969500Y-96049500D01*
%TO.N,Net-(D2-A)*%
X171350000Y-112988750D02*
X168970000Y-110608750D01*
X168970000Y-110608750D02*
X161105000Y-102743750D01*
X161105000Y-102743750D02*
X161105000Y-64695000D01*
X143400000Y-136345000D02*
X145785000Y-138730000D01*
X171350000Y-136520000D02*
X171350000Y-112988750D01*
X143400000Y-136345000D02*
X141850000Y-136345000D01*
X161105000Y-64695000D02*
X155910000Y-59500000D01*
X124058332Y-118553332D02*
X119870000Y-118553332D01*
X169140000Y-138730000D02*
X171350000Y-136520000D01*
X141850000Y-136345000D02*
X124058332Y-118553332D01*
X145785000Y-138730000D02*
X169140000Y-138730000D01*
%TO.N,Net-(D3-A)*%
X148480000Y-136345000D02*
X123213750Y-111078750D01*
X170730000Y-135920000D02*
X170730000Y-119813332D01*
X168540000Y-138110000D02*
X170730000Y-135920000D01*
X170730000Y-119813332D02*
X169000000Y-118083332D01*
X169000000Y-118083332D02*
X169000000Y-115030000D01*
X173444402Y-73027006D02*
X173444402Y-64334402D01*
X169000000Y-115030000D02*
X169280000Y-114750000D01*
X173444402Y-64334402D02*
X168610000Y-59500000D01*
X148480000Y-136345000D02*
X150245000Y-138110000D01*
X123213750Y-111078750D02*
X119870000Y-111078750D01*
X150245000Y-138110000D02*
X168540000Y-138110000D01*
%TO.N,Net-(D4-A)*%
X169010000Y-120700000D02*
X169110000Y-120600000D01*
X154705000Y-137490000D02*
X168280000Y-137490000D01*
X170110000Y-135660000D02*
X170110000Y-126680000D01*
X174550000Y-73120000D02*
X174550000Y-59090000D01*
X122471334Y-103560000D02*
X119870000Y-103560000D01*
X169010000Y-125580000D02*
X169010000Y-120700000D01*
X174550000Y-59090000D02*
X169880000Y-54420000D01*
X170110000Y-126680000D02*
X169010000Y-125580000D01*
X137955000Y-120740000D02*
X137955000Y-119043666D01*
X168280000Y-137490000D02*
X170110000Y-135660000D01*
X153560000Y-136345000D02*
X154705000Y-137490000D01*
X153560000Y-136345000D02*
X137955000Y-120740000D01*
X137955000Y-119043666D02*
X122471334Y-103560000D01*
%TD*%
M02*
