M48
; DRILL file {KiCad (7.0.0)} date Wed Apr 19 19:54:22 2023
; FORMAT={-:-/ absolute / inch / decimal}
; #@! TF.CreationDate,2023-04-19T19:54:22+02:00
; #@! TF.GenerationSoftware,Kicad,Pcbnew,(7.0.0)
; #@! TF.FileFunction,Plated,1,2,PTH
FMAT,2
INCH
; #@! TA.AperFunction,Plated,PTH,ViaDrill
T1C0.0157
; #@! TA.AperFunction,Plated,PTH,ComponentDrill
T2C0.0315
; #@! TA.AperFunction,Plated,PTH,ComponentDrill
T3C0.0394
; #@! TA.AperFunction,Plated,PTH,ComponentDrill
T4C0.0472
; #@! TA.AperFunction,Plated,PTH,ComponentDrill
T5C0.0512
; #@! TA.AperFunction,Plated,PTH,ComponentDrill
T6C0.0984
%
G90
G05
T1
X5.278Y-3.1969
X5.3945Y-3.252
X5.4106Y-2.8122
X5.5315Y-3.8161
X5.5469Y-2.5949
X5.5823Y-3.9445
X5.7075Y-3.8248
X5.8197Y-2.1598
X5.8201Y-3.9409
X5.8602Y-2.3461
X5.8977Y-2.7745
X5.8988Y-3.1709
X5.9213Y-2.1224
X5.9646Y-2.2528
X5.9728Y-3.2656
X5.9831Y-3.6531
X5.9976Y-2.0738
X6.0059Y-2.7964
X6.0257Y-3.3247
X6.0354Y-2.6862
X6.0591Y-3.2618
X6.0622Y-2.85
X6.1228Y-2.8598
X6.1413Y-3.6984
X6.2012Y-3.6823
X6.252Y-2.0738
X6.2756Y-4.7228
X6.278Y-3.7409
X6.2799Y-4.8402
X6.3087Y-2.5689
X6.3315Y-4.7587
X6.3366Y-4.8413
X6.3693Y-2.0685
X6.3768Y-2.622
X6.3902Y-2.2374
X6.3956Y-2.4338
X6.4042Y-2.5591
X6.5012Y-3.3055
X6.5335Y-2.4417
X6.5878Y-2.2181
X6.6579Y-4.748
X6.6646Y-4.5177
X6.6811Y-3.1524
X6.7094Y-3.0256
X6.7161Y-3.1862
X6.7161Y-3.2598
X6.7618Y-3.8882
X6.7619Y-3.5266
X6.7941Y-2.4189
X6.7959Y-2.9823
X6.7959Y-4.1291
X6.8285Y-2.8751
X6.872Y-2.8787
X6.8941Y-3.6142
X6.8965Y-3.4992
X6.9043Y-2.9528
X6.9043Y-3.1004
X6.9638Y-2.928
X6.9638Y-3.7209
T2
X4.8315Y-2.8976
X4.8315Y-3.0945
X5.3051Y-2.4815
X5.3051Y-2.6783
X6.2929Y-2.6606
X6.2929Y-2.7606
X6.2929Y-2.8606
X6.2929Y-2.9606
X6.2929Y-3.0606
X6.2929Y-3.1606
X6.2929Y-3.2606
X6.2929Y-3.3606
X6.2929Y-3.4606
X6.2929Y-3.5606
X6.5929Y-2.6606
X6.5929Y-2.7606
X6.5929Y-2.8606
X6.5929Y-2.9606
X6.5929Y-3.0606
X6.5929Y-3.1606
X6.5929Y-3.2606
X6.5929Y-3.3606
X6.5929Y-3.4606
X6.5929Y-3.5606
T3
X5.1551Y-2.8591
X5.1551Y-3.1543
X6.0382Y-2.3425
X6.0882Y-2.1425
X6.1382Y-2.3425
X6.1882Y-2.1425
X6.2382Y-2.3425
X6.2882Y-2.1425
X6.3382Y-2.3425
X6.3882Y-2.1425
X6.4382Y-2.3425
X6.4882Y-2.1425
X6.5382Y-2.3425
X6.5882Y-2.1425
X6.6382Y-2.3425
X6.6882Y-2.1425
X6.7382Y-2.3425
T4
X4.7193Y-4.0772
X4.7193Y-4.3732
X4.7193Y-4.6675
X4.7193Y-4.9626
X4.9811Y-3.5476
X5.3193Y-4.0772
X5.3193Y-4.3732
X5.3193Y-4.6675
X5.3193Y-4.9626
X5.5748Y-4.1996
X5.5748Y-4.7996
X5.6185Y-2.9075
X5.813Y-4.1996
X5.813Y-4.7996
X5.8154Y-2.9075
X5.9811Y-3.5476
X6.0524Y-4.3547
X6.0535Y-4.649
X6.0539Y-4.0587
X6.0539Y-4.9441
X6.6524Y-4.3547
X6.6535Y-4.649
X6.6539Y-4.0587
X6.6539Y-4.9441
T5
X5.0179Y-2.1112
X5.2179Y-2.1112
X5.4457Y-5.3679
X5.4874Y-2.1093
X5.6457Y-5.3679
X5.6874Y-2.1093
X5.8457Y-5.3679
X6.0457Y-5.3679
X7.0992Y-2.4551
X7.0992Y-2.6551
X7.0992Y-2.8551
X7.0992Y-3.0551
X7.0992Y-3.2551
X7.0992Y-3.4551
X7.0992Y-3.6551
X7.0992Y-3.8551
X7.0992Y-4.0551
X7.0992Y-4.2551
X7.0992Y-4.4551
X7.0992Y-4.6551
T6
X4.7427Y-5.3955
X4.7471Y-2.0038
X7.1628Y-2.0042
X7.1651Y-5.3947
T0
M30
